<mxfile host="app.diagrams.net" modified="2021-06-30T00:44:31.869Z" agent="5.0 (Windows NT 10.0; Win64; x64) AppleWebKit/537.36 (KHTML, like Gecko) Chrome/90.0.4430.93 Safari/537.36 Edg/90.0.818.56" etag="HT-Hdon41qX2V_Kw0idP" version="14.8.2" type="github">
  <diagram id="xKKiqMZVEzltm9pV750h" name="Page-1">
    <mxGraphModel dx="1872" dy="446" grid="1" gridSize="10" guides="1" tooltips="1" connect="1" arrows="1" fold="1" page="1" pageScale="1" pageWidth="850" pageHeight="1100" math="0" shadow="0">
      <root>
        <mxCell id="0" />
        <mxCell id="1" parent="0" />
        <mxCell id="m58B-vZ2goC1sSYAQMLH-1" value="" style="rounded=0;whiteSpace=wrap;html=1;" parent="1" vertex="1">
          <mxGeometry x="460" y="272" width="380" height="110" as="geometry" />
        </mxCell>
        <mxCell id="m58B-vZ2goC1sSYAQMLH-2" value="odps_first" style="rounded=1;whiteSpace=wrap;html=1;" parent="1" vertex="1">
          <mxGeometry x="570" y="302" width="70" height="20" as="geometry" />
        </mxCell>
        <mxCell id="m58B-vZ2goC1sSYAQMLH-3" value="odps_new" style="rounded=1;whiteSpace=wrap;html=1;" parent="1" vertex="1">
          <mxGeometry x="570" y="332" width="70" height="20" as="geometry" />
        </mxCell>
        <mxCell id="m58B-vZ2goC1sSYAQMLH-4" value="DEV" style="text;html=1;strokeColor=none;fillColor=none;align=center;verticalAlign=middle;whiteSpace=wrap;rounded=0;" parent="1" vertex="1">
          <mxGeometry x="480" y="282" width="40" height="20" as="geometry" />
        </mxCell>
        <mxCell id="m58B-vZ2goC1sSYAQMLH-5" value="MaxCompute" style="ellipse;whiteSpace=wrap;html=1;" parent="1" vertex="1">
          <mxGeometry x="710" y="287" width="120" height="80" as="geometry" />
        </mxCell>
        <mxCell id="m58B-vZ2goC1sSYAQMLH-6" value="" style="curved=1;endArrow=blockThin;html=1;exitX=1;exitY=0.5;exitDx=0;exitDy=0;entryX=0;entryY=0.5;entryDx=0;entryDy=0;endFill=1;" parent="1" source="m58B-vZ2goC1sSYAQMLH-2" target="m58B-vZ2goC1sSYAQMLH-5" edge="1">
          <mxGeometry width="50" height="50" relative="1" as="geometry">
            <mxPoint x="620" y="452" as="sourcePoint" />
            <mxPoint x="670" y="402" as="targetPoint" />
            <Array as="points">
              <mxPoint x="690" y="312" />
            </Array>
          </mxGeometry>
        </mxCell>
        <mxCell id="m58B-vZ2goC1sSYAQMLH-7" value="" style="curved=1;endArrow=blockThin;html=1;exitX=1;exitY=0.5;exitDx=0;exitDy=0;endFill=1;" parent="1" source="m58B-vZ2goC1sSYAQMLH-3" edge="1">
          <mxGeometry width="50" height="50" relative="1" as="geometry">
            <mxPoint x="650" y="322" as="sourcePoint" />
            <mxPoint x="710" y="332" as="targetPoint" />
            <Array as="points">
              <mxPoint x="680" y="342" />
            </Array>
          </mxGeometry>
        </mxCell>
        <mxCell id="m58B-vZ2goC1sSYAQMLH-9" value="&lt;div style=&quot;color: rgb(0, 0, 0); font-family: helvetica; font-size: 12px; font-style: normal; font-weight: 400; letter-spacing: normal; text-indent: 0px; text-transform: none; word-spacing: 0px; background-color: rgb(248, 249, 250); text-align: left;&quot;&gt;&lt;span&gt;&lt;font style=&quot;font-size: 10px&quot;&gt;odps_first: default odps data source (http) created automatically with the creation of the workspace&lt;/font&gt;&lt;/span&gt;&lt;/div&gt;&lt;div style=&quot;color: rgb(0, 0, 0); font-family: helvetica; font-size: 12px; font-style: normal; font-weight: 400; letter-spacing: normal; text-indent: 0px; text-transform: none; word-spacing: 0px; background-color: rgb(248, 249, 250); text-align: left;&quot;&gt;&lt;span&gt;&lt;font style=&quot;font-size: 10px&quot;&gt;odps_new: new odps data source (https) created by admin&lt;/font&gt;&lt;/span&gt;&lt;/div&gt;" style="text;whiteSpace=wrap;html=1;" parent="1" vertex="1">
          <mxGeometry x="460" y="160" width="460" height="40" as="geometry" />
        </mxCell>
        <mxCell id="m58B-vZ2goC1sSYAQMLH-10" value="Use the permissions of the AK configured in data source" style="text;html=1;strokeColor=none;fillColor=none;align=left;verticalAlign=middle;whiteSpace=wrap;rounded=0;" parent="1" vertex="1">
          <mxGeometry x="620" y="402" width="190" height="30" as="geometry" />
        </mxCell>
        <mxCell id="m58B-vZ2goC1sSYAQMLH-11" value="" style="curved=1;endArrow=blockThin;html=1;exitX=0;exitY=0;exitDx=0;exitDy=0;endFill=1;entryX=0.5;entryY=1;entryDx=0;entryDy=0;" parent="1" source="m58B-vZ2goC1sSYAQMLH-10" target="m58B-vZ2goC1sSYAQMLH-3" edge="1">
          <mxGeometry width="50" height="50" relative="1" as="geometry">
            <mxPoint x="650" y="352" as="sourcePoint" />
            <mxPoint x="720" y="342" as="targetPoint" />
            <Array as="points">
              <mxPoint x="605" y="392" />
            </Array>
          </mxGeometry>
        </mxCell>
        <mxCell id="m58B-vZ2goC1sSYAQMLH-12" value="Use the permissions of the task runner" style="text;html=1;strokeColor=none;fillColor=none;align=left;verticalAlign=middle;whiteSpace=wrap;rounded=0;" parent="1" vertex="1">
          <mxGeometry x="570" y="222" width="210" height="20" as="geometry" />
        </mxCell>
        <mxCell id="m58B-vZ2goC1sSYAQMLH-14" value="" style="curved=1;endArrow=blockThin;html=1;exitX=0.25;exitY=1;exitDx=0;exitDy=0;endFill=1;entryX=0.5;entryY=0;entryDx=0;entryDy=0;" parent="1" source="m58B-vZ2goC1sSYAQMLH-12" target="m58B-vZ2goC1sSYAQMLH-2" edge="1">
          <mxGeometry width="50" height="50" relative="1" as="geometry">
            <mxPoint x="630" y="412" as="sourcePoint" />
            <mxPoint x="615" y="362" as="targetPoint" />
            <Array as="points">
              <mxPoint x="605" y="252" />
            </Array>
          </mxGeometry>
        </mxCell>
        <mxCell id="m58B-vZ2goC1sSYAQMLH-15" value="" style="rounded=0;whiteSpace=wrap;html=1;" parent="1" vertex="1">
          <mxGeometry x="460" y="530" width="380" height="110" as="geometry" />
        </mxCell>
        <mxCell id="m58B-vZ2goC1sSYAQMLH-16" value="odps_first" style="rounded=1;whiteSpace=wrap;html=1;" parent="1" vertex="1">
          <mxGeometry x="570" y="560" width="70" height="20" as="geometry" />
        </mxCell>
        <mxCell id="m58B-vZ2goC1sSYAQMLH-17" value="odps_new" style="rounded=1;whiteSpace=wrap;html=1;" parent="1" vertex="1">
          <mxGeometry x="570" y="590" width="70" height="20" as="geometry" />
        </mxCell>
        <mxCell id="m58B-vZ2goC1sSYAQMLH-18" value="PROD" style="text;html=1;strokeColor=none;fillColor=none;align=center;verticalAlign=middle;whiteSpace=wrap;rounded=0;" parent="1" vertex="1">
          <mxGeometry x="480" y="540" width="40" height="20" as="geometry" />
        </mxCell>
        <mxCell id="m58B-vZ2goC1sSYAQMLH-19" value="MaxCompute" style="ellipse;whiteSpace=wrap;html=1;" parent="1" vertex="1">
          <mxGeometry x="710" y="545" width="120" height="80" as="geometry" />
        </mxCell>
        <mxCell id="m58B-vZ2goC1sSYAQMLH-20" value="" style="curved=1;endArrow=blockThin;html=1;exitX=1;exitY=0.5;exitDx=0;exitDy=0;entryX=0;entryY=0.5;entryDx=0;entryDy=0;endFill=1;" parent="1" source="m58B-vZ2goC1sSYAQMLH-16" target="m58B-vZ2goC1sSYAQMLH-19" edge="1">
          <mxGeometry width="50" height="50" relative="1" as="geometry">
            <mxPoint x="620" y="710" as="sourcePoint" />
            <mxPoint x="670" y="660" as="targetPoint" />
            <Array as="points">
              <mxPoint x="690" y="570" />
            </Array>
          </mxGeometry>
        </mxCell>
        <mxCell id="m58B-vZ2goC1sSYAQMLH-21" value="" style="curved=1;endArrow=blockThin;html=1;exitX=1;exitY=0.5;exitDx=0;exitDy=0;endFill=1;" parent="1" source="m58B-vZ2goC1sSYAQMLH-17" edge="1">
          <mxGeometry width="50" height="50" relative="1" as="geometry">
            <mxPoint x="650" y="580" as="sourcePoint" />
            <mxPoint x="710" y="590" as="targetPoint" />
            <Array as="points">
              <mxPoint x="680" y="600" />
            </Array>
          </mxGeometry>
        </mxCell>
        <mxCell id="m58B-vZ2goC1sSYAQMLH-22" value="Use the permissions of the AK configured in data source" style="text;html=1;strokeColor=none;fillColor=none;align=left;verticalAlign=middle;whiteSpace=wrap;rounded=0;" parent="1" vertex="1">
          <mxGeometry x="620" y="660" width="190" height="30" as="geometry" />
        </mxCell>
        <mxCell id="m58B-vZ2goC1sSYAQMLH-23" value="" style="curved=1;endArrow=blockThin;html=1;exitX=0;exitY=0;exitDx=0;exitDy=0;endFill=1;entryX=0.5;entryY=1;entryDx=0;entryDy=0;" parent="1" source="m58B-vZ2goC1sSYAQMLH-22" target="m58B-vZ2goC1sSYAQMLH-17" edge="1">
          <mxGeometry width="50" height="50" relative="1" as="geometry">
            <mxPoint x="650" y="610" as="sourcePoint" />
            <mxPoint x="720" y="600" as="targetPoint" />
            <Array as="points">
              <mxPoint x="605" y="650" />
            </Array>
          </mxGeometry>
        </mxCell>
        <mxCell id="m58B-vZ2goC1sSYAQMLH-24" value="Use the permissions of the MaxCompute Visitor Identity" style="text;html=1;strokeColor=none;fillColor=none;align=left;verticalAlign=middle;whiteSpace=wrap;rounded=0;" parent="1" vertex="1">
          <mxGeometry x="570" y="470" width="160" height="30" as="geometry" />
        </mxCell>
        <mxCell id="m58B-vZ2goC1sSYAQMLH-25" value="" style="curved=1;endArrow=blockThin;html=1;exitX=0.25;exitY=1;exitDx=0;exitDy=0;endFill=1;entryX=0.5;entryY=0;entryDx=0;entryDy=0;" parent="1" source="m58B-vZ2goC1sSYAQMLH-24" target="m58B-vZ2goC1sSYAQMLH-16" edge="1">
          <mxGeometry width="50" height="50" relative="1" as="geometry">
            <mxPoint x="630" y="670" as="sourcePoint" />
            <mxPoint x="615" y="620" as="targetPoint" />
            <Array as="points">
              <mxPoint x="590" y="530" />
            </Array>
          </mxGeometry>
        </mxCell>
        <mxCell id="m58B-vZ2goC1sSYAQMLH-26" value="" style="shape=image;verticalLabelPosition=bottom;labelBackgroundColor=#ffffff;verticalAlign=top;aspect=fixed;imageAspect=0;image=data:image/png,iVBORw0KGgoAAAANSUhEUgAABe0AAAD5CAYAAAC6XR5AAAAgAElEQVR4Aeyd+ZMVVZr3379kYn6d6JiOfmMmJrpjOt7pMOYdo6PDt5exu6fbVrttAXFBVNxoEARRRFFBBVnEDRHcADdU3AXERlH2facoiiqqoIpix/PG95TP5dxTmVV5q+69lffW50QUmTfz5Fk+5+He5/nmyZP/y/WSvtlwyB1tO8UfDLABbAAbwAawAWwAG8AGsAFsABvABrABbAAbwAawAWwAG8AGsIEK28D/6kWzd4j23LDgpg02gA1gA9gANoANYAPYADaADWAD2AA2gA1gA9gANoANYAPYQHVsANG+wndFMOTqGDKc4YwNYAPYADaADWAD2AA2gA1gA9gANoANYAPYADaADWAD9WADiPaI9jzOgg1gA9gANoANYAPYADaADWAD2AA2gA1gA9gANoANYAPYADaQExtAtM/JQNTDHSD6wJ1MbAAbwAawAWwAG8AGsAFsABvABrABbAAbwAawAWwAG8AG+mcDiPaI9txBwwawAWwAG8AGsAFsABvABrABbAAbwAawAWwAG8AGsAFsABvIiQ0g2udkILj71L+7T/CDHzaADWAD2AA2gA1gA9gANoANYAPYADaADWAD2AA2gA3Ugw0g2iPacwcNG8AGsAFsABvABrABbAAbwAawAWwAG8AGsAFsABvABrABbCAnNoBon5OBqIc7QPSBO5nYADaADWAD2AA2gA1gA9gANoANYAPYADaADWAD2AA2gA30zwYyifbfbDjk+IMBNoANYAPYADaADWAD2AA2gA1gA9gANoANYAPYADaADWAD2AA2UFkbyCTaOxIEIAABCEAAAhCAAAQgAAEIQAACEIAABCAAAQhAAAIVJ4BoX3HEVAABCEAAAhCAAAQgAAEIQAACEIAABCAAAQhAAAIQyEYA0T4bJ3JBAAIQgAAEIAABCEAAAhCAAAQgAAEIQAACEIAABCpOANG+4oipAAIQgAAEIAABCEAAAhCAAAQgAAEIQAACEIAABCCQjQCifTZO5IIABCAAAQhAAAIQgAAEIAABCEAAAhCAAAQgAAEIVJwAon3FEVMBBCAAAQhAAAIQgAAEIAABCEAAAhCAAAQgAAEIQCAbAUT7bJzIBQEIQAACEIAABCAAAQhAAAIQgAAEIAABCEAAAhCoOAFE+4ojpgIIQAACEIAABCAAAQhAAAIQgAAEIAABCEAAAhCAQDYCiPbZOJELAhCAAAQgAAEIQAACEIAABCAAAQhAAAIQgAAEIFBxAoj2FUdMBRCAAAQgAAEIQAACEIAABCAAAQhAAAIQgAAEIACBbAQQ7bNxIhcEIAABCEAAAhCAAAQgAAEIQAACEIAABCAAAQhAoOIEEO0rjpgKIAABCEAAAhCAAAQgAAEIQAACEIAABCAAAQhAAALZCCDaZ+NELghAAAIQgAAEIAABCEAAAhCAAAQgAAEIQAACEIBAxQkg2lccMRVAAAIQgAAEIAABCEAAAhCAAAQgAAEIQAACEIAABLIRQLTPxolcEIAABCAAAQhAAAIQgAAEIAABCEAAAhCAAAQgAIGKE0C0rzhiKoAABCAAAQhAAAIQgAAEIAABCEAAAhCAAAQgAAEIZCOAaJ+NE7kgAAEIQAACEIAABCAAAQhAAAIQgAAEIAABCEAAAhUngGhfccRUAAEIQAACEIAABCAAAQhAAAIQgAAEIAABCEAAAhDIRgDRPhsnckEAAhCAAAQgAAEIQAACEIAABCAAAQhAAAIQgAAEKk4A0b7iiKkAAhCAAAQgAAEIQAACEIAABCAAAQhAAAIQgAAEIJCNAKJ9Nk7kggAEIAABCEAAAhCAAAQgAAEIQAACEIAABCAAAQhUnACifcURUwEEIAABCEAAAhCAAAQgAAEIQAACEIAABCAAAQhAIBsBRPtsnMgFAQhAAAIQgAAEIAABCEAAAhCAAAQgAAEIQAACEKg4AUT7iiOmAghAAAIQgAAEIAABCEAAAhCAAAQgAAEIQAACEIBANgK5EO3/5esGl/SXrQvkggAEIAABCEAAAhCAAAQgUF8EkuIjHSNBAAIQgAAEIAABCNQ/AUT7+h9jeggBCEAAAhCAAAQgAAEI1BgBRPsaGzCaCwEIQAACEIAABMpIANG+jDApCgIQgAAEIAABCEAAAhCAQDkIINqXgyJlQAACEIAABCAAgdokgGhfm+NGqyEAAQhAAAIQgAAEIACBOiaAaF/Hg0vXIAABCEAAAhCAQC8E6k60X7NmrfuHf/znxL/f/f4v7tnnFrjW1rZesJT/tLVr2vSnyl94CSV+9NFn7l//7RK39I1lJVxV3qzGIm2cdPzu0RPcqVOny1txUFoeOATNYRcCEIAABCAAAQhAAAJFBMop2if53//0gx+7q66+zi1Z8rbr7DxZVHcePixe/JaP6bQllU5AMe+VVw1LjIstDrv055e7Xbv2lF54xisaDjW6P1xxrRt7z/0Vje0yNodsEIAABCAAgZoiMKhEe3NOfnP5VRV1TpIswBxlRHvnjIWNR9IW0T7JijgGAQhAAAIQgAAEIDBYCFRatA99cMVHGzZszhVaRPv+DQeiff/4cTUEIAABCEBgoAnUrWgfi+PfffedO3Cgwd11971+tsG48ZPdmTNnqsbfhOq4XZVqgOqp9MyJvra92iz62k6uu0ggz/Z0sZXsQQACEIAABCAAgfohUAnRPoxFLly44PbtO+DumzTVada9hHvFS3lJiPbdR8KYKJ7qLZlor9n2A/GkeW/t43x3AqWMb/erOQIBCEAAAvVGYNCI9jZwLS1H3V+vvanqgna1heo8i6zVZmFjz7bvBPJsT33vFVdCAAIQgAAEIACB/BKotGhvPT93/rybMfNpP7Hp4alPuPPnL9ipAd2agKktqYuAMUG0r0+LKGV865MAvYIABCAAgZDAoBPt1XkJkHoc1Jwd+3H85NOV7pFHZ7gf/uinPo+B0oz8d95Z7td81CwUnR91+1i3efNWpxn8YdJnPVo6/Prb/IyV/7r0N27RotfdypVf+jrD2S1xO6wcreWu5WGSZspr9suEiVPcT/79Ul/ez3/xW/fkjLmu5Wirv9z6Ej7uGvbVBHPlC5Nm2qxa9aVvt/qnfg4ZerM/pnOWbMaG2t7Wdsw99PB03xZdc+dd453WLewtWRtCFj1do3yaIdLc3OLX4v/lr/7o+671EcXVxsD6/tnnq7oVt2zZcn+N9dvaYJ91gV3fXzsolZHZwZd//9p9vuILv+6jxkz9VLvFXzYx75n57meXXFbou/KGY6M+2Dhq7DSGshPZSzwupTJNs6duoDkAAQhAAAIQgAAEIFAWAtUS7dXYpqYj7o9XDHG//u8r3cGDxbPtFWco3gj9UPmoEvuVtCa64pYHp0zrJvjv33/Q+7Th0pdZ/VXzzUN/XfXZ9Yq3eopblNd83kONhwu+tHxkXauYzeII5bX4QNco5lJso/LlTytGPHHihM+v+ENxiPxjMXl63vzEdwKEcZvFVl+sXlNUp7FTH+Wvh3UqzlK8FbYt9sljNj7z9/9YTJJ1pr3Ksvgz7KNiEr0Pzcb7aGubj4tH3jLaMwnrPHbsuBsybKQ/r3zWhnD8rc+PTZvp3n3vQ6d4OWxjX8a3tzgxZFgv4xtyZx8CEIAABOqTAKJ9INbKSTVHSD/mSnop0/h7JxeO23lt5cTJgQmdPTliJqiHea1sK1dla1955CCGKU20X/3lVwVnOSxb+9cOGeFFbTlb8bmwDnNGQwdPDthTs57xIm98rRxMnTMnzRyv20aN8Tcu4vxygOWs9ZSsDSGLnvIrn5zFqY882a2NYr1u/UZ/uQUFccBw9uxZL1yrDOVRsjaEHIydjZX6Zm0sxQ5KZWR2cPPIu7v1T/xfe/0NN2bsfd3GVec+/WxlAV1P46jHnffs3VfIm5WpMYnHObbZQsHsQAACEIAABCAAAQiUhUA1RXvNrpcPLf9y7dp1hfZLYJUfGfuCyjd7znNepNcEJy09+rv/ucYdPnykcK123l/+sb9WIr9SKf6q+aGhv97T9WpTGLeoPvN5r79hVLc+KI5Q7GbJ4gO9nFdxQ9xnTYRZuPC1bv668k15aFohXlJ5aXGb4se33n7Pqizc8FC8qXgurnPipIf9kq7Wtvh8yKZQ6Pc7FpOEgnicJ/yssv713y5xjz8xp1s8K7bvvf+Rz67YV2P/Hz/7hdu8ZVtYhFu/fpMvQ+eVz9qQJNrrBoHFzdbGvo5vb3GiGmkM62V8i8DzAQIQgAAE6pLAoBPt29s73IiRdxU5GeYQ/vmaG7zjpLv7luzcn64c5sVhnZMILAdUToYcut17usRQW3pHzphm10t8V345u5pxICfLRGCVb2JtLIAmifYSwiWIq87XF7/py1YZEpMXvPSqdx7nv/iyNduXbTMlCgcDZyV08ORUykFTfonAcpb09/XX3/r+qU5rozle6ovWv9SsHKWGhkPe0Ywd/bBu2zeHKXY67bM5bZbfOIVjIEZyKHXNE0/O8VnTAgbNFpIQH77HwNoQcrCx7q8dlMooqX+ysVdeXerH9X//y3/42Srbt+/0zq/6bmOu4EF5lWwcNS6NjU2FvLIXjWH4uHNSnUlMwzFIsic7n2V78FC74w8G2AA2gA1gA9gANpBXG8jiz1QzTzVFe/VLsYR8a8U5SmFM8vEnK7zPKSFW6+DfNOIOd8l//tJt27bT57WnWsMnXpMmzpTir5pvHvrrdn2WuEUNM59XM9jNP+7o6HCzZndNWLrhxtudPitZfBDGW4rlNm3a4mMixTmaWf/mW+/6WEnndIND8aBiDXtCwWJCxS7frttQyKuJRjqmJxoshrJZ5ypbbVJbxFhiuMr9xWW/L5p4Y0wsNvMNT/knjEkszoq3YTlWdsz21dfe8DGJJhGdPn3a1/bNtxt8/BjGnzoxZ+7z/rjOK1kbkkR7cZatWSyj/H0d397iRJVdb+PrASf8k9fvV9rFbz82gA1gA6XbwKAR7eX8yFGToClnRTPFJXgrmYMiJyFMEvivG36rd0jjWQQqT2KoyjJnRY6AHK54poXKNCdBjqMlcyJDZ0nnQgdZjpySlS2BOss6kyo7SWS1dpjza8602h3O2rY26tFICfo2e90cL934EJ8w2UwaKzs8F+5bG2Kn0T4nifaaybFx45awGO8Yy0EOnUC1QX1ZsWJ1Ia+1KwwirA1hW8tlB6UyMjv4+OPPC23Wjh7B1WOncX90To8py+G/485x7uTJU97ZlYAfBgFWmN3M0M0IewpCdWZlqnLS7MnqyLLlC7r0L2iYwQwbwAawAWwAG6ieDWTxZ6qZp9qivfnC5h/brGnNLo+TibZvvLnMn7JJMuEkETtmcYTFHVn91bg9dn3WuEUNkw+r5Vd27txd1AWLt8LZ4hYf3P/AI15oDy+wGxph/3ReMaGWzgnrSIpHrCzd3FD77WkGE+2T6pQArvhI7bJkTMJjdi7eWkxiMVbSNizHyo5jEouJwxjNjoUxtR0Ll82xNoTxmvVZ3MTPUl/HN2tMU2/ja9ziLb8Z1fvNgDWssQFsoNI2ULeifZJTYsc0a2HHjl2F3zdzUEKnRSfNoTBhtHDB9ztabkSzH2y2s5UTisN2jTkJchwtaV9tius1JzIU3a3s+MaClRVv00RWa4fKUzJHSs6zrYsfliWRV2Kvbl7IEbP8oeNl+eOy7Xi8tXwhizhP+DmtL0lt0SO5ejTXHGp71DcODqwNxkH1GWOdC1OpdpDULisvqd5S7MDKsTrMebbPZuNJ29CeSmGqOtPyW3vYQgACEIAABCAAAQiUl0C1RXsTpiU6K5lvnORX2jH5iEpJPrdionDySan+qtVv/rpdnzVuUbt68mGtfIuvzE+3PvmOff+P5bW2hOeUXzwshrDPxihpa+VYnNFTnVau6rR2hMfCtoT7xsvihfBc0n5a2RabxuXIXsKnLTTJTQJ6eJPH2hDGjml9trzlGF8rK6y33sY3aQw5BgEIQAAC9UVgUIn28UtbbSjTHBRzKMIfe7tG29gZSCtHeZOcBHPoYqfLHKNQZO2p7LBNtq+yw+vtuLVD5SlZH2InzPJbW+y85U9iEpdtZcRby5fknMZ59TmtL0ltUcAgwd5E+ljEt/KtDcZBx9MYl2oHSe3qqd5S7MDKsTricUkKCuxYaA+lMFWdafmtPWwhAAEIQAACEIAABMpLoJqivYnu4Sxw843Nl0zayke0pCddtayjtlae+eTKY/5rUjl2LPRXrX7z1+1683+tXtvGcYuO9+TDxuVbfBD2ycqO89pxq0Pt1/XhZ+tT0tb6ZHFGT3VauSrb2hEe85Um/NMbr/iStLKTuOpaLY0k0d5E+ljEVx5rQxg7pvXZ8pZjfK2ssN56G994/PgMAQhAAAL1R6BuRfskxydt+NIcFHMoSp1pb7M1wvqSnAS1MXTwLL85RklOa1LZdl24Vdnh9XbO2mGOojk0WWc0WP7QAUor247HW2tD1jFK60taW8KAwWb4qM4wWRuMg86Vyw7S2qU6kuotxQ6sD1aHObX2Oc1W7Trblso0Lb+VxxYCEIAABCAAAQhAoLwEqinaa411xQPh2uzmG2eNP6wMTaBpONTon36d/viswhIopfqrVr/563Z91rhFo9GTD6u12hWL2VPS5qfrmjjFbQnPK38Y0+lzuFxOmDfet3izpzrDOMbaER6Ly7TPxsviBTuetk0r22LTuBwtNavlcfSnsdeyOHGMaG0Ij6f12fKWY3ytrLDeehvftHHkOAQgAAEI1A8BRPsexFpbl08zCEpZ096WZgnNRM6unLnQIdP69Dpma0Fafq1RLvE1FN3lZGjmS17WtA8dIGu3OULmWNvxeGv5QhZxnvCz8oUs7FySM6ZzWtJHL/7V+pn6076t5W7XWhvCtqY5qqXaQVq7VHdSvepf6OhbG81B7qnv5jxb3iRbVXl6UVa4ZmSpTNPyW1vZQgACEIAABCAAAQiUl0C1RPtz58+7GTOf9v5oGMfIb1X8kfS+LvVUs+nDJF9z9pznvPj/yqtLnV40ai8kVb5S/VXzzc1f7+ua50kCurUlaU17+b1xitsSno99ecu74KVXi/xvXSNG8sstpQnYOm/laBwsJR2zc/HWYhKLF+Lz8ee0so1VUjlao1/xx5Ilb/utPofJ2hDGjml97uv49hQrhfVaHFYv4xtyZh8CEIAABOqTAKJ9ikNkw63H/SSohm+kl0OhtR7liIZOgonFP/zRT92iRa97x1ROmRwTrQsfi/b2gtRrh4xwDQ2HfJUqY9bsZ7yDHJc9/PrbfJ16Aa6cJyXlf+65l3x+ezRRx+2GwIcfflrkLJqzIqfMkmamyyFXfXoZrRx3/X399bdO6//rRbQ2wybJ8bJyksq2c+HW8iU5TGE+21e+kIUdT2uLBQxqt/70Eqc4WRtCDmmOqq4txQ7S2qVykuqNHX1rqznIPfU9dJ7fe/8jP46y1W/XbfBjKPvbvWefu2nEHW7sPfcXXr5cKtM0e7K2soUABCAAAQhAAAIQKC+BSov28vf37t3v38+lOEV+v/xGS4ozFH8oTlB8os9KmmGteOSy//cH98UXf7fsfiuRXjHST//PzwvvxAozlOKvmm8e+uulxC2q1/zsO+8a7xobm3xc1NHRUYi3whepmp+ua+KU1BbLY3XoeqUDBxrcby6/qhC3iZeSxXl6mkHxoVKagK1zVqeVq2Oa7KWxeva5BUXivy8s+sdikjBeiLIUfUyqTxksJkkqZ//+g95udPMjfErDCrY2hOJ5T33uy/j2FCuF9dbb+BpjthCAAAQgUL8EEO1THCIbcjlZ4++d7J0jOUjhn8T5pW8sKxLFv1i9xjtoYT7tD73uFv9intAJbGk56v567U1FZSqv3QyIHRAJ5z+75LJu+XWNHOrm5hZrtr+pELbBnD1zVkLnVw77U7O6bhSE12hfTrrOKY9SkuNllSaVbefCreWL6wo/h06hmMUsemvL+vWbvGAfzp5JakPIIc1R1XWl2EGpjGJH39ppDnJPfQ85nTlzphCYhCy1L5uSbVoqlandYLJyzZ6sPLYQgAAEIAABCEAAAuUlUAnR3ny5eCuRecOGzd06sGnTFi/Kxvn1eczY+woTQuxCe0JV57XGeZxK8VfNNw/99VLiFtUtn1eTePRus7gPsX9sMYquiVNSWyxPki//yacrE2NCtUFPNVhs1ZOAbXWGfrfFONaXkI21x7YWk1jetK2Vn1SfyrKYJIw7rA6bHa+y9YRz/PSFtSEUz3vqc1/Gt6dYKay33sbXxoAtBCAAAQjULwFE+15Eew29nMt33lnurrr6Oi9iS6wfdftYt3nz1iLBXnk1y1sOr81K0eOYmnW/Zet2LzzHTqDWe9TMD5UpgfyWW0f7vMqX5IBo5saEiVMKTuDvfv8X9/wLi7o5zBKZH3l0hi9XDqlmXiuZsxI7eJqRvWrVl77d1pYhQ2/2x8JHOJMcL19wD2XbedtaG9IcRx0PncI0Fj215cSJE35dxXD2jNWvrbUh5JDmqNp1We2gp3Yl1Zvk6KtOc5CT7MDqCDnpGjm6H3/8eTdblf2FqVSmafYUlsk+BCAAAQhAAAIQgED5CFRatJfP/5drbvRLm8jXS0uHDx/xS+TY5CHNyH9h/qLCk7/xdUkvJA3zZPVXzTcP/XWVkzVuUV7zeXXzYd4z8/0EKMVcitUUsyl2s2R+uq6JU1pblC/Nl5c4fdfd9xbitj9cca3T8jEm2OvangRsq1PtsqRrxVfxncbv3Xc/sFPdthYv9BRz6ZyVn1SfCrWYJI47rEJ7h5hmycfJ2hCK5z31Wdf3ZXxVZpiS6q238Q37yz4EIAABCNQngboT7etzmOgVBCAAAQhAAAIQgAAEIDCYCJRTtB9M3MK+mmgfi7phHvYhAAEIQAACEIBAHgkg2udxVGgTBCAAAQhAAAIQgAAEIDCoCSDa93/4Ee37z5ASIAABCEAAAhAYGAKI9gPDnVohAAEIQAACEIAABCAAAQikEkC0T0WT+QSifWZUZIQABCAAAQhAIGcEEO1zNiA0BwIQgAAEIAABCEAAAhCAAKJ9/20A0b7/DCkBAhCAAAQgAIGBIYBoPzDcqRUCEIAABCAAAQhAAAIQgEAqAUT7VDScgAAEIAABCEAAAnVPIBeifd1TpoMQgAAEIAABCEAAAhCAAAQgAAEIQAACEIAABCAAgQwEEO0zQCILBCAAAQhAAAIQgAAEIAABCEAAAhCAAAQgAAEIQKAaBBDtq0GZOiAAAQhAAAIQgAAEIAABCEAAAhCAAAQgAAEIQAACGQgg2meARBYIQAACEIAABCAAAQhAAAIQgAAEIAABCEAAAhCAQDUIINpXgzJ1QAACEIAABCAAAQhAAAIQgAAEIAABCEAAAhCAAAQyEEC0zwCJLBCAAAQgAAEIQAACEIAABCAAAQhAAAIQgAAEIACBahBAtK8GZeqAAAQgAAEIQAACEIAABCAAAQhAAAIQgAAEIAABCGQggGifARJZIAABCEAAAhCAAAQgAAEIQAACEIAABCAAAQhAAALVIIBoXw3K1AEBCEAAAhCAAAQgAAEIQAACEIAABCAAAQhAAAIQyEAA0T4DJLJAAAIQgAAEIAABCEAAAhCAAAQgAAEIQAACEIAABKpBANG+GpSpAwIQgAAEIAABCEAAAhCAAAQgAAEIQAACEIAABCCQgQCifQZIZIEABCAAAQhAAAIQgAAEIAABCEAAAhCAAAQgAAEIVIMAon01KFMHBCAAgQoRaDt2yjU0truDh/iDATaADeTLBvTdpO8oEgQgAAEIQAACEKgmAWKkfPmE+OiMBzZw0QZKiZEQ7av5y0FdEIAABMpIQM7o0daT7uSpM+706bP8wQAbwAZyZQP6btJ3FMJ9Gb/4KQoCEIAABCAAgR4JECMRFxIbYwN5toFSYiRE+x6/7jkJAQhAIL8EdIcWwR6HJM8OCW3DPvUdpe8qEgQgAAEIQAACEKgGAWIk/E9iEGwg7zaQNUZCtK/GrwZ1QAACEKgAAT1ilvcfI9qHw4QNYAP6riJBAAIQgAAEIACBahAgRsL3JP7ABmrBBrLESIj21fjVoA4IQAACFSCAQ4ozUgvOCG3ETrM4pBX4iqRICEAAAhCAAAQGIQFiJHxP4g9soBZsIEuMhGg/CH/E6DIEIFAfBHBIcUZqwRmhjdhpFoe0Pr6V6QUEIAABCEAAAgNNgBgJ35P4AxuoBRvIEiMh2g/0Lwr1QwACEOgjARxSnJFacEZoI3aaxSHt49cgl0EAAhCAAAQgAIEiAsRI+J7EH9hALdhAlhgJ0b7o650PEIAABGqHAA4pzkgtOCO0ETvN4pDWzjcvLYUABCAAAQhAIM8EiJHwPYk/sIFasIEsMRKifZ5/bWgbBCAAgR4I4JDijNSCM0IbsdMsDmkPX3WcggAEIAABCEAAApkJECPhexJ/YAO1YANZYiRE+8xf/WSEAAQgkC8COKQ4I7XgjNBG7DSLQ5qvb1daAwEIQAACEIBArRIgRsL3JP7ABmrBBrLESIj2tfpLRLshAIFBT6BeHdKjrZ1u3aZGt2X7EZfXH9udu1t8G9XWvLaRduGs5sUGsjikg/4LHQAQgAAEIAABCJSFADHSwPnA5YqRylVOXnxh2jFwNpln9llipNyI9q8v+dD96c+j3f0PznVnzpxN/bJ+7/1VPt+ESbPcyZOnU/P158SFCxfcilXfuFF3TnVX/uVv/k/7OqZzpIsEnpjxkh8PjZ39XXXNGHfH6EfdqtXr3HfffXcxcz/2jh8/4W6/6xH35MyF7vwAjoH6++dr73Hfrtua2Budr6RtJlbKwUFLAId04H78cSQHjn2eHS/almwXWRzSQftFTsch0AsBYqReAOX0NDFS8cAQIxXz4FNlCRAjJftj1fBTyxUjlaucavSZOgbO3mqdfZYYKXei/XU33uf27juU+C0uMV+ivsThSgmj586dd5yyo2cAACAASURBVLPnvuaG33ifW/PVJqfP+vvk0zVu6PUT3Esvv1s2ITqxkxU+qBsdYifHqRxJ5dx82xTX2nq8UNypU6fda4s/cNcMHecWL/2oJnhldSSVT/Y3ZtwTrr2js9Bn28lajuVnC4H+EMAhHTgHAUdy4NjXunM2GNufxSHtz3ch10KgngmYaE+MVNlRJkZK5ps1tiFGSubH0YEhQIw0cH56uWKkcpUzGP1u+jxw9l8q+ywxUu5EewmiC19+N/Hbfeu2Pe6vw8Z78bxSov0Xq9d5sXnFyrXd2qB2qX61o1ZTNRxSsTl//rybOetlN+KWB93hppbc4yrVIZWd6sZE/CRB1nJyD4QG1gSB3hzS4+2n3MYth92mrU1u644j7tuNh9w3Gw659Zsb3f6Dbe7Uqa4fNFuOZvuuZrdtZ3OQ77A7eOhY0fIvHR2n3PZdLe7bjY2+LG137mlxOp71R0rtCutRu9S+lqMnfBnWnk3bmoryrd9c3B61X+1TH61vWlZn996j7uTJM74sY6A+i4P6Hy6709TcUTiuMlRnc0tHUV/0Wcd1rc+ztcmXobpYHqd2nKKs9jnY8m3ddsC99e4a13K0vcjukzgoj/Ku27Cn17zh9Vkc0pr40qWREBgAAibaEyNVFj4xUjLfrLGNifbESMkcOVpdAsRItRUjZY21eorbGhqP+zhNcWDog9rxPftbi46HedgnnkuygbzESLkS7W8c+YC7594Z7o67H3VaDiVOTz+72IvAmuUcivYSTjdu2unGTZjply6Rs3DTLZPd+x98UVjOZtPmXV5wX7BwWUFo1UxplaWlXI4da/fL8kx+aJ7727gnXMeJk3H1bseOfW7I8HvdG299UjinWeXzF7zlj1u9n33+daFeZZSzrfYseeMjv1U+LbHy6PT5ruHQEX+9Zs/o+A0j7ne6YWBisGawayb7U3NecVOmPuuv05I9aveu3QcK7fj7mo3+em3DpLptJnzo9Ksu/emYpYMNTe6BKU87LW+j9qm+pqajdjpxKwfNyo8z6AaI2vr12s1+KSON2a23P+yfllAdutbS5i27fZ+U39g0t7TZaT+TX/WE1+hkljZ3dHS6WXNf9Tdj1GeNhY2RcTMe2sZ1FBrhnD+nMRo7/kmnMQvHQPl0bWibttSSbEx9Vv+01JKYxGM85+nXvE2o/9ZO2YJsV/8vdL3+Hpn2gmttu/hkg+oN7TCpji1bd/v+P/v80rA77Nc4gawOqcRmCfISsPUn0VriswnyJpIr345dXQL8seMn3eZtTU5CuQnTJzpPe3F9/aZG19jU7kV/OUISryW6d3Z2CeVJP3p2TGV0ldvomo50ieNHWjrchi2H/Z/qzdoetV/9sL5JqJejpmPmmJlor77p5oLqt7Y0Hm536zY2+ut106G1rbPQZ7uBoGMbNh/2NwZ0THXs3d/q60C0x8EzW6rV7d59TW7+ok/c3Ofed68uWdmjcC/BXnmUd94LH7g1X28v/F/qrf+I9jX+Y0PzB5SAfHViJGIkYqT5PkYkRhrQr6OaqZwYqXZipKyxVm9xm8V8ijPDmNRm7Cve7M1f5TyxndlAnmKkXIn2EmU/+Gi1FxfXfrOl6Eehra3djbrrETd33uvu8UgY3bBxh79GgrzESwml7y1f5X/YtayNkgTSec8tcdePmOT27e9afufd91f6PDar3gTynkTbsFGakTFp8hx32x1T3cGDTb5eibFaWidcFsbE8gcffsbfHFD7JBpLnL36r2PdjFmLfLu1DM+rry/3NwBsNr+1SXl1E0J5dINh4v2z3U0jJ7tDjc2+SSY+9yTaK2PaLBKJz2q3lv/RMkSqY+qjz3vmLYF4HvZf+2JVimiv/i5542PfDyvryzUb/Pip7+qfbqZMf2KB59p0pOumgXEIxyZLmzs7T7n7Hpjtxt/3lNNNALHXWvvXDhvvlr75sTWhm9heOBHtWH+1pr1sSWMavoNB50PRfvmHXfZsY6e8Cxa+428gSYxXsr7pKQ61TW20MZaDrnqUVzYsO5O9Pfb4i/5pBl1vdmh9FEPdWBo6fIITW1L9EsjqkGom+vHjJwuOikRxifGbt3cJ7SaSazZ5KGprNr4E8AMNXbPttdVnHbcfNG137T3qhfsszpDVpdn6YRnhvuXprT3hNbbfduykF//NYTMHLmYgZ07998fbLz4lcLip3T9FYLM01Dc9TaDjVodm+OtJAUR7HDuziVrdhg5pT8J9KNgr37Mvfui2bDtQ+D/RW/8R7ev3d4ieVZ6A4ghiJGIkYiRipMp/29RPDcRI3X30vMZIWWKtrHFbLNB3nDjtn6i2uLA3f5Xz3e1msDLJU4yUO9F+/4HDfhZzKErq5+OzFV0i97frtmUSWDVTXjPmpz72fEHc1KzxW25/yC/b0ni4xd16x8N+1rKcIKXdew66YTdMLJp93tNPl9qkmfcmvlret5d97mdh29r8craVTzP1LZ06fcaLyfHyMRLIdUwCtpIJuhKxbWa2jqtszfS2pYT6I9prKRvxDsXmsA69/DctmYitdoZJbdUNluE3TXIaU7tZMH7iTNd58lQhq0R1zVrX7HEbB50Mb9KoLONgon3WNqvt8Rqg1rbwiYpYbC80MNoJ+yvR/+prxvj3HVi2LOXI9jRj6sWX3vaXWd/iMdYNIIn2NsZWh2xDNmI3U2SHstudu/ZbFn8jQe9/0JMj4U2FQgZ26oJASQ5pIEzrx3fLjiNOM+YlkJtIHi4bozyHDusxw0a373uRXjPa+ytUaya9ZtXbbP0kRyBre5KuLRLpv3+yQMJ8LM5r1rz6smN38c0Dc2jFwjuI25q6rg1ueqhecwrV1qR2cAynr1Zs4MDB5sJsewnyL7++wjU3Hy/YtfZ1TOdMsN+0ZX/hfJZ+ItrXxU8OnRggAibaEyMRI8kEiZGcf2KZGGmAvpBqpFpipO5+eB5jpKyxVpa4Tf6oxa56KlqfDx/peqransDO4rOSp7vtDFYmeYmRcifaS8CUSGlir34XJNBKfJe4K5E3izBqInEsRGvmvQR0icfhrHvVI9FTs5PlHPeWJPxKZA2FX7tGTrXab8voqDyVG4qqypvUDxNwdU4p/mx1mOivWeTa749oH98osDrsxoe1xY6HW52LZ9pLfNfMcr2I9tkX3vA3G9LGw5Yc+uSzr8Ji/b6WQ9JNFjmnMYcsbTa7iW2gW0UpY5GWz/orW9TsdrXRlhFKGtO4nLgv8WfLb/aY9PSE2ZPZYXwzRGXopoC11cpkW18E+uOQetFZM8iPtGcW7SVkxzPW+/Ij3jWDv2tNfAnnmrXe/P169iqvFNFeTly4Xr+WwdGfifSxg2rtNafO8sdb9dWu1Vr4mqlh12qLaI9DF9pDre/HTumi1z53jYdb/Z/2+yPYiw2ifX399tCb6hIw0V7+IjHSxaUy0/xnYqTimxtmrWFcR4xEjGR2Ua9bYqSz/l1heY+RssZaWeI2+ZtWnuI4PRktsV6xZpanwWvdl6f9lYlN8xAj5Uq01+xjzUK2WeSasa4Uf04SRrX0yczZr3ihOFyfPBZsNetYS5ro7ny4PIrqKWWmvYnQSTOZzYnUi1iVKiHaq1xxsPX/+yPamzgccgv3VU9a0rkwr/bFVuu2r1j1jV/qRdcar3g81G4tmaMnKOIkbppBrnExptaWLG22OuMZ7HE9+qxy47al5QuFcD1loWVtZs99zd9cSipn//5GP+Pd1qo3XtaXuG9Wr/WxJ9He+mhlxtuwrVYu2/ohUKsOqTlVew+0+kcWteSO/vYd6Fp2J6to39xywr9UV8voHGnu8M6ZOWtZRXutc5/m5FhZSY9UItpXxjFKGwuOV5537JQufPUzp7/+CvYaO0T7+vndoSfVJyB/mBip+0SmNP9ZIyQfmxip6/1lcWwgNhY/ECMVPyle/f/d1FgpAsRItREjZY21TLTvKW6zWEExmpaB1cQuLYWaFMdZXraVjy/qgfFAx0i5Eu1t9rAtfWIz6zWrxJaRMScjFFi17rnW+daLU7XGu2YfJ+XTj4LNjpYDE76UVud6cv7iHxQrP1x+x/JYObUm2tuTAdaPLFs5flmEYeMVjpvKlyCtGfnxEkM6l0W076nNVmclHVLZmuxIgrzWuRePsI/bd+zz7wrQS2b1xICS2YfyJn32B4MnP7KI9vbEhV3LdnAQ6I9DOlDL4yT9cGtJGonscrD0MqKsor0cN71IVk8LWLnm/PUm2mvGhWZebN3ZXLjWyrBt1kc2LT9bHL9at4HYKS2HYC8miPaD4zeJXlaGQDj5hxip95n2GgX52OUU7XuKN9JGnRiJGCnNNjheeQLESLURI2WNtbLEbeaDS+BXfLhnX6tfjpWlcYjPzDb6sx3IGCmXor2+xrVOt2Ywr/lqY9Ea9ybEhsKoHKlwOR1dn5RPxzW7XsvjaL1v3STYtn1v4VdDs/A1c95uFhROfL9jS7moPluWJGl5HJuxbw5e6GyHZcYCr85lFXTL+einrbGu5WhKTf11SI1p0vI4uumRtjxOljZX+tFPY6WXxt4x+lH/J/E8tE31wYIGy591jLPMtLc+xnVYXWzrm0BJDmmwJrtE8aQX0epRwvDHzGY12Jr25XgRrZbG0VI0VqbVp7XlJaKrbZlF+++vCR95lOi/YfPFNexjEd/q6+g45TRDXxxUnx3X9uChY05r72tfL6TlRbQ4e6F91Pt+7JTqpbOlrmEfM0K0r+/fInpXWQJxHEGM1POkF2Kkrndn9RTXWfwQxixpVpwUryblTYoJiZGSSHGsGgSIkbriqlqIkbLEWlnjNvmfFvsprmRpHGK4OCbpz+eBipFyK9rbS3ZuumWyn4m99pst/vs9SYyXM2uPjdqPQHv7CTd67ONFAuq+/Yf8OvZayqTl6DEvsk6aPMcL/HadHGHN/Nas6Thpxn/4UlPlzfoiWnuKICwzyQlKE3Tj2eK2ZJDapKSZ6mr3F6vXFarQjYUXXnyraCa88VPdlmzJoFF3PVKYDW7n1m/Y7p9OsM/xNslBi/Pos9UbO4d9fRFt1jZX8kW0YT+/XLPBz7bXExxhH8UnvrHTcOiIu2HE/X4WkMqIx9zKzSLaK++776/0ddv/Ebu+oeGI09I8pPolkNUhlUiul8jKidGfxHktRyNxWj9cWUXyE52n/frx9hJZrRW4v6HNz2bQo4j63NsPocTwjVub/MtotaSN8jc2tfuZEBLR5ZRlbY/dRFDfdF3bsU7fN/W3t5n2qvdQY9eLdvXYpMR+9a/LcTzkZ2coT3gTQI9Znjx5xu3eJyH/UOEmQ2995nzvdgGjfDEyp7Qcgr3GFtG+fn+H6FnlCcSiPTFSsWhPjHTcx3oW2xEjXXyPHDFS5b+f8loDMdIxH6vUQoyUNdbKErdZPKG4VPEgS+PkK76w8anl7UDESLkV7fUDIEFaImg48z1J/JXALsH6pZffdXJU2js6/UtiQwFVL0d9ZNoL7qaRk/0SOipfAreWNdEPuiXle2rOK+7mWx/0wv2FCxecjukFtkOvn+AWL/3Iz7JXfrVFor9EWQmxyvv12s1+OZQwX+xsW11yrkKBV8djAdc+q516uavaolkLE++fXdQXE791vKOj82Kbh08oEu01s+Kxx1/0NzR0Y0OflbSMi25ITH30eV++6rGXyX708d+tyd22/RXtVaAEb93U0JMJqtfGT0seaekjJeNgDqmOZWmzuGj2u14Yq/ceaIyWf7ja17cquMEhW5OQrnE0Jr7i6J+0/qrdT85c6O01HFPZlmxTdaruw00tvi2yTetLUt9UbVbR3voom9WTI6pHT3voKQUt33Tu3LmoF3ysFwJZHVLNPDehXg7M+s2NToK3/WBmFcmVX+L49l0tfva5ytIMhr37W72YbeX1tpVwr5fPSvhWGZrJrs82uz1re3STQHWrDV3lHPI3FXRTQDcWJLLbbAsT8eO2NTV3FNbVNzZaWz+8AdHc0uFn5eu8/lSWeKpetTUuk884iPVgA01Hjrn9B9KXjyqlj4j29fKrQz8GgkBSHEGMdDE2IEYqFu1lo8RI+/1/VWKkgfjGykedxEi1FSNljbWyxG3yTw83tfv4kqVxiMlKiVey5q12jJRr0d5ES3shrX4CkkR7zShfsXKt06x8iaESSefOe90L6iNvm+Jn1dtMaDm+lmwmQijk65wE2A8//rJQ3lXXjHF3j5nm1ny1qSDYWxmnTp128xe85Wfcq2614bPPv/bCqeVJcrZ1TqJtKPDqWCzg2mfle3T6fH+TQS96HTPuCbdnb4NV4bcHG5rcPffO8C+CVZslVCeJzBJ0b739Yc/KlvBRAbpeywPJ+bWXyUrYFt+0lFR+Ut6kcQvzbd6y2/dJ9ap+9VUiuyXjYEK3Hc/SZt3EmDX3VW8XKl9L2egJgrBfLS1tbtyEGZ6JvYvA6gi3PfVX71OQLYVjKlvSkky6ISL70PbFl972bbB8aX0z++9pTXtrm9lhWI/sUseVtmzd7fv/7PNL7RK2dUAgq0OaJlhn/WHKms+W0zFxO95Wqx1Z20s+HDlsoDo2gGhfBz84dGHACCTFEeYjEiNN8X43MdLFtf7NUImRukgQI5lFDK4tMVJ1/Lve/GhNcorjwfBzvFxqb+VxPh/jyjiUbxyyxEi5Ee0H189I9t6mCbrZS6iPnHCoj3GkF+UlkDeHlB/w8v2AwxKW9WQDWRzS8n47UhoEIFDvBIgNukYYDvVu6fSvLwSIkfCj68mPpi/1a89ZYiRE+778ClTxGhyxLthwqKLRUVXNEMAhrd8fcJwzxraebCCLQ1ozX7w0FAIQyAUBYoOuYYBDLsyRRuSMADESfnQ9+dH0pX7tOUuMhGifsx+YuDk4Yl1E9h847NecDx8DjlnxGQKDjQAOaf3+gOOcMbb1ZANZHNLB9v1NfyEAgf4RIEbq4keM1D874ur6JECMhB9dT340falfe84SIyHa5/x3Coe0a+1/rdE//YkFTi8UIkEAAl0EenNI+YGv3x94xpaxrSUbyOKQ8r0OAQhAoBQCxEjESKXYC3kHFwFiJPzkWvKTaevgtdcsMRKi/eD6/aK3EIBAHRHAIR28P/A4d4x9LdlAFoe0jr6a6QoEIAABCEAAAgNIgBgJP7mW/GTaOnjtNUuMhGg/gD8mVA0BCECgPwRwSAfvDzzOHWNfSzaQxSHtz3ch10IAAhCAAAQgAAEjQIyEn1xLfjJtHbz2miVGQrS3b3a2EIAABGqMAA7p4P2Bx7lj7GvJBrI4pDX29UtzIQABCEAAAhDIKQFiJPzkWvKTaevgtdcsMRKifU5/aGgWBCAAgd4I4JAO3h94nDvGvpZsIItD2tv3HechAAEIQAACEIBAFgLESPjJteQn09bBa69ZYiRE+yzf+uSBAAQgkEMCOKSD9wce546xryUbyOKQ5vArliZBAAIQgAAEIFCDBIiR8JNryU+mrYPXXrPESIj2NfgjRJMhAAEIiEBDY7s7eeqM44d+8P7QM/aMfd5tQN9R+q4iQQACEIAABCAAgWoQIEbCP867f0z7sNGsMRKifTV+NagDAhCAQAUItB075Y62nkS4P82PPo4fNpBHG5Azqu8ofVeRIAABCEAAAhCAQDUIECPhF+fRL6ZN2KXZQCkxEqJ9NX41qAMCEIBAhQjIKdVsEj1axR8MsAFsIE82oO8mBPsKfflTLAQgAAEIQAACqQSIkfCJ8+QT0xbsMbSBUmIkRPvUr3lOQAACEIAABCAAAQhAAAIQgAAEIAABCEAAAhCAAASqSwDRvrq8qQ0CEIAABCAAAQhAAAIQgAAEIAABCEAAAhCAAAQgkEoA0T4VDScgAAEIQAACEIAABCAAAQhAAAIQgAAEIAABCEAAAtUlgGhfXd7UBgEIQAACEIAABCAAAQhAAAIQgAAEIAABCEAAAhBIJYBon4qGExCAAAQgAAEIQAACEIAABCAAAQhAAAIQgAAEIACB6hJAtK8ub2qDAAQgAAEIQAACEIAABCAAAQhAAAIQgAAEIAABCKQSQLRPRcMJCEAAAhCAAAQgAAEIQAACEIAABCAAAQhAAAIQgEB1CSDaV5c3tUEAAhCAAAQgAAEIQAACEIAABCAAAQhAAAIQgAAEUgkg2qei4QQEIAABCEAAAhCAAAQgAAEIQAACEIAABCAAAQhAoLoEEO2ry5vaIAABCEAAAhCAAAQgAAEIQAACEIAABCAAAQhAAAKpBBDtU9FwAgIQgAAEIAABCEAAAhCAAAQgAAEIQAACEIAABCBQXQKI9tXlTW0QgAAEIAABCEAAAhCAAAQgAAEIQAACEIAABCAAgVQCiPapaDgBAQhAAAIQgAAEIAABCEAAAhCAAAQgAAEIQAACEKguAUT76vKmNghAAAIQgAAEIAABCEAAAhCAAAQgAAEIQAACEIBAKgFE+1Q0nIAABCAAAQhAAAIQgAAEIAABCEAAAhCAAAQgAAEIVJcAon11eVMbBCAAAQhAAAIQgAAEIAABCEAAAhCAAAQgAAEIQCCVAKJ9KhpOQAACEIAABCAAAQhAAAIQgAAEIAABCEAAAhCAAASqSwDRvrq8qQ0CEIAABCAAAQhAAAIQgAAEIAABCEAAAhCAAAQgkEoA0T4VDScgAAEIQAACEIAABCAAAQhAAAIQgAAEIAABCEAAAtUlgGhfXd7UBgEIQAACEIAABCAAAQhAAAIQgAAEIAABCEAAAhBIJYBon4qGExCAQDkItJ+/4D5oO+keO3jMjd/b6m7ffdRN2tfmnm5sd193nHYXvitHLZQBAQhAAAIQgAAEIAABCEAAAhCAAAQgAIH6IIBoXx/jSC8gkDsCzWfPu9mH2t0NO1rc0O3NqX+jdh11bx/tRLzP3QjSIAhAAAIQgAAEIAABCEAAAhCAAAQgAIGBIIBoPxDUqRMCdU5gc+dZN3pPqxfqh21vdhLm5zS2u+WtJ936E2fc4pZON/XAMXfTzi5BX3mmNxx3mpVPggAEIAABCEAAAhCAAAQgAAEIQAACEIDAYCaQG9H+9SUfuj/9ebS7/8G57syZs6lj8t77q3y+CZNmuZMnT6fm68+JCxcuuBWrvnGj7pzqrvzL3/yf9nVM50jOj9Hkh+a5Ebc86A43tSQi2bvvkLvuxvvc3Hmvu3Pnz7snZy50I0c95JqbWxPzJx3csXO/Gzp8gntt8QdJpyt2rLX1uLv5tinuiRkv9VrH39ds9G3cuWt/r3nLleGL1evcn68d67TNW1rbccbdtuuoF+xv3XXUfXrsVGoTT1/4zj1zuN0N39HsJNw/sL8N4T6VVu8nvvvuOzd7znPu0p9f7nbt2pN4wbTpT7krrxrmWlvb/PnVX37lfvyT/+u0VVqzZq37h3/8Z79NLKCEg6dOnXZ3j57g/7RfqaTv5VWrvnRDht7s/ukHP/Z/2tex8Du7nH0rpS+LF79VxLyUa0vNO1B9LLWd5IcABCAAgWwEiJGyccpLLsWxxEhdo0GMlBerHHztUJyjeEcxTU9/8tHLlfDBy0WSciAAgZBA7kR7ibwSe5OSnCCJ+hL3KyXanzt33s2e+5obfuN9bs1Xm5w+6++TT9e4oddPcC+9/K6TMFarSTc6xC6LGN1bHz/57Ct/Q+OzFV8nZn172efu6r+OdWu/2ZJ4vq8Hq+EA5km011hlsfes+frKPct1mimvdeu1HI5m2u87fa5wWcu5C+7No53upSMdfo37cFa9ZuBrGR0J9883dRSuYac0Ak1NR9wfrxjindOFC19LvDgW7eNM5XQ4qyHa64bgU7Oecb/89RXu66+/9TcIdezTz1a6n//it04c7Du7nH2LufX0GdG+JzqcgwAEIACBngiYaE+M1BOl/p8jRsrGkBgpGydy5YuAifjlFOnjHg5UnBG3g88QgEB9EcidaC9BfuHL7yZS3rptj/vrsPFePM8iYiYW0stBzVy+Zug4t2Ll2m451S7Vr3bUaiqnQ6oZ9ppp/9jjL7rz588XIbEbLHfc/ag7fvxE0bn+fkC0TyaYB9F+flOHF95v2dXiNOPekoR6zaYP17bXkjlaKsfSS0dOuOt2NLsRO1vcVx2Vm5Vt9dXjdsWK1e43l1/l7rhznBt5y2h34kT3/3v1JtrrCYGfXXKZW7nyy25DKsH+kv/8pdu2bac/N1DONKJ9t6HhAAQgAAEIZCRgoj0xUkZgfcxGjJQNHKJ9Nk7kyhcBRPt8jQetgQAEshPIlWh/48gH3D33znBpQu/Tzy72IvGYcU8UzTzWLMqNm3a6cRNmuj9fe4+fiX/TLZPd+x98UVgaYdPmXV5wX7BwWWHWZXtHp1NZd4x+1B071l5Y8uVv455wHSdOdqO4Y8c+N2T4ve6Ntz4pnNNM0vkL3vLH5Uyr3s8+/7pQrzLK2dbxJW985LfKp3Y+On2+azh0xF+v2TM6fsOI+/0NA5sZao7RU3NecVOmPuuv05I9aveu3QcK7ZCQreu1DZPq1jIvKid0+pVXfzpm6WBDk3tgytPuqmvG+HpUX1PTUTvdbSuhXoJ90hI5tjTOiy+9XbhOorK1xQ5q3MQ/bRkiLTmj5XHUTmNhbdc2LC/rWOimjNhrLMPrrU3aWl1qc5g6OjrdrDmvej7iJHt99vml3ZbHCduivml5pa/Xbi7YnpU/f8Hbbt5zS/yNIvVn1F2PeFtWnTamYX+tPXZOW9uP8+kJBz3poCWlwqQnJOwJiC1bd/u61Yf+Jr14dsyeVnfd9ma38EixWPzZsVPu9t1H/br19+9v8+K8BPynG9sL1Z44/52btL/NC/uzg+OFDOz0SODs2bNuwsQp7sEp09zGjVv8EjnffLuh2zWxaB8L2fZ5ztzn3fDrb/NLzfzk3y91M5+a5zo7L34v2pI0yvPDH/20sCTN2rXrCnZuM+1vGnGHe/yJOV5c1yOqf7nmRvftuuK2tRxtdU/OmOtnxyuPhHjVmXTjwTplfU67QbFz5273MXktqgAAIABJREFUX5f+xr3x5jJ/ifVNW0ualb9s2XJ3+W+v9k8o/PJXf3RLlr7jzpy5eEMp6TpdnyTGHznS7CZOetgzETeNSczc6g63YjXvmfkFRuq/eIiLkgUbKitMWgZJyyFZn6ytvY1fWAb7EIAABCCQXwLygYmRiJHipVqJkbpiWYt/8hwj5ffbZfC0zPxo+e5xUnzz/AuL3O9+/xcfC8h/v2/SVCefPkwNhxrdnXeN9z6+YpU/XHGte+ed5YWYwXxw88l17Rer17j/+Nkv/FPBijnSksoef+9kX7biKtVz4EBDIbva/bv/ucYdPnykcEyTkn7/h78WLYl68uQpP3lL8eD58xd8rKKnsPUEchjXPT1vvlPsEaawDUkM1Ab15aGHp/v4KlxuNSyHfQhAoLwEciXaS0D94KPVXkSMl1Rpa2v3gqbWR388Wi5kw8Yd/hoJ8vrykZj03vJVXljVsjZKEsEljl4/YpLbt79r+Z1331/p89isehNS7Ue/N9SakTFp8hx32x1T3cGDTb5eCbNaWmfx0o8KwpWJ5Q8+/Iy/OaD2SdiXcC/xdMasRb7dWobn1deXezHZZvNbm5RXNyGURzcYJt4/2900crI71Nj1Y2LCrbZhUt2hMJ02i0Q3ANRuLf+jWfKqY+qjz3vmLS1da1+H5dq+xklti5fI0dI48VMJ4hq2RTdSJJyrz7YMkY2JlRc6pFan+ighP1xDvq9jYWXGW+Me2oK4aAxvuf0ht2dvgx/fzVt2e5sK22NtGX/fU665pc33TTd6lOfLNV1CpZUv4X/RK+955p0nT7lHpr3gmcveLakN8ZMlSeMd57P/M1pXU21XshstujkQ1mF19Wf78bFTfombO3YfdXtOXVwWJy5z56mz/sW0Eu1nHjpedPqdo51+Rr6W1jl8Jt2xKbqID57A/v0H3a//+0qn2fZyPm8bNcavb283AA1TLCDHDqZ9/tOVw9z27Tv999ruPfvcn6+5wU15aJpffkZlffjhp95xW/7BJ/6YRO4XF7ziZ7Zv3rLNV2eivdaZN+dQxxa89Kp39ixfR0eHu+HG272DqiV+lPbs3efXogzr9CeCf8wBj4XsIEvRrvXNnGk5s35pnV/90akt+m62vs6Y+XShr/F1Vmgs2h87dtw7xHK0JbarPI2HBPieHFs58erntUNGuIaGrt8ncdAY6k/jmdbXNNG+t/GzPrCFAAQgAIF8EzBfnhiJGCmMuYiRnF/utRZipHx/wwyO1pkfHYv2mgB0/wOP+DhHMYDiJvnw8r9vuXW0U4yi1NjY5AVyTUIyvUnLcmrijC1JGscLO3bscpoMFMYUSbRVr/JZ2RYraelPlaGkOEV1rV+/qVCE+qKbB2GfDh5s8PHg+8s/9vksz5BhI92+fQd8/9Z+s96XpUlLlnwbfn2F74tiOsU0kx98zOk6m0BkZWlyks6TIACB6hDInWi//8BhN3b8k92WXJGIK0fl23XbEn+gY1yaKa8Z81Mfe76wdItmjUtwnTnrZdd4uMXdesfDXiSVYKy0e89BN+yGiUWzz+Nyw89qk0Rnic9hkmAdrjspZ1v5NFPf0qnTZ9x9D8zuNktdArlmrkvIVjJxd/oTCwo3AXTcZrLbUkJJIq7ymaOvcpSSRHsTcmOnx+qIZ2r7gr7/x4ThcIkcWxpH49jZefElpLFor7bpCYQjR9JfTJvVIe3PWIT9sX3jHor2ukGhWfrxDaUPP/6y6CaC2iI7Cm8qGBMT0K38hx55zov6Vq9u+pid27FYjNfxpPGO88np0E2u4TdNcvp/pdRy9JgbedsUfzwWc62+vm5faT7hZ8lrtnxP6cWmDj8b/6adLe7z6CW1WzrPupE7W9zNO1vcps70F1L3VP5gPSdHSjMpTPSOPxuXrKL9Z58XP6GhGRqatW5LzVh54VazPzQLZP6LL/vDJtrHM+HlAMsRfnjqE34WSFhGuK9y4lkl4XkJ+7+47PdFzmp4Pt6PnWn1RX1S38KkJxQktNuTCvF1lleMQzFezq+cbt1AsaT/Z5q9E+azc7a1QGLRotftULet5YlvUKSJ9n0Zv26VcgACEIAABAacgPnyxEjESKExEiP1XbSvdowUjhv7A0PA/Gj57lmS/GjNKrcJRooFwiU3k8oI4wUT7MeMva/oSeX4Ok0gUjwU3iBQHgnn48ZP9n/ab2/vcNcNv7Xw9LDFWP/6b5cU8ug6tUGxkeIDJfVX/dBT2JZOnz7t1C49DaybFtaGu0dPKJp9r3hGcU14A0Bxk55kJkEAAtUjkDvRXmKmhOhQaJSoLPHdROBYnEzCZeJ0LERr5r0E9PETZxbNulcZSc5PUtk6ph97CelJS+nIqVb7bRkdOdvhTGwrM6kfJubqnFL82a410V/Cv/aTRFzlNUdf5SgZFytfx+IbBT6jc36JIPUvzGvnwq0tW6Q17pVM7FfdYVI54Ux7idtXXzOmMLs/zGv7SWOivoY8yzEWVp9tk7hrqR/dUImfPAjbY22RfWnmfJh0vfU/qXzltf6qTEviFttx0ngn5dNNrnCJHM30102B+MaD1dWf7ZMNx71or21a+qitaza+1q7XGvZxajhz3t29+6i7fkeLf1ltfJ7PyQRsZv30x2cVbu6FM+/Dq7KK9nL6wmQzN2ypmfCc7ZtDbMKyOZSxE6j8Wr5Fs/d7mqkhR1OzSszxtHpsa4J1Vgc8dKZVxquvvZF4U8Ac4yeenOOriq+z+lWvifFyePUoqt4noEdTwxTmC4/bvo2feGgWTFKK2VoeY2DjldbWLONnZbKFAAQgAIH8EAh9eWKkKYW4JM2XJka6+DSyxSX9iVfj/wlJ3ImRYkp8zhsB86P7GjNooo9E+0cenZEqwpsP/tbb7/mnZ/UEbXNzlz6SxkOz2DXpyiY8hfkklkuA1yQl/3/58Vk+1lDMoThPcYPiMsUi8vOVVE44WUr9TYqlFKtZfGZtUFwUJi1RqrIsrksrK7yGfQhAoPwEciXaa71GzYA30Vcz1pXiz0nipJYhmTn7FT8T2ta20zYWO22JE60zvvTNrseGDGspM+1N/LaZ01aGtubMaEa/UiVEe5UrDrb+f5KIa3WbUKzP1m5da8mE4pBbuB/mtWvCrb0vQCK8UvykgeVVOWFbNAv/scfn+/XsJSTrnQTqhz35oOusbeENAOUJRXvrU3/GwtpoWxvDsO/aN96WT9uwPdaWkF+4b/1PKl9lWX9VpiXVG9uxzqvc3vLpJcBqs7HRzHvNtNeM+3KnLKL9gweOeWF/8v42d+G77i1AtO/OJMsRe2TSZobrGpuhYbMorJy+ivbm7IZOpdZaVPla91CPZ9qfOXc9ifZy/MJZ9Gqv1oXU+pBWjrZJjqb1pb8z7dVOzVqRSB8ma7dmoWg2ijnhJoxbXvXBRHu7JuatvGE+uzbe6l0Al/2/P/i+a03NZ59b4FpaLr5TxPgbW7s+q2hv12v87BrjbE67lckWAhCAAATyQ0A+MDHSxfjKfPM0X1ojF/rsST6z8oQ3Q/TZfHgrX8fMLw99+XA/zKv8cSJGuhizGd+QX7hfzzFSbBd8rj4B84Plk8dJy1muWvWlGzL0Zv+OLvOPtTXfX0tZ6slZrTevP60P//HHnxfNTLd4QbPfda0m/0hg7ymZT26z2cO8Kk9LjCpGUNLsf4tblF9L+OgJawnr+mzv+tLEKEvqb1IspXjC/H9rQ9jvcN9ij7SyrC62EIBAZQjkSrQ3IdaWa7GZ9ZpVYi87tR/8UMRsOnLUryuvF6dqjXfdiUzKJ4QSirXWuJyE8KW0OteT8xfjt/LD5Xcsj5VTa6K9PRlg/ci6FVNb0kizy+9/cK7/s3XUrRw5tuaQ2TGNlV6A+8KLbxVe0qunB2xZHXOWs4j2/RkLa49tbQxDZ1z7STNVFAyY7Zpd2BMQVl68TSpfeay/vYnxSQGI2hf+v7A69SSEnvzwL/29+1H35MyFhdnYlqcc2xeaOrwgL2E+LU3c1+aGbW92Lzd3n2Wva7afPOtu23XUjdjZ4tZ0FL8cJ63MwX5c/4dmz3muSOgOHa14uRY5XiY0i505mOaUxp+Nrzm75gj6xz5/fYWbNVvv6uh6usLymHNnQrY5hVaWtnL8tAa/ZobIEdZ6j1qHXS+otRc19eYcxvWF5Sftx31TO8PZKHaNtbsvor29+MnK0lb9CJmH58J91fvFF39394x7wN8I0c0QvcBKKa2v5miXOn5hvexDAAIQgEB+CcgHNj+TGKn3mfYaSfnENtEmyWdWnlJEe2Kki/8/kmIYYqSLfNjLJwHzo+WTh0lx1JIlb7uf/+K37uNPVnjhW+fjmMGu0YQa5TeBP5xNb9co9hp7z/3elzc/3q6Pt+bHx8taWhtC0V6TlTS7Xu8c0yQhm0il2Ezxh16cq3jDYgKVkRZLKQay+Mza0NPT1D2VFfeJzxCAQHkJ5FK0Vxc1a1svMl3z1caCICxH1UTRUJyUIxUup6Prk/LpuGbXa3kcCctygLdt31sgKpFZM5LtZkHhxPc7WpNe16o+fcGnLY9jM/bNwQud7bDMJJE1doTiz3Z9OR/91NMNmsEjcbevyW6srFj1jeeatA6++huL9mF9YvrZ518XLediInZPon05xiJsh/aTuGd59NOWcrJAIS7XPieVr3PW33KK9rZEjl6iqyca7GW41pZybe0lslreRjPmk1LLuQtu68mz7nTSNHvn/JI4Whqnt5fZJpU9WI9JMNdLgmInVDxsmZfwRUN9Fe1tVrs5dJo9YrM9jL05xFlEe11vy+NY2fEskzRH0+qzGSX2slY7blutuai1F63N5kybM5u2PI6Yqm3VWh7H2htu9UiqltoxxjFby2uOtvUp7qPlM8bGwo6zhQAEIACBfBOI4whipOotIUqM1P3/RlIMQ4zUnRNH8kXA/Og4XjKf3yYlWavT/Gk7r+2Wrdv9LHa71q7RDHwtfXnnXeP9Mjk9LZFjS9OYAB+WL5/dlsfRcVuuRn34yzU3Ftbb18tpJdarXh3XO8YspcVSoWhv7ySzfti18TatrDgfnyEAgfISyK1oby841YtKw5d/JonxcmbtsVHD095+wo0e+3jRzON9+w/5dexnz33NLw9yx+hH3aTJc7zAb9fJEVZ9367baocKWwnT4QtmlVcifpYX0doMmUJh388CCW8+6FzsCNnn3l5Eqzao3V+s7np8SmVJzNYM9lAoN34S0C3ZkkGj7nrEiXuY1m/YXpj1Hh6P9yU26+Wro+6c2m0sLG8o2ttNh7j/tr6+ifQmYttnlSVBO+bZ37GwNtrWuIecJH6Htmh54xfRvvv+ysR14xsajrj9+xv9ZUnl64T1t5yivb2UWU+XVGppHLV9z6lzXmy/fkeze7f1pOEpbPed7jo/dHuzm3Ywed17Hdf5Rw6mz9YvFMiOJ7BixeqiFw6FWPwNrcdn+ccn5TwqZRXt5fiFSZ/DFzCpnHiW+qHGw+7y315dWPvQZqyPGHlX0RI0upmgY/YiWhOew1kmarseQ016pDNsl/qvFyytW39xSSk7v3Dha0UvhjVnWlulrC+i1fJDqmP1l19Z0f77NX7BrG46xE82WD96mmmvx17/97/8R9HMGFWkmwp2nTnqWktTZVrSi6XUNuuT9bG38bPr2UIAAhCAQL4JxKI9MVKxaE+MdPEdYsRIXXGiYp7eYin9r69WjJTvb5jB0bo00d6Ox6K5/Gg9uWz+tSbyXHX1de5oa1sBmN5hpQk2NlnJfHC7xl5Gq3eO2VPEhYu/37GXwPb2Ilq7TsK61sAPYzDdeNAkH83+t6eELX+a0B6K9lqidOKkh/0kMJUVJsUZFkOmlRXmZx8CECg/gdyK9uqqRHL96IYz3010DsVeCewSU196+V0nAbq9o9PPgte1lk/rpD8y7QV308jJfgkdlS+BWzOPJbJaUr6n5rzibr71QS/ca40zHdMLbIdeP8EtXvpRQTBRWyT6a8mUhkNHnPJ+vXazG37jfUX5Ymfb6pIgbO2zY7GYa5/Vzvc/+MK35dixdjfx/tlFfbElanS8o6PzYpuHTygS7e2xWt3Q0I0NfVbavmOfvyEx9dHnncpXn1WfuH708d+tealbcdfTC2L+2OMvFsoNLwhFex1ftXqdF9/1RILqUxkaQ9VpN01MxA5F+63b9vinMCSWi7kErP6ORdhO7Rv3ULS3mxu33P6Q27O3wde79tstnlt4E0FjoeVxZEN6kkNt1NMXuk5L+Jw7dy6xfNVr/Q0dTf0/uGHE/d7GbLx0PnZIk/JZvzQDRvkrtTSO1TO7sd2L7qP3tHabbd+baG8vqb1hR4v77FjxizytfLbFBMzRCx234hzOSdTWbHMJ1EpZRXstVaPHL7vst+txTC1hY07ne+9/5MXiDz/81OfRmoqaUSIH15xXE+31aOfT8+b7dR91bMFLr7pf/voKJ2dWSQ6i1obU9ZpxojqWf/CJf6y0N9FeeW1pHQn3aq+OffrZSv+oqx5hNZE7dqbF76lZz/hleXrqq70o9m9jJjqJ51a+2maielI/1Bbx0TI3YT7f6eAflS8nW+OoGx9KeiGtZvvLiZYzrWQ3IbZu2+H7pDw3jbijKKiwPvY2fr5A/oEABCAAgdwTSIojiJEu+urESBdFe2KkZNE+DzFS7r9o6ryBJs5LeA6TCdbyueVXy3fXZBpNwglFe1sW1OIZ8/E1cUYxkZL54Cba69jSN5b5iTmKS9LS7j37fFxkZSfFSnatylZcFc6KV5yjGwNqb3zzIU1oD0V7lW03GCY/+JiPyywWU/+0bJBSWlnWNrYQgEBlCORatDcB015IKwRJor2+qFasXFtYE12ir164KUHdZhZrSRA5daH4ayJsKOSrDgnIEoQ1y19C51XXjHF3j5nm1ny1qSD+2HDoS3X+grf8jHvl1TVa4kVf5JaSnG2dK0W0l7j/6PT5vg96ie6YcU944djq0FZrw99z7wz/Yle1WWv3x0K58klAvvX2h33fbAkfu17LA4mT6tCseQnrJniFdSXta5x0nWa9J6W4LSpXM/n1xIOuM846ZnWaDYTjpvHREwTKLyHcng7oz1jE7U0S7ZVHN0RmzXm1wEht17JCoWivfNYWPZkhu9BWdqLjSmnlW39D0V5PH4ybMMOXY+9JSBLtk/L5ypzzT4Noual4aZwtW3f7myTPPr/UsvZrq6VvtCa91q3XrPn26OU7mzrPujePdrrms8XL52zuPOvu2n3UC/5TDhxLfEltvxpWpxdneZwxzpNFtJfI//riN72QLsdQorM5koZSzpwcUXNqtZWjKPHd1kiUvWtfwrOu/9kll3mHUsv5bNq0xYry24ZDjV60/+H3L3iSgK/yVH/o/BZd9P0HtUUzYuwltipDYvbXX39b+C5R1iRnWtdq+SA9ISBnV/1YsvSdglBu9al9o24f69uj8tW+mKXyaj1J9TfsR1I+K9e2Eu5DRlpbU59tdovyiaeO2Yt/1d95z8z3N2WMkbZZxs/qZQsBCEAAAvkmkBRHmL9IjDTFT4AiRuqyYWKkZNE+DzFSvr9l6r91aaK9et7Wdsw99PB0718r7lAss2jR635yUijyHzjQUIhVlE8z7z9f8UVB90mKM+ymwG8uv8rp+rSkOGP8vZOL4oek/IrrNBFIS+KESXUrPoiPpwntsWivstQGrZWvctQ/zdzXmvymy6SVFbaDfQhAoPwEciPal79r9VFimrhbH72jF9Ui8MlnXxVuYFW6zuWtJ51my0u414tnD5w+12OVnx475W7d1SXYa4a+ZuSTIAABCEAAAhCAAAQgkEaAGCmNDMdLIVDNGKmUdpEXAhCAAAQgIAKI9jm3AxzSnA9QDTRPy/XoqQs9fWJ3yivdbK1pf9POFj9zXi+W1az7L9tPF2be60W1yiNRX+K+1rH/255Wt+sUgn2lx4byIQABCEAAAhCAQK0TIEaq9REc+PYPRIw08L2mBRCAAAQgUEsEEO1zPlo4pDkfoBw378SJk+75+W/6pZC0PM+u3Qeq2tp1J864cXtbC6K8hPmkv+E7mt2TDce7LZlT1cZSGQQgAAEIQAACEIBAzRAgRqqZocpdQwc6RsodEBoEAQhAAAK5JYBon9uh6WoYDmnOByjHzZNDqnX0teb+/v2NA9bSb0+ccY8dPOZG7TrqJNBLuL9xR4vTUjjPN3W4Q2eK17cfsIZSMQQgAAEIQAACEIBATRAgRqqJYcplI/MSI+USDo2CAAQgAIFcEUC0z9Vw0BgIQAACEIAABCAAAQhAAAIQgAAEIAABCEAAAhAYzAQQ7Qfz6NN3CEAAAhCAAAQgAAEIQAACEIAABCAAAQhAAAIQyBUBRPtcDQeNgQAEIAABCEAAAhCAAAQgAAEIQAACEIAABCAAgcFMANF+MI8+fYcABCAAAQhAAAIQgAAEIAABCEAAAhCAAAQgAIFcEUC0z9Vw0BgIQAACEIAABCAAAQhAAAIQgAAEIAABCEAAAhAYzAQQ7Qfz6NN3CEAAAhCAAAQgAAEIQAACEIAABCAAAQhAAAIQyBUBRPtcDQeNgQAEIAABCEAAAhCAAAQgAAEIQAACEIAABCAAgcFMANF+MI8+fYcABCAAAQhAAAIQgAAEIAABCEAAAhCAAAQgAIFcEUC0z9Vw0BgIQAACEIAABCAAAQhAAAIQgAAEIAABCEAAAhAYzAQQ7Qfz6NN3CEAAAhCAAAQgAAEIQAACEIAABCAAAQhAAAIQyBUBRPtcDQeNgQAEIAABCEAAAhCAAAQgAAEIQAACEIAABCAAgcFMANF+MI8+fYcABCAAAQhAAAIQgAAEIAABCEAAAhCAAAQgAIFcEUC0z9Vw0BgIQAACEIAABCAAAQhAAAIQgAAEIAABCEAAAhAYzAQQ7Qfz6NN3CEAAAhCAAAQgAAEIQAACEIAABCAAAQhAAAIQyBUBRPtcDQeNgQAEIAABCEAAAhCAAAQgAAEIQAACEIAABCAAgcFMANF+MI8+fYcABCAAAQhAAAIQgAAEIAABCEAAAhCAAAQgAIFcEUC0z9Vw0BgIQAACEIAABCAAAQhAAAIQgAAEIAABCEAAAhAYzAQQ7Qfz6NN3CEAAAhCAQJkJXLhwwX333XdlLpXiIAABCEAAAhCAAAQgAAEIQAACg4cAov3gGWt6CgEIQKBuCZw6ddpNf3yW+3zFF3Xbx1rp2Guvv+GefW6BO3f+fK00mXbmkMCSlk53886WHv/mNrantvzV5hPunr2tbtepc6l5OAEBCEAAAhCAAAQgAAEIQCCvBBDt8zoytAsCEIAABDIRkDg8Y+bT7m9jJroTJ06kXtPa2uauvGqYW7z4rdQ8eTih9l3688vdrl178tCcktvQ3Nzihgwb6ZYseZsZ9yXT4wIj8ErzCTd0e3OPf082HLfsRVsJ9tfvaHHDtje7WYfShf2ii/gAAQhAAAIQgAAEIAABCEAgRwQQ7XM0GDQFAhCAAASSCUjAlpC9Zs3abhlWf/mV+8MV17oDBxq6nQsPINqHNCq7v279RvfLX/3Rbd6yrbIVUXrdEjDRfvzeVrep82ziX8OZ7k9zhIK9RP0LrNRUtzZCxyAAAQhAAAIQgAAEIFDPBBDt63l06RsEIACBOiGQJtp3dp50t40a42bPea7XWd2I9tUzhjNnzrhx4ye7iZMedtonQaBUAibaT9zXlvlSBPvMqMgIAQhAAAIQgAAEIAABCOScAKJ9zgeI5kEAAhDoiYBe+Ll581Z3+53j3E/+/VL3D//4z37W+fIPPnF6IWiYdu/Z50bdPtb98Ec/9X933jW+2+x0LS8z86l57meXXFYoS+vEh2VpOZply5a7y397tc+jGdVLlr5TJM5qRrzaEs+M19IvWqJGArqSPv/xiiHu089WuuHX3+b+6Qc/9v14et58p3Xq9Xf36Am+LJWnv3DpmG++3eA/xzO61V4xsDZqJv4L8xf5z/HyOFu2bne33Dq6UPdDD093LUdbC+hM7J//4stO7TI2WgJm06YthXzaaWs75nS9xkKcxfuZZ18sanPRBQkf1L7/uvQ37vXFbyYy0SXGRWy0b8naGvZRfXlyxlz381/81vNT+zXG4VJCyt/TOFj5sreVK7/0Nqax0NjPmv2Mu2nEHW7a9Kcsm9+uWLHa92Pbtp1Fx/kAgSwEShXtEeyzUCUPBCAAAQhAAAIQgAAEIFArBBDta2WkaCcEIACBBAISjf/jZ79wC1561Yu3EqvfX/6xF40lhFvasWOX++Wvr3ALF77mxXUJvXPmPu9FV4n5Spq1PmbsfU5ivoRelfXF6jXuP//rV27pG8t8nvPnL7inZj1TWPpEeXT9n6+5wa8rby8fLUW0l/grAXzfvgN+tvzab9Z7kVs3BiylzbRXH64bfqtrb++wrH773vsfeS4ffvip78exY8fdPeMe8KJ1KGirneL36mtv+BendnR0uEceneGuHTLCaW12JRPCJcIvenmx5ydWUx6a5tutspXEdOw993sW6ovYrF27zrMKbzT4zD38o/b1xiSraK/+3HDj7X5Mm5qO+Fr37N3nb5yo/TZeWerUxcbL7Mh4qb2xaH/48BH3u/+5JvfvEOhhKDg1gARKEe0R7AdwoKgaAhCAAAQgAAEIQAACEKgIAUT7imClUAhAAAIDR0AzqEfeMto9OGWak8h+9uxZN2HiFL9cSbhUicRmieWaQa4ksV8zp/fvP1hovGZWa+kZladyNWtas8DDGwLKrBnvmsGtrVIpor1E840bL85YP336tL95oDar7UpJor0J19ZPn9E5Z/2Kl8w51Hi4aKa9La0TitcqI77eRPv7H3ikIHIrnwR5zahfv36TrzpmYO3RDYFSRfvemFjfs8y0t3aEW425BHUJ60oS7Xur05a80bI3oR3pBo9m6cei/cmTp9wdd47zN0FkRyQIlEIgq2iPYF8KVfJCAAIQgAAEIAABCEAAArVCANG+VkbJk+ICAAAgAElEQVSKdkIAAhDISCAWdLPMeJa4L/E7FoHjKiVAh2KvnddMd814f+LJOf5QKaJ9kqAtAThsS5Job2J6LBZrqRwJ0HpBbZgsvwRqpZ07d/sbEJ99virM5vc1g19PD0jAt+vieuI2SQiXeB0uraPCVF9SH7tV+v2BtPwhk3iMrSxrq/XRjsfbuI74s+UP6zQ7kg2EyeqM+WS1qbAs9iFgBLKI9gj2RostBCAAAQhAAAIQgAAEIFBvBBDt621E6Q8EIDDoCNia5bbWupYq0Z+J3iYuxyJ2CMpEYC0N09OsaAmzScvR2PVaXkcz5asp2scCter+13+7pDAD3vpp4rLlT8un/Mrzi8t+77SUjF0Xi9LGVeUopbFJE8StXfE2Lb/KtzE13vbZyrC2Wh91XLPi33lneWEderOP8EZCljqtv3oiI0xWZ8xHeXTMntIIr2EfAr0R6E20P3zmvBuzp9UN297snmw47i7wMEdvSDkPAQhAAAIQgAAEIAABCNQQAUT7GhosmgoBCEAgJqB117X++n2TprrGxiYvuMeCromt5RLtk0RYq3MgRPt45rdEdM20j19Oa+KyCdpp+cRYefoi2iexSRPE47G0z2n5+yLaa836GTOfdn+6cpj7dt2GwvI+cR3xZ2tLWKfZUfxkgnFFtDdqbMtBoDfRXnXsO33OLWnpTBTsHzpwzN28s8WfL0d7KAMCEIAABCAAAQhAAAIQgEA1CSDaV5M2dUEAAhAoM4E33lzmfv3fV7qDBxsKJZuAbrOwbVkTCbNpKetSJmnL42gZGS0nU83lcazOWCwux/I46kc9LI+jJwV08yGeHR+L9PFns5NQtDc7im+SpIn2WW3K6mILgZBAFtE+zB/vT9zX5oZub3YqhwQBCEAAAhCAAAQgAAEIQKDWCCDa19qI0V4IQAACAQGJrfEa81pffsTIuwpLqQzEi2iThHMtu/P8C4vclVcN80vOqBtZxGLls1nethSNjiW9sFbHbX39cr+INr45ELdJL6QNX8artihJ5A6Xovn+cOomCxMTxPWiV73w1VL8sl1rYzg73sYhbFOWOtPsiBfRGn225SSAaF9OmpQFAQhAAAIQgAAEIAABCNQaAUT7Whsx2gsBCEAgILBu/Ua/FMzCha/5tcs7Ojqc1qUP17RX9h07drlf/voKZ/k6O0/6fFpaR0vsKOmYlre5867x/mWqFy5ccB9++KkXnL9YvcbnkVj81Kxn/HIr27fvdMqze88+Pytdy7BoORYr67ZRY9zfxkx0J06c8Mc//WylL6svon1T0xH/kleJ/qpTf0p6YWzSGvvvvf+R56L2K6+EZfVLXCRQW9JNAInXb771rm+j8Qu5pM0kN0HcbiRo7fiJkx72LPbtO+DrXbt2nfvlr/5YdtFe7V+xYrXv48qVX/plkcRIyySFfdTTCMOvv60wphqf5R984n7y75cWtSmLaK86e7K3+KaGzcyPZ/kbe7YQ6IkAon1PdDgHAQhAAAIQgAAEIAABCNQ7AUT7eh9h+gcBCNQ1Ac2almj7hyuu9WKtZnprhvnYe+53V119nTva2lbov8T1UbePdT/80U+9aPvQw9O9mF3I4JwX2Gc+Nc/PGP+nH/zYC74bNmwuejmthN9ly5a7y397ta9TovSSpe/4mwZhWQ2HGn19Kkd1SjSXsNsX0V79fPfdD3y7bK151aXZ7RLd4/XrJdRLnA7b+PS8+f5zKNqrjC1bt7tbbh3t1E6J2TGXrKK9ytINCt00UTnqs3jfO+HBIoE8ZJS0n1VA1zgsfWOZ+69Lf1MYh6Q+ahzEXu2xcZj/4su+v3bDIWudGoevvvqmYG8a+8emzfQ3JmLRXjcVtHTT/v0Hk7rJMQj0SADRvkc8nIQABCAAAQhAAAIQgAAE6pwAon2dDzDdgwAEIFDPBGz9/ngpnDz1WYK43WiQsK2Z8Gl/JqLnqf29tcVuatj7DJRfNxSmPDTNPTz1CaenM0gQKJUAon2pxMgPAQhAAAIQgAAEIAABCNQTAUT7ehpN+gIBCEBgEBLQki2/ufwqvwTQQHZfs9A1a1/L5FjSsemPz3JaKkjLD9V60jJDBw5cfOmx+qNlgnRTQjPrLWlM9K4FPd1BgkBfCCDa94Ua10AAAhCAAAQgAAEIQAAC9UIA0b5eRpJ+QAACEBikBCSML1nytrvr7ntdW9uxAaOgl8BqmSLNptfa+LZ+vJbvsXcCDFjjylTxC/MX+Rska79Z79fs1zr6WnpH70KwmxKNjU1uyLCRfumeMlVLMYOQgIn2Q7c3u/78qRwSBCAAAQhAAAIQgAAEIACBWiOAaF9rI0Z7IQABCECgGwEJ5FqnfdWqL7udq+YBzUKfMHGKX9Nea+QPGXqzF+x1Y6Eekp4ieOed5YU17fUOhSdnzC26WfLW2+/5dx7US5/rYdxqsQ+I9rU4arQZAhCAAAQgAAEIQAACECgXAUT7cpGkHAhAAAIQgAAEIAABCEAAAhCAAAQgAAEIQAACEIBAPwkg2vcTIJdDAAIQgAAEIAABCEAAAhCAAAQgAAEIQAACEIAABMpFANG+XCQpBwIQgAAEIAABCEAAAhCAAAQgAAEIQAACEIAABCDQTwKI9v0EyOUQgAAEIAABCEAAAhCAAAQgAAEIQAACEIAABCAAgXIRQLQvF0nKgQAEIAABCEAAAhCAAAQgAAEIQAACEIAABCAAAQj0kwCifT8BcjkEIAABCEAAAhCAAAQgAAEIQAACEIAABCAAAQhAoFwEEO3LRZJyIAABCEAAAhCAAAQgAAEIQAACEIAABCAAAQhAAAL9JIBo30+AXA4BCEAAAhCAAAQgAAEIQAACEIAABCAAAQhAAAIQKBcBRPtykaQcCEAAAhCAAAQgAAEIQAACEIAABCAAAQhAAAIQgEA/CSDa9xMgl0MAAhCAAAQgAAEIQAACEIAABCAAAQhAAAIQgAAEykUA0b5cJCkHAhCAAAQgAAEIQAACEIAABCAAAQhAAAIQgAAEINBPAoj2/QTI5RCAAAQgAAEIQAACEIAABCAAAQhAAAIQgAAEIACBchFAtC8XScqBAAQgAAEIQAACEIAABCAAAQhAAAIQgAAEIAABCPSTAKJ9PwFyOQQgAAEIQAACEIAABCAAAQhAAAIQgAAEIAABCECgXAQQ7ctFknIgAAEIQAACEIAABCAAAQhAAAIQgAAEIAABCEAAAv0kgGjfT4BcDgEIQAACEIAABCAAAQhAAAIQgAAEIAABCEAAAhAoFwFE+3KRpBwIQAACEIAABCAAAQhAAAIQgAAEIAABCEAAAhCAQD8JINr3EyCXQwACEIAABCAAAQhAAAIQgAAEIAABCEAAAhCAAATKRQDRvlwkKQcCEIAABCAAAQhAAAIQgAAEIAABCEAAAhCAAAQg0E8CiPb9BMjlEIAABCAAAQhAAAIQgAAEIAABCEAAAhCAAAQgAIFyEUC0LxdJyoEABCAwAAQONBxz6zY1um82HOIPBtgANpArG9B3k76jSBCAAAQgAAEIQAACEIAABCBQGgFE+9J4kRsCEIBAbghIDNt3sM2dO3chN22iIRCAAASMgL6b9B2FcG9E2EIAAhCAAAQgAAEIQAACEMhGANE+GydyQQACEMgdAc1iRbDP3bDQIAhAICCg7yh9V5EgAAEIQAACEIAABCAAAQhAIDsBRPvsrMgJAQhAIFcEtCQOCQIQgEDeCfBdlfcRon0QgAAEIAABCEAAAhCAQN4IINrnbURoDwQgAIGMBBDCMoIiGwQgMKAE+K4aUPxUDgEIQAACEIAABCAAAQjUIAFE+xocNJoMAQhAQAQQwrADCECgFgjwXVULo0QbIQABCEAAAhCAAAQgAIE8EUC0z9No0BYIQAACJRBACCsBFlkhAIEBI8B31YChp2IIQAACEIAABCAAAQhAoEYJINrX6MDRbAhAAAIIYdgABCBQCwT4rqqFUaKNEIAABCAAAQhAAAIQgECeCCDa52k0aAsEIACBEggghJUAi6wQgMCAEeC7asDQUzEEIAABCEAAAhCAAAQgUKMEEO1rdOBoNgQgAAGEMGwAAhCoBQJ8V9XCKNFGCEAAAhCAAAQgAAEIQCBPBBDt8zQatAUCEIBACQSyCGGLF7/l/uEf/7nw908/+LEbMvRm9/EnK9yZM2dKqK0466ZNW9zw629zKu/Kq4a51ta24gz9/LRmzVrfZm1JEIBAbRPI8l1V2z2k9RCAAAQgAAEIQAACEIAABMpLIFei/XfffefWfLXJ3T1mmrvqmjH+7557Z7iNm3Y6nSPVB4HOk6fc+Pue8n/a7086efK0mzBplv/TfloqZ51pdXAcAtUmkEUIk2h/6c8vd7t27fHNu3Dhgtu8ZZsbMmykG3/vZNfZebLkZjc1HXF/vGKIe2zaTHfqVPr/u5ILDi5IEu2nTX/K3T16QsXqDKpnd5ASkN2F/18GKYaydzvLd1XZK6VACEAAAhCAAAQgAAEIQAACNUwgN6K9RPnFSz9yQ6+f4D75dI07d+68/9O+julcJYX7nbv2u6HDJ7i/r9lYw8NZu03vK/+son3tkqHlEEgnkEUIi0V7K+3IkWb352tucE/Pm1/yd6tuAEjYVNmVSoj2lSJLuT0RQLTviU7fz2X5rup76VwJAQhAAAIQgAAEIAABCECg/gjkRrT/dt1Wd83QcV6wjzFLuB8y/F63dVvXTNH4fDk+91U0LkfdlOFcX/kj2mM9g5lAFiEsTbQXt4ULX3O//u8r3cGDDQWMumG6bNlyd/lvr/bL0/zhimvd8g8+cZqhr6TZ7uFyO9qX0KmkWfvPv7DI/e73f/F5fvLvl7r7Jk11ukFgKUmM1zm1M1xmJ8xn+2G9akdS0jI9KmfGzKd93WqDlvC55dbRbveefYVLdBN48+at7vY7xznlUdlhX3V+9pznuvE5f/6Ce3DKNP+kwrFjxwvlhTtitWrVl375oB/+6Ke+fi1JtHbtuqIbJHpKYd4z893PLrnM16/tkzPmupajrWFxhX0tZzRu/GR33fBbXXt7R+H4iRMn3MhbRvtztuRRw6FG/ySF6tffnXeNdwcOXBxn1a2nFuInF4xfbzdk2tqOuYcenu7ZqfxRt491zzz74v9v78yfpCzSPP4fbezGbuxPGzEbxsRMTBgzzEys4zqO44Ez6iAocg40hzRy3yCIyCFCI4rIpa0gcjaHyiVyilxyddNyNSCIG7nxSXyKrOy3qt6iq9qqrm9GVLxV75v5vE9+MnmJ/ubzPtkuSj2eT91+/2e3YuWHBVMzwb+paacfE8aGdrNfn+969urv5yCdL7YPhw4f9fOA+cCY47+xtn6Hc8zmY6G5khmIKv3S0nrdHf3mort584eCPaAOdc83XytYN6yQ5lkV1td3ERABERABERABERABERABEah1AhUh2vMH8auz3nZ9B05yly+3/0OQc1x7Y95yL3jkEmovXbrqXugzzi1fsT5rXA8eOu7qhs1wjz052D3x9FA3edoid7H1bv5ls/WXJwY5+xBxj4hMod6s19/10f5cZ2Fh9hvLXFvbjax7xD8uXb7q78P9SPVDmp8FC1f6aH6zTVQ/NvGnR69RWdcQIxY1rPGLFdTp2XuM27xlV0Y44370M/TVfJgxc0kmXYz1b/S4ud5v/MfeS/0muF27D2YJSNY+PJKaqP+gyZ4d/PoOmOi2btvj/Wj97op7sc84t3jJB5kmP/74o5syfbEfT8bVyvYd+zy7Awe/ceYTaW0YM474ZJ+wT9jAT+6bb/wGD5vhlixtdM8+P9LbgefWpt2Z/oX35Lv9njhloVux6tOc7fAf0Wnl6g2ZOowFY8M9bK4dOnzc948xVhGBziKQRgjLJ9p/+eUB9x//+YDbsfML7zKC9Guz5/sI/FOnvvX/znd+tsv95sGH3MpVjZluJUXa//DDD27U6Em+LeI4/3YRRPv0rfNCaVvbXZHZBHiOYckn2lu9NOlxTHxFlGWxgX+/iOuD6+rdw490d+fPN3tz5OT/xX8/6BqWLPPiL0L72nUbvJi7aXOTr7Nn737Ph/NWLDUQgn74jLPrHNev3+Rt2/0R0hc3vOse+GU3n5qIOvg1bvxU9/TfermzZ8/55tiGF59caYtYUGHMGDsrR44c87a5RoE/Ivf0GXN83/j/hH52+8Oj7uuvv/F1ihW87V4caTtk6KisecKCBPcMU8vYfOI8KZlgjG+84cGiCgxyFeYH48PCEvzgMWnyTL+4YQs2xfTB7C17b5W/L/MRe/C/eLE14wb1wj5wIc1cyRiosi+Xrtx0+w9ecDxLDh5pySvcI9hTh7p7vzrnzpxLXrRKQpDmWZXUTudEQAREQAREQAREQAREQAREoFYJVIRof/Xqddf/n5PdtBkNiSIIQjDiKsJs2/WbGcEVsRfx1UqSaL/z8/1eTF22fJ3/Q/1a2w1/nz79J7rmlu+saWKkN3UHDJ7ic69faL77R/3xE2f8wsCkqW/lFBzw6ZUxc1zvfuPdiZNnvVCB8IygHArSJtoPHDzVnT3XkvHF2uPjmTPNmfbPPT8yK01QMaI9gnfD240ZAWfm7KWu+zPDHSJ6rsI13nAwdggsH61t8gsfm7fucjYuY8bPc7dv343QMyEfMZ/vVuYueN+PMWNtgnk4frki7bft2OeZrVu/w3O4cuWaGzthvl/EaW29nLFF/1isIHc9vjS8/aHnffLUXTEsvqf9LtQO/xHsWewwH5gL5ORnkcFEe+unjiLQmQTSCGH5RPtYfEf8ffC3D2dEfPqCMI1AHUZ3x+3y9Xnzlm1efEW0pSCKEs3MMSylFu0RZENR/fTpM15URgTOVSxinUh6BGfEfnL/j6gf51iUoOA3CwII+sWUCxda3J/+9ym3aPE7vpktLixdurwYM876MeeNhZl2sEMY5xp+T5g4I2uhhIoWpU+kPt+LEbwzN/rpC33nrYCYAYJ4KHgzn3716z86WwQxO7na23XzNV68YBGIvRSKFe0R/LHFIkm4UGDjGy7AJIn25ld4jOdKeK2avoeifT7hPhTsqbfvwHnXcvF66q6meValNqaKIiACIiACIiACIiACIiACIlADBCpCtDexHdE1V+EaUfTUNcE1FH1pZ3ZMSL1x43s3ZPirLhbY48h92uYSjZP8IbL8+RdHu/MX7kXnhfV27znkRV6OYUH8ThLtiUIPC4I4YnksqH/QuCVLiC5GtB9eP8sL2nYfY0BUPOJ7UsE+UeUtLcmpGmjz8dptfnHC3pBgkeTx7kO8sG/9t/HibQpENPsdjl8Sf1vMsTcszEeEeBZANm7+ImNr0JDp7tq1ewICiyvP9Kj3/tEuvqf9LtTOOMU+fP31KT9GNtfMNx1FoDMJpBHCihHtEV0RRS1liPUF4T0UY4sR7WORPv5t9yi1aG/Crtm/deuWqxsy0n/4nlSShGzEcUshxPNr2vTZeVPjJNnlnIn05pcJyUSd81ZD2sLiAYsItohiPpsYb8K2LQ6EdnljgEWZEydPdUi0x3bSPInnGvOJhQoWLMJCah/8n/HqnPB05rstcNA+LDFD63uhFD/Hjh33iwfM47gwvoyBpTpKK9rnundsvxp+X7n6fSbanmfKgSPN7vqNe6ly+M45rvFBsG9uuZeeKU0f0zyr0thRHREQAREQAREQAREQAREQARGoFQJdWrQ3YRVxNy5EfhMJb2Jzkmgct7HfucRyu46o36v3WEckeFjidhZpH25+60WhGQ2ZtwrC9qe/veCe6/mKW7Vmoz8d27O6SelxQoHc6s2a/U4WAztvRxYPHn+qzi1556NMJL1dsyPcerww2i8w4DviNm9MTJy80MGYwuIGixw2DiaYhz4l8WfRggj3kI/d145JtrgWL+DE9eLfZi9uZz7ECyvmr0R7I6fjz0EgjRAWC6mhn7H4jqAc5vQOv6cR7S2XO/nbyRsetkcMpfxcoj33pn8mdvMbgZsc8pZT3vwNRWBLIYTgbZHZCPc874xfUjvyxyOuW758q2OiPfcnpcxvf/eI58Q+AAvebHCtrffeAIvHwxjii6XIsch7xpliPoUpffyFn9gzLtw3l+hswrjZS/Ih5mj247mWq57dm0WUpAWUXH0w37BLMTvheHHe6lkf4Ga8zFc7UscWMjhH3XCuW700c8XqVuOxnXB/uNlda7vlPwcOd0ywh0eaZ1U1cpPPIiACIiACIiACIiACIiACIlAuAl1atEfsJep77767aRlCiIitRGITkU0xETYWiEm18kHjZh9xbjnXOYYR86FdviOak+6HSPGwxCI798JWeE8Tk8OUM2bDBGXEdkpsz+qlFe1pzyIAiwFJhTcVpkxflMklP2zELO9rmF6AdEWkLSLi3kfGD5rsEPsR6I0B/Hu+OCZzH+tjIdEeLrxxwOJLrpJki7rGij5S4nrxb7Mft8OHpDlk88XsW3sdRaAzCaQRwmIhNfTPBGnLaY8YGkYdh3XD7yaqmijKNUTsFSs+8PnvN2zcmpVOBsHaBGeO4W+ziy3b+JNzSfXwLxZorb0dTbA1YdfOc+ScifbkMSefORvlkuce/5NEYIsKR4D/4os9XoS3voS2w+/kjSd/PBunWgR3Lr+45/btn7mhw0Z724j823d8Hppr952Ng4n+J0occT4UmW1skqLK8btY0b7dzX/iyMa3pIgJSzzX4J1UzzgXEu3jPsQMzU48J6yezU/6TX58S9EU+1xItE87V0K71fg9Fu6/OtTs+PCc4XM/EfbGIc2zyurqKAIiIAIiIAIiIAIiIAIiIAIi4FxFiPaWBqVQTnsTgYsRXInUjtPMMPCIrYVEe8Tp1+a86154aazbvfdQJhcubQuJ9pZ/P5xkcbt8oj05/OO0NSYod5Zoj+8IWWfONru3Fq/JLFyMHP26Q9C3gj98EOdJYURkPQsBfIc9aYFCgT5p/EwEDxcwKkW0T5pD5q9Ee5sFOv4cBNIIYbGQGvpJfndL/cJ50p6Ev8O64XcThk0U5RriNIJ/mGud87H4Hv82u9gqp2gfp8dZtbqxXV9zicCWIqf/gGHur48/6767lP0WlfXBjqR9scUBO2dCctJigtVBBOcecVu7bkdLkYMvPXv1z1rIyJcehz6bQJ2rr+ZnOLZ2Xzt2ND2OzZVKSI+DD+FCFfMzXAShz8XMFWNUrcdYuC+FYA+LNM+qamUmv0VABERABERABERABERABESgHAQqQrRHGCbfed+BkzLpasLOWl5xE7KTRF/qm6htQmq+9DiIzIXS48R50c2nWHy383YsV3oc86ez0uNYf+zIOG3esstHnhNZb4Wo+uH1s9ycecv9hsEsNvCGAm8LLFy02p+DiZWk8TMRPBTtLTVNeM5s2DHJFtfiuRDXi3+bvbid+aD0OEZIx0oikEYIyyXaE13+8CPd3dx5i/ziHP3a9+VXPtq7sXFdVjcRcoket5Ik2pvYG+dS37BhS1ZkPdHORD1bdD82ebYsfGtpSUX7QhvRwiXOt05Ufa8XB2aJ4PhnPvOGgKXGMRZJx6QI83PnL7j/eejxzCaqpKj5t3//ReYNBLNDHvdw8cLOx0ei0C3lTiiwp92IlnpsuMsiwc2b9xZhzc/QZnxv3tDojI1o4wh6W5CwhY+0fbD9A+53I9pi5krMqhp/x8J9RyLsrf9pnlVWV0cREAEREAEREAEREAEREAEREIEKibRnIBBHSYWycVP7tACcI7c6aVcoiMII+AjFNwKx4ey5Ftej1ygfRU+9jm5Ea0Ky5WLHJuISUef5Iu2JOCc62zZi9U475yPOw3aI0XF6HOqm3YgWv+L0MbwdMH7Sm5nIdhOnY1a2EJJrI9rvb912RNSHEfL4Rp5+8vXbwgjnLKreNoe1/rJxLvnueaNh1+6DdrpdqhouGOtQoLc3MOJNYJM2oo39jMV342D14t/mXNwulw+2IBRyMBs6ikBnEUgjhCE4hpHDPCP27tvv/vLYM274y2McgqYVrs2cNdfX3/nZLkeO+ubmFjdg4HAvZls6lCTR/vbt267+lQk+apmNVWmLMN3t93/OEu1NQB1cV++wxz03bW7y9wzF6qSIfN4MQPhGWEawTSq2eECamXWfbPT2iezmfixSsFhBYYGCxQNs4ntbW5tD6EcIj8Vi/CTNC6ll8KtQ+Xjtp972+vWbshhi2wRnOJAeBrv0hwI3or7hiE/5im3WGo6t1T9+4pRPz8OCDBH1fBqWLPPnwsWXrVt3eD+bmnb6/9sYa9IF4Wc+0T7fWIf+MEavzZ7v59rRo8c8C3yjj8wzxj5XiccHXjY+xpC2aftgEfSr13zk72vjTYok0t9YOXLkmHvgl90ci03MYf7Pj32xtklzxexU+9GE+1II9rBI86yqdmbyXwREQAREQAREQAREQAREQARKSaAiIu3pEH8Yv7/yU/f3f4zwwj1/zPNBsEfoJk1N+Ac+wjbC+Nam3b7theZWN27iAi+Ch0Lqzs/3+/ZEp9P+WtsNv1Fqn/4TXXPLvQ3/aI8YjSDPH+p8rly55voPmuyGj3zNXWy97Nuv/WS7e+LpoXlFe6LMx06Y7yP5T5w8620hWiNqpxHtEZRfGTPH54pnIQJfaP/c8yM9I1hRzGfeGuCeCDPvvf+J9y8Wpx97crBreLsxI+DMnL3UdX9meGLqIJtg23bsy2LHPdiUFu579x22ahkRPs6Pb0I8m9CSMsdKkmBufQn5U998WLd+h+fAODAelqInyRbtYvE9rhf/Nt/idpz/aG2T77P5gK/4wIJLONfMho4i0FkE0ghhiK+Ii/b5l3/9L/fcP/o48s4nCcM8J4m0f+TRp30bIqrZrPXy5SuZbiWJ9lykzvgJ03y0PgI391m6dLkXhkMR+Oy5865vvyFeBMcfFgUQYguJ9kRa9+0/1PuVK7WKifaDBtdn+dL7pUFeFLdO8BxFrA77+fqcN92QoaMSU+DwBkGa1DjYh+HKVY2ZBTHDYuEAAAeJSURBVAsWLmgPj3BBACEaYd02wv3Ngw/535wvVCzKPLQXtoExizLwNcZsjhsW8/NXv/6jZ4qf+MPCSDheYRv7zkIGIjqLI9hnPF8eMTZrgYi6Np+wyRzkHitWfpg498w2R8aHPQRsfGg3Zeos3z4U7Yvpw6HDRx3zgLmJ38xV5lRYsMdbH/TJ0uYUO1dCe9X8/fr12+7y1XtvYXSkL2meVR2xr7YiIAIiIAIiIAIiIAIiIAIi0NUIVIxoD1j+MP5y/1H3z7qp7q9P1fkNUImwf7ZHvTty9GQWe/+H+uoNPtIc8RRBfN6bK7Ii7a3BwUPHXd2wGZkNVSdPW+RFeLtu9278eKsXZ8Nc9+RzR6DFHz58J9ULIjgLArlK20+LAwj8tBv68kw3etzcVKI9NhHgFzWsyfSvZ+8xPjUNAn5YvjpwzKcVggH3om8I9rFoD1OEegR36r7Ub4Lbs/ee8B7atO82Hixc0F/6gR3GiGthgUm8ea4J47nOm4/YwV4Sf86zYNF3wETvA/4zzvaGhd0jtIW9WHyP68W/rS9xO87DnLcGmGOwYyzY7BdfTLQ/dPi4/71g4UozpaMIlJ2AhLD2iE20D4Xd9rWKO2MCeZrUOMVZvv/aFv1fSFy//zsU3xJfLGd+8a0LtyjH2Ba+q2qUgoCeVaWgKBsiIAIiIAIiIAIiIAIiIAK1RKCiRPsk8M3N37lhI2Z6QXTFqk991F5SvWo4h8AbLgh0hs+5xOnOuHdXvoe9RWD7C3TlvqpvlUtAQlj7sSmHsEtKmW5/eNTt2Zt7oba9J+U9w1sCf3r4SXf69Jny3ijBOoupRK2Hb2pwjkWNPn3rslIuJTS/71PlGNv7dkYNiyKgZ1VRuFRZBERABERABERABERABERABFzFi/aMEWlZFjV84COxEQYqveAj0f34bYVzbLY7ZPirPte+nS/3UaJ9xwnztkWYSgmLvGXBfgKHj5zo+A1kQQTuk4CEsPbgSinskn+dFCqkjyFtDm9A/dyFfQLIO096F/LF58rtX04/ycFP2hreZiC/O2++sX8A+ey372i/L02pfCnl2JbKJ9lJR0DPqnScVEsEREAEREAEREAEREAEREAEjEBViPbmbLUcyUNvKVTIoY+gQS588tmTo70zi0T7jtG+c+eO3/S478BJ7viJMz5VDsfe/ca322ehY3dSaxEonoCEsPbMSinsItqzYeqy91aVLXq8fQ/yn0G0x6e16zZkRbrnb1X6q+THH1E/LrN/wd/+/oIX7Mu5sF7KsS09EVnMR0DPqnx0dE0EREAEREAEREAEREAEREAE2hOQaN+eSUnOnD593ud4J888+eDJyY5gX05BI8lxifZJVIo7R/58Nsi1nPYc2W+gEqJui+uJanc1AhLCutqIqj8i0DUJ6FnVNcdVvRIBERABERABERABERABESgfAYn25WMryyIgAiJQVgISwsqKV8ZFQARKREDPqhKBlBkREAEREAEREAEREAEREIGaISDRvmaGWh0VARHoagQkhHW1EVV/RKBrEtCzqmuOq3olAiIgAiIgAiIgAiIgAiJQPgIS7cvHVpZFQAREoKwEJISVFa+Mi4AIlIiAnlUlAikzIiACIiACIiACIiACIiACNUNAon3NDLU6KgIi0NUISAjraiOq/ohA1ySgZ1XXHFf1SgREQAREQAREQAREQAREoHwEJNqXj60si4AIiEBZCUgIKyteGRcBESgRAT2rSgRSZkRABERABERABERABERABGqGgET7mhlqdVQERKCrEdh34Ly7c+f/ulq31B8REIEuRIBnFM8qFREQAREQAREQAREQAREQAREQgfQEJNqnZ6WaIiACIlBRBL49e8WdOnNZwn1FjYqcEQERMAII9jyjeFapiIAIiIAIiIAIiIAIiIAIiIAIpCcg0T49K9UUAREQgYojgBhGFCvpJ/QRA80BzYFKmgM8myTYV9x/G3JIBERABERABERABERABESgCghItK+CQZKLIiACIiACIiACIiACIiACIiACIiACIiACIiACIiACtUFAon1tjLN6KQIiIAIiIAIiIAIiIAIiIAIiIAIiIAIiIAIiIAIiUAUEJNpXwSDJRREQAREQAREQAREQAREQAREQAREQAREQAREQAREQgdogING+NsZZvRQBERABERABERABERABERABERABERABERABERABEagCAhLtq2CQ5KIIiIAIiIAIiIAIiIAIiIAIiIAIiIAIiIAIiIAIiEBtEJBoXxvjrF6KgAiIgAiIgAiIgAiIgAiIgAiIgAiIgAiIgAiIgAhUAQGJ9lUwSHJRBERABERABERABERABERABERABERABERABERABESgNghItK+NcVYvRUAEREAEREAEREAEREAEREAEREAEREAEREAEREAEqoCARPsqGCS5KAIiIAIiIAIiIAIiIAIiIAIiIAIiIAIiIAIiIAIiUBsEJNrXxjirlyIgAiIgAiIgAiIgAiIgAiIgAiIgAiIgAiIgAiIgAlVAQKJ9FQySXBQBERABERABERABERABERABERABERABERABERABEagNAv8PKqI6N34nNREAAAAASUVORK5CYII=;" parent="1" vertex="1">
          <mxGeometry x="870" y="410" width="639.7" height="105" as="geometry" />
        </mxCell>
        <mxCell id="m58B-vZ2goC1sSYAQMLH-27" value="" style="curved=1;endArrow=blockThin;html=1;exitX=1;exitY=0.75;exitDx=0;exitDy=0;endFill=1;" parent="1" source="m58B-vZ2goC1sSYAQMLH-24" edge="1">
          <mxGeometry width="50" height="50" relative="1" as="geometry">
            <mxPoint x="632.5" y="510" as="sourcePoint" />
            <mxPoint x="1020" y="480" as="targetPoint" />
            <Array as="points">
              <mxPoint x="900" y="493" />
            </Array>
          </mxGeometry>
        </mxCell>
        <mxCell id="XUukb4AV3M7E1GuUyOcj-1" value="" style="shape=image;verticalLabelPosition=bottom;labelBackgroundColor=#ffffff;verticalAlign=top;aspect=fixed;imageAspect=0;image=data:image/png,iVBORw0KGgoAAAANSUhEUgAABKYAAALpCAYAAACJwC5lAAAgAElEQVR4Aeyd+ZNUVZr35y8x/PX1DSemgzfe6LGnY7qdpTVmRqanHfsdaWylXbBRERFtEBUFZXEBFUFkcWERQRRLbTYFVEpAkUUEZF8KKNYqCigoUXze+J6s59bNWzezsqqyqLrJ50akN/Pmuec853O+mdT5+pyTf9PUdMF4wAANoAE0gAbQABpAA2gADaABNIAG0AAaQANo4FJr4G8udYO0h8jRABpAA2gADaABNIAG0AAaQANoAA2gATSABqQBjCkyxsiYQwNoAA2gATSABtAAGkADaAANoAE0gAbQQLdoAGMK4XWL8HDGccbRABpAA2gADaABNIAG0AAaQANoAA2gAYwpjCmMKTSABtAAGkADaAANoAE0gAbQABpAA2jgctZA3ekOj/+ZhnMdvlfGJMbU5Sw8+t6pDw/OPs4+GkADaAANoAE0gAbQABpAA2gADWRdA3Xr3rFh/YbZ4zN3W127fIJztnf+S3Zbv6dt+pqOG1sYU+2Czgcu6x844kfDaAANoAE0gAbQABpAA2gADaABNIAGmjVwbJU932+Y/eHW3KN0c6rZlGq+7w/9XrJlNR3TVfcaU9Vj7Yorr7YrRq4jcwWDDA2gATSABtAAGkADaAANoAE0gAbQABpAA5dUAwmD6dZhNmzaljYypzpyT2HTqh3G1DobLxOphMftc2pLE1KqMXXW1o+7wa648hobvKDEeooMWs2c/lHMgxecLC2uxs026Rfe1/42f19hgF3tsh7busKmD+xnvX/m8Vxjvf99oI2fs85qGrsvrq7ud8+rv5D+K2c8jm2osklJrd08xKYv2m7H0Fpp3x1Fvot6nqb5/mBM0AAaQANoAA2gATSABtAAGpAGTtuOmS/ZbZ79VNScKq8pJf6XlTF1Re9ZtquEiWPD8pHWKzLgusmYaqy1lSNujMXhxlTsfO2jtmQ3XySX5oukkDEVG4+f9bPpa0s0P0vQ4aXpl/Rz1laPK661XtdPsNV1aO3SjQmsYY0G0AAaQANoAA2gATSABtDApdRAKeZU+U0pjXEHjKkyGjWpGVOFwa8emTMBxlcXLpMUbjxj6oorr7NJ69q696QtGRAzG64sY39LNiM8a+xqu+KqG23EnM1W46ZA41lTFtX43/XKZYJdO9nWX+bZLB3RRVInbb92YyqhB43HjnU28yE3dm6w8dVny5Nd087PR9t9SNd+zdv9cwboVX1svLKjGprLBa1V2ejrc1rrdVuV1ZSs4fS2Ohoj98ETDaABNIAG0AAaQANoAA2gATTQ1RooZk61NqXun7ypjSV/pcV72RhT1/3iumDk9GprP6vaKhusbKmr+ljff5dBlTAiLsXEfMcs6xsytoqYHHXVNrp5ueHQhVnM0ilNoKV88XSrMRXTw643mw2eX4y11W7uxN4vpS95ZS6JMdWybLXgUte6FTbiKn0WSjF2yzeueSw6w5F7y2OUwhGOaAANoAE0gAbQABpAA2jgMtBAmjm1ybbo1/diS/3KZUpp3ndpjKm67VY1cmC0T9I11w60SctrranAxDvfaPBMlXgWU/PzW+a1mcHhGVO3T5tlI4LhNNJWFjENdr3WJxhY1z0/o3mfqXRjqmb5LBtxx4326zBhv9p6/fxGGzyyyrYcS0zMaxfb0OZJfetMGmVn5bJRrhtRbQ3NH/L1zzebaMNbrqVN0ndNuzGXNTWiuvWHY986mzm0ZW+qgvGFNp3xWFvdeNK2LBhrg6+9Jlf3Vb+yvkPntfTr2GabP7RP1O9rru1nI+Zsj2KP4oyP7cFqmz7Q7+llv/7dSJu/obWZFo1V6h5ltTb/lrhR6DGXqIuD4uExXG3S4PgFm9uxd5K3l66H0O/G7Tazdy6eVJPn2GarGjfEbne2V15jvbWHkz4LsS9413/r/dwSbYexmmBDb77BrmleeqrxGPpydTv2HyuhX00XbPWIXL/S9o+rqZ5lI6IYetmvry/M1vuWnvXosYy11TEerosBb2+3LXNGWt+f5z4z+XWctV2LZtjQ3/2qeflr8TgC705rIvFZj8UcH0+ewwkNoAE0gAbQABpAA2gADaCBbGmgtTnlv9qnczlNKXHpemOqbp2NvzbFPLiylw24rXlj8kQWU/7k1SerKXW0x5ias91WDs9NaFNNA00qo03P+9jMHd5u0gzYa1X9m02bZjMgz0D42UCrSmyWfmzhkNxkObHsrqF6rF3nZpkv1WvabjNDptbVNvrTjn14G6on2E3NhllebGpL8bXal6qlr0Mf0MbzKawV+44qGxxtwp5fpveLm/PMlch0vKW/DUiNpfXm9m5ApJkfTU0dN6Ya1k22vqkxXG29bptnu0paCtnCqNhm+McWDMzxG7DYjsWMiqJjcmUvu+n5dZG55/pvPQ4xLepz1bzErnW5q63X9ZNtfREDtuVL0TOmetmIpe1dglh8b6pr+le1Yut9yzeVXOfOON2Yuu7aG/L2XIvqaNxrSwrp9sr0MS6PJjxuzi16ggUs0AAaQANoAA2gATSABtBAZWgg3ZwqtyklVl1sTJ211SObs3+uH2tLdjdPfJuzciLzpKgx1SLq4pPalnJxEeSZHesm54ygApugR5ue96+yY00+SY6ZAU0XTCZTMAJ6j7WVO1om8g27q6N9n1ovF6y1qttyplhkukTZNb0sbylew4pcZldHlxBGGVq9rO+4aqtxc6J2s833yXvCIGuK+nq1XXHtozZ/XXM2k/YYWjcrz1jq9bsJtjI2juun+f5EiUw0z5i6MhfHLjfe6vbakuHN5tdVQ2xJbcu45Y1VzNTJjWfSmGq5r6guomVoN9jQOS0ZUvHxisakVZstbbQwytdDXGvh+dZZdlMwGyfY+qg+N3+us6Fvbo7t4XTS1s951HoHIzClXmeY+HyonfUv5j5X1w2YZ+sPtujw2Lp5NrTZCC6tXxds17RclqDvZ1bqL/BFhqv2plq+1xqaDb54DEnDsuhYRTpMN6auuDJ/DJ296yZPu/qsbm3ZH6vva3tbjNOyaSKuD577eHBGC2gADaABNIAG0AAaQANooBI00HpPKWVLDZu2pSz7SsU10gFjKj9TJpmtEWUxaFJ+bLENDZPugVYVMyA8gIZFj+ZMnsTEu9DktdB1ry/t7JPW3CR9b/NSK2VEJYVyNsqoymWOpBtTaW1E19z4+veUX//bPc9uD4bFSFtZd8E8rlYbSu9rLtdBYyoyLGJLA6P4Gvfa/GaDLD9rzPt6o03fnOQi46J5yeCVaePohtF1NmlD7F43VR5YEWUCRXFE2U9XW9w8cSbxa63vaW3gFNOFL828/c2YMeGGke8nljZeXiY6O6PW7bfEeMGaovHLN1fyykR1itdJq+qf+0y1ylhyhonPR+G6cvyjrK2haexjY+RxNJ7M/1W+q35lA4bOsqrq7UWWOraYbaM/bTHGoth2z2s2NPM1U2ysWsy/fHaui+ueT2TlKf54luPWlL75fm2/nxf9Imf5NJHSnjPl3GIEwgIWaAANoAE0gAbQABpAA2ggYxpIz5by5XzlNqe61pj6dGzOeCo0QS4w8S40eS10PZoMp4g9mtQ2LzXzSXurSa6bFFd55k+JRkS8zTZMCc9M6T18bG7fqav62/zksrqojjYMkHi70XNfBphmvDVPoqvH5pZD5S01a6OvPk4Flk6mjovfU8BUaVg6spU2fKzKZ0w5Dx/TpJHgptoQW5LcGyxi6ve0wcjLR+OXb64U06jza9XvNhgWrNPvKzBehe7Trz1OuqNlv6qc6XyN3Z62d5pnhhXIPlQbq0fmsgTjGYHe1zwD29m1kTHVio/u29CcBZmnZx+ztHM5NZFWP9cK6YvraAMNoAE0gAbQABpAA2gADWRBA61Nqfsnr7GNM/M3Py+nOdUBY6p0w6S40XChxM3PWwau+KS2pVxc7B7DFW6QeBZXZEDl7vMsisiwOlhlAwotsWq6YDXV82z8HTdGG7rnZ44VMCWi5Xu5DJnULJ7I2Cidc9TfxmobHWIu0L4m8t7/vCyhNkyXNoyO1HHxe5x7ZD40j5P3M2ae+FilGhBRllVrLqntq72IR/Esv9J+ebENRt4/79eVKWNwbLsteXmI3X69b9CdH1erfrfFsPFkbsPvm1s24c/TYYxtpBGPs9i5oda2LJ9nkwb2iTZV1zK/vM373XQuNL6xZa83Tdse/d+BgmMV4nHG+eyK6cINzl7j1kVtFO1rWTWR/p1TtP1i3HmvtDGEE5zQABpAA2gADaABNIAG0EAXaSDNlNrUvHSv9XvlMqcuP2OqqWXJXksmhy9LimUaRQZD0ggpvuFzzhjIn1jHJ6rHPmjeo+rKAlk6ndljymMuakikTf79WrKvzRNvN0gK1JtqNvg9hYyLlFiLGRCtNz9vMQVS29cXlbcRzLp8EyjPwClp2WQbjPyL0TOJksbU7sIbx3ss7TKmGtvYhF99LjBecT22+bxhr60c1yeXZRfbE6z4WCV0E9NAwbEK/Jxx/uenWFvF3kvtW1k10aLB1LZcE5y76B9N+KM7NIAG0AAaQANoAA2gATRQPg20Np5ab3Teukw5zKnL0Ji6YE2+F1TY5DzltSaS0QQ236yJNkj/WT+btGi71fim3nn35E+sI6HUVdvoX7QYJL3HtfwSW1SmyU2yDvwqn2eDXBXfeDvxQfVMsF9Mjm3O7YZAfl+jmNxkKmB0pJoNfk/MlIjqi7OK1VncZPBld61jTG1fbbjJl9fXBA+VK+nRBqPmOnyp6BV5S8t8b7NedtNDs2z1jpPRRuFq2+NvjzHlGX69rn/UZlbvbdlQXXE4+xjb0vpYiEXLPlgD3q7N8WrOmCqWqVTzdu5XN6+L/WKj97VcS/k8YyreRtG+llUThXhxvegYlPR5gyEM0QAaQANoAA2gATSABtDApdNAa8OptSnl49G6bGfNqS41ppp8uc+I6vTJv0+gE+ZFoclroevFBsvNjmgpX5gUuVGgDCnPoOplo5fHNnEuYEx5DK02qla90T1pxtRZWz8u92t0vUfOsPHhl9NuyN8wvHnC5nvz9BpenbJxuIshtil5xNf3z2lt3kSMevIeU81GRnzpVxR3R5byRSZfER4lT5JLMKZiSzXzNpd3XeQtn2wZR9dU6caUm3Q32sy0Db/9c1WCMeWb5ed/Plpic/6tYvTMsCJtuI5bMhMv2PpxuX2nUj8/l2SPKTd+y6GJ1pycF2fYoAE0gAbQABpAA2gADaABNJANDbQ2mgqbUj6mre/pjDnVtcaU72cUWwIUH5gou+SSG1MXzNu+7qFHbbCWPV011lY3/9x9iNHNhMQyL5+gj/7UB6Tl3PDpWLuuwB5PDWsnWG+994uxtrrhginTo5dea/PoeLsySjZMzpW98ob8fX3iJkqUfZVvqLnR0HtkSjZWm7/KV2Cy3obR4UzysmD8njZ+lS/PwPF70jbLr1thI65StlnrGFPbT5h8qTyaLljDuhW2+mDLGMb1mf+8LWPqrK0emTMefYyj+11LsV+Gi97TmNySy6JrvzHVr/Xm+U0XbNebuUylUpbyRRmA0mU8+y+utZjh1mIyucFTQKMFfpXPjeJU83HrLOub8vnxe1rxUYzRr/Kl/JCA3k/5VT43zDqviVJ0Q5lI63FN8Tz9f9bABS5oAA2gATSABtAAGkADl1oDNR/b47cOs/b/4l7SnHrJFtV0bP7TtcZUkybr14VfX+t1/Vhbsrs5I6nxpG1ZMLLZfLnaktkahYyGXdNuDHVdN6I69zP2SUMnZQB9UptsI9oEPEyEr7Zo03Ovw82EhBESLaH63QRb6f3RZtGLJljfYJzIZEhkTGnyHDKkellLpshJWzIglz3SN7Y5dG4SFzM5rupj4xdtb1mq1XjWarausPG/y93bytiqXZz7xb8re1nfcdVW09AsjNrNNv+BZuPk2gm23q+H/rZhurhhVCA7JnW8/J7mOHa56VG315YMb45DG9D7dcXhRuaVN9joRXuj5W76tbiov4nxEK+iuthXZQPCuPSym0ZU2ZbaZh4NtbZ+zqN2k967foZt8XEveC7AqHk8Jt18Te5XBtPMxIZqGx1iuMGGztmc065MsR3rbKaPyZVXWyvjxbOSfjHWVvqvBgbNe5bf1db7gXm23vtUt9dWv/Zoy+eqwHjlGQUxs/KKa1svC8yLMTFexxYOad57qo+NXx4br3XzbGjQ+9XWarmq/4reVf1t5rqTuX90xLB6VnRP8vPjn+FWfJrHyt9X/PNjdR6L4uhl0RJE3VM2TXTsSzePf0G9UTec0AAaQANoAA2gATSABtAAGrg0Gqhb85bd32+YtT/ryc2pJ23653UdNhU7YEy17JHkmzYnz3kTyLp1zcvWkvf1spv697ebZAyVmDEV7Q3VbCaVkhESTVoTbTTFNkG/4srYpuc+USxgTDUV7M/V1vu25v5cOdJWxoyfXdP65EyLpFGwe57dHvqSku3RuNeWxEyLJGO9ltm3MiXbp6F6Qs5wcU7x888GWtXupLgLmC7Owk2mZPzN7xc1pm7p32wMJcf/BhuxtNmY8HaaWpY7turvVTdY77A/V+uMqbZ00VA9tsWsibPQ86tS2EfxxDk5o2Q/Yq9/1s+mr032KVfHrjn9cyZOSvsDmjOmWmURRdlA3kas71FGkr/n51424LbmjKkCSwdbfbnXbbbpkbHm9STOV/WxSetiS10Do+I/BHBN/6rW2YBNtVZ1W7OpmmRx7Q3N45Rv7PpnOO97JT5GbXxWeg9fEZmB3vfyaCKuD547W85oAQ2gATSABtAAGkADaAANZFADdac7aCydszN15zp4b45T1xtTmkDWbbeqkQOt989yk91rrh1ok5bXtuzJlDCNUo2O5onwljkjra/XM2Cx1cQnqCnPfVKbNL/CByW5CXr8/kLGlMoc29yqP+MXbLcG7ZHTnJ0TLWuLlif1Sd0PaP2LueyhXrdVpfalpnqejb/jRvt1qFdGyq/sppuH2HRlURXLGNtXbdMH9ouY9/r5jTZ4ZJVt8cybeF+jvX1ixkf8/c4YUxrbEEuf5j70sl//bqTN35Bu4DQ1nrT1rw2xvj9vNi9+dkNz3L7kLS3Gs9amLhI8rojqLfULo4Ax1Twek+ass5pi49F0wWqWz7Chv/tVc5bRr6zvwBlhGaFvEp5mtDZsnmcjejdnY/1siC2JG5GtuA6x6Z/WWpNvcJ+SXVbsHwhpbdLAfnaTs7+yl/36+n429OUVtitVNzl2oV8332DXBKNJ9wy08QtaMsNatSkjKfZ90OvnfWzoy9VW0+iM22lMBa2etV2LYnyvvMZ663Oi75m4luPPO62JUrVDuYJjEB8PnhfWKmxggwbQABpAA2gADaABNFDBGmiHMcXkislVOzTgZlbCdIRhOxhW8BcPOkAHaAANoAE0gAbQABpAA2gADaABNCANYEwx+e8a5xljqmu4ole4ogE0gAbQABpAA2gADaABNIAG0EAFaQBjqoIGs0e5zRhTfFHy2UIDaAANoAE0gAbQABpAA2gADaABNNCGBjCm2gDUo8yeLMWKMcWXT5b0SqzoFQ2gATSABtAAGkADaAANoAE00C0awJhCeF0jPIypruGKXuGKBtAAGkADaAANoAE0gAbQABpAAxWkAYypChpMsrvYOA4NoAE0gAbQABpAA2gADaABNIAG0AAayJIGMKYwpnCa0QAaQANoAA2gATSABtAAGkADaAANoAE00C0awJhCeN0ivCy5t8TK/21AA2gADaABNIAG0AAaQANoAA2gATTQNRrAmMKYwphCA2gADaABNIAG0AAaQANoAA2gATSABtBAt2gAYwrhdYvwcJq7xmmGK1zRABpAA2gADaABNIAG0AAaQANoIEsawJjCmMKYQgNoAA2gATSABtAAGkADaAANoAE0gAbQQLdoAGMK4XWL8LLk3hIr/7cBDaABNIAG0AAaQANoAA2gATSABtBA12gAYwpjCmMKDaABNIAG0AAaQANoAA2gATSABtAAGkAD3aIBjCmE1y3Cw2nuGqcZrnBFA2gADaABNIAG0AAaQANoAA2ggSxpAGMKYwpjCg2gATSABtAAGkADaAANoAE0gAbQABpAA92iAYwphNctwsuSe0us/N8GNIAG0AAaQANoAA2gATSABtAAGkADXaMBjCmMKYwpNIAG0AAaQANoAA2gATSABtAAGkADaAANdIsGMKYQXrcID6e5a5xmuMIVDaABNIAG0AAaQANoAA2gATSABrKkAYwpjCmMKTSABtAAGkADaAANoAE0gAbQABpAA2gADXSLBjCmEF63CC9L7i2x8n8b0AAaQANoAA2gATSABtAAGkADaAANdI0GMKYwpjCm0AAaQANoAA2gATSABtAAGkADaAANoAE00C0awJhCeN0iPJzmrnGa4QpXNIAG0AAaQANoAA2gATSABtAAGsiSBjCmMKYwptAAGkADaAANoAE0gAbQABpAA2gADaABNNAtGsCYQnjdIrwsubfEyv9tQANoAA2gATSABtAAGkADaAANoAE00DUawJjCmMKYQgNoAA2gATSABtAAGkADaAANoAE0gAbQQLdoAGMK4XWL8HCau8Zphitc0QAaQANoAA2gATSABtAAGkADaCBLGsCYwpjCmEIDaAANoAE0gAbQABpAA2gADaABNIAG0EC3aOBvjh07ZjxggAbQABpAA2gADaABNIAG0AAaQANoAA2gATRwqTXwN8YBAQhAAAIQgAAEIAABCEAAAhCAAAQgAIF2EGhoaLByPDCm2gGdohCAAAQgAAEIQAACEIAABCAAAQhAAAJWFlNKxhbGFGqCAAQgAAEIQAACEIAABCAAAQhAAAIQaBeBcmRLYUy1CzmFIQABCEAAAhCAAAQgAAEIQAACEIAABEQAYwodQAACEIAABCAAAQhAAAIQgAAEIAABCHQLAYypbsFOoxCAAAQgAAEIQAACEIAABCAAAQhAAAIYU2gAAhCAAAQgAAEIQAACEIAABCAAAQhAoFsIYEx1C3YahQAEIAABCEAAAhCAAAQgAAEIQAACEMCYQgMQgAAEIAABCEAAAhCAAAQgAAEIQAAC3UIAY6pbsNMoBCAAAQhAAAIQgAAEIAABCEAAAhCAAMYUGoAABCAAAQhAAAIQgAAEIAABCEAAAhDoFgLtNaZmzpxpaff8TbdET6MQgAAEIAABCEAAAhCAAAQgAAEIQAACmSWQZjIVuiZTyh/JMhhTmZUAgUMAAhCAAAQgAAEIQAACEIAABCAAge4hkDSYCr12Qyp+jpfFmOqe8aNVCEAAAhCAAAQgAAEIQAACEIAABCCQWQJxc6nQ87gZlXzu92BMZVYCBA4BCEAAAhCAAAQgAAEIQAACEIAABLqHgBtLhc5JIyrtte7FmOqe8aNVCEAAAhCAAAQgAAEIQAACEIAABCCQWQKFDCldTzOhCl3DmMqsBAgcAhCAAAQgAAEIQAACEIAABCAAAQh0D4FixlR73sOY6p7xo1UIQAACEIAABCAAAQhAAAIQgAAEIJBZAu0xn4qVxZjKrAQI/HIgUH/qvB2qPW0HD/OAARpAA2gADaABNIAG0AAaQAPZ0YDmMZrPcFQugWJmU3vew5iqXI3Qs4wT0Jf4ybpzdr7pgjXxgAEaQANoAA2gATSABtAAGkADGdKA5jGaz2BOZXxiWiT89phPxcpiTBWBzFsQ6E4C+j8MmFKYcpiSaAANoAE0gAbQABpAA2ggqxrQfEbzGo7KJFDMbGrPexhTlakPelUBBJSmnNV/gIibP57QABpAA2gADaABNIAG0AAakAY0r+GoTALtMZ+KlcWYqkx90KsKIIAxxT/k/DGHBtAAGkADaAANoAE0gAayrgGMqQqYnBboQjGzqT3vYUwVAMxlCHQ3AYwp/gjJ+h8hxI+G0QAaQANoAA2gATSABjCmuntm2XXtt8d8KlYWY6rrxoiaIdApAhhT/CPOH3JoAA2gATSABtAAGkADaCDrGsCY6tS0sEffXMxsas97GFM9epgJ7nImgDHFHyFZ/yOE+NEwGkADaAANoAE0gAbQAMZU5c5q3Xz69NNPrTMPjKnK1Qg9yzgBjCn+EecPOTSABtAAGkADaAANoAE0kHUNYExlfGJaJHyMqSJweAsClUAAY4o/QrL+Rwjxo2E0gAbQABpAA2gADaABjKlKmJ2m9wFjKp0LVyFQMQQwpvhHnD/k0AAaQANoAA2gATSABtBA1jWAMVUxU9RWHcGYaoXEzOrqzPr0MVu7Nu3dVtd27T5gd979pP3h1mHRo/89o+z1mVVWV9fQqnx3Xairb7DJr863O/+ci/XW2x+zx5+cbF+t22IXL17srrDK3u67Cz+xvrc9YouXVqfWrfcHDh7Xo8YmNdAyXexKY6q+/ozNe3eVvf/RWsv6P3Q9Jf6vN+yy12Z9bN/tOAjTJv6A7Cm6JA60iAbQABpAA2gADXS3BjCmyjRB7IHVYEylDUoHjSkZHn4cP15nL0ycbQPue9p27jrgl9t1njjpLXvyqSl27lxTu+5LK3z02Ekb/NBzNmLUK3a49rj99NNP9v33F2zpx6vt9rtG2HvvLw/X0u7N2jWNg0zCe+8fE/qajB9jqnz/qGJMlY+l/0OPMVV+ps6WM2zRABpAA2gADaABNJBdDWBMJWe2lfMaY8rH8qefzF580ezZZ802bjS7+Waz5cvNPv7Y7IknzBoKZz55xlTcmFK1P/zwo708ea49NGy8nTp12lsq+VxOY0qx3XH3E7Zz5/689mVQKcb7Bo21Eyfq897L6gs3pmROqW8ah/iBMVW+f4wwpsrH0v9IwpgqP1Nnyxm2aAANoAE0gAbQABrIrgYwpuKz2sp6jjHl4/njj2Zr1pgNG2b2L/9i9stf5h6//a3Z5MkdMqZU9Xfb99qf7hphS5Z+4S3Z8RP1eUvq+t35uE2Z9o6dOdMYynz51bfRkkBfHiiTSoeW3K36YkMwu07cOCUAACAASURBVG7pNzwsWXvw4efs6/Vbi2Y8TX/9vbDcUCZaW4eMnI8WfR6yvdS+liUurFoeMqz8Xi1R1HI4j8uvu0mnPujwvox/cVaoT0sePQb1V/1W/0OG06Ax9tnnX+ctK0zGcu+gMSHLq9jSQzfhlG2m5Yprv9rs4YVzmjHV1pjoRt2n9sVCZ8Ws+tW3Q4eP2aw5HwZWuq5MuVXV61uNydZte2z44xPDuCXHPS/IxAu1rXp1bu9RylK+PfuO2DsLq236m8vC4+0Fn9vuPbV5S8nOn//e1m/cbbPmrrBpbyy112d/Yh8u/srmzP80WsrnRpXq0nszZn4cyuoe3as6/I+Bs2fP24rPvgn1qD61rfuS7Xr5tHOpdST7t+D9L+xAzfEoFtV9/HhDXsxvvrXc1nz5XchY9LbV3qervrU35iyPGCz/9BtrON0Y1XW4ts5mvrXClny83v66dF3EYPbbK+2bLfuict7mB4u+jLjPXfC5LVr6NUv5WMKXpxPXH+fs/iHN2DF2aAANoAE0gAY6rwGMqfbOBLNTHmMqOVYyqCZONPunfzIbNMjs7NlkiVav3YxJMw0aGs7aQ0PH24sT5wST4vSZRnv4kQlhSd2RoydCXXv2Hgwmz/MvzMzL7knLmFr2yZpg5GgJnkwbLcebM/evwfzasnV3q9j8wmervg5myOQp8/IMJn/fzz/++KO9Om1BMFhUnwwgxTdoyDP2ytT5UXztNab+8sgLwbzxdhobz9uo0a8GDjKF1M4XazaFZYXvf7AiFPNY1PbefYdCmdVrvwl7ZHkZry9+1jjIAJNZp2y1ZMaa3o/vMVXqmOg+mUNjn30tZMApZhlpMqf++KdHbdKUt+38+abA6J13l4UMNRmTfsggU1waQ90rM+uRxyfaU2Omtrlc09vWub1HW8bU9p0HgzlU9dcvrb7+bHgs/WRDuLZte000Qd74zZ5gsixdviEYMSorU0Wmku8x5caUrqkOr091vzbzY9vcbMzIoPI2vt26PxhWx46fsvc+WG0yhA7UHIvaLfSPeKl1eP887iNH6+3dqtUmo+jQ4ROhnRMnT9u891aZDLmDh06E8fjy6x3BIJJ5phjONp4PxpUMOcWsJbbbdx4KRp04yLRSOTemZLQtW74xsDpZdzr0TW3WHqkL5WRmySCTabdz1+HAQPW+MfsTjCmMqaCRQtrneuf/sIUhDNEAGkADaAANZE8DGFPtnQlmpzzGVHKsqqvNfv97s1WrzP70J7M33zTTMr8iRzFjSpNXZe60tVfU7Lc+snvuH221R3JmlZpLM6bSwtA9uld1FDpkYslY8myeBe99bNoHK3nISNGSv5WffpX31voN24IhprOO9hpTq9dsyqtPGWTKxNq3/3B0XcsKp814N5g1Z86eC9lmdw0YafF7vYzMPpl+aYfMG8/Mkhkk42jO3EVR9pLejxtTaXXoWnJMdF9yOeT5pu+DwaalkG406l4ti9Q1GVQ6ZMQ9OuJlkzEow80P57px03a/VPZzMWNKZsvCD9fY3Hc+MxlD/g+0TBNlL+mh58nXXu7YsVOpGVMyeOrqzkT1yYyRKaO21KYbWO99sCYvI8nrLeVcSh3eP23QrvJe787dh4Px9vkXW8I1nWU46bqXkfH10ZKv7K13PrPjJxpsy7YDwTBavfa7qIzKbti0Oxh2Ouu1G1PvVn0RmVW6rowxmVUy+NLu0zU9qtdsw5jCmMrTmGuDc/b+gGbMGDM0gAbQABpAA+XTAMZU2aeKPaZCjKn4UDQ2mg0ZYjZ/fs6M0tK+vn3N9ufvyxS/Rc/LYUzFzRSvv1RjqpBJ5PX42TN8tMxMBpV+ue6xJybZgQO1XiQYKUmDTG965peMFR2F2nQWyaV8/lr3yph5bsKbbZp1MnXS9r5a+dm6yHgKwST+E2cpQ077TMmo2r5jXyhZqjEVr0c3Jl97s2njlOSjvb1kasVNNt3vpqLq7qqjmDGljCFlKGnZWfIfzWDWzPrEduw8ZPsPHAvL1z5euSmvnJtDyYyppBGkupU1pewgmVRuGMkM2rBpT94Sv2QchV6XUof3Lxm3jCYZTopb9SiDKi3meNuqQ0v4xCJ+/eixUzZ73srQP113Y8qZeFn9yp5+bU97SOmamIu9Z215OfaYKt8fL86UM0zRABpAA2gADaABNJB9DWBMddWMsfvrxZhKjsHFi9rIKXdVmVIXLiRLtHrtZkyauZCWMaXldx8t+izap0gmkR6e5eMNpBkeek9G0phnZoRMIL9XZ5Uv5ZBBdaDmiGnfKe1zpIwiLaPToTrSspG8H1p+pyyhpPHi7ToLN6J8jyl/rXJely9v9HuTZ8US71/8eZJV/N6kgaRfIdQv9PmSOb2fzJgqZUyS9XqbaeOU5OMc4n2IP0/Tjtff2XMxY8rNEs8civ+DLYNES/KU6VOoXHuMqeWfbgrL1HwPKV8GpzZk2FR9tDbsLxXfhyoeT9rzturwuNVG2kPmkfdB2VzF2lZZGVAyouKx+P1aCnjq1NmSjalC9WFMZf+Pprg+eM54ogE0gAbQABpAA2igPBrAmOrszLDn3o8xVYaxcTMmzVzwTCM3YXxJ3cAHxtr6jduiPZvSTI80w2PHzv129z2jbOr0BVZfn/ulv6QJ0p4uybQZ/NBzYZmZlpupTe17pKV08cPNpEttTGl/Ke9nPJ5iz9NYamniH/sNt8VLq0PmU9yYKnVM0upVHGnjlBwTGVPKUNO+V5f6KMWYWv1l/vI0/eOZZkwly7kp49lB/jot+yhpTKkN7cukpW1a0ucbpWsz8WIGUfIf9mJ1uDG14rPNeWZSvA6PuRRjypf1pd3fEWMqrT6MqfL84RIfI57DFA2gATSABtAAGkAD2dcAxtSlnkleuvYwpsrAupgxlfxVPm0krn2T4r/SpxDSTI80w0NL6ZIZTUkTpL1d0l5Kikmxaflc2lI+mUMyiS7lUj7Fdfe9T4Xsrvb0KY2lMqK0afmf73vKJrw0Oy9jqtQxSatXcaWNU3JMtJG8stOS496efnW0bDFjype6pS3lk5nzehct5Uv7w0D7WMng0ubfnlWVVq7YtWQdvgTxoyXrChpTnV3Kp6WJWqKopYqKjaV82f+jp5jGeI/xRQNoAA2gATSABtBA92gAY6qjM8Kefx/GVBnGqJAxpUwc/dJe/FfhvKz2SfJDG3rPnP1hSUv50jKa9Otu2jdK76UdnrX19NhprX6RzzcT972cSt38XBlVyqzyTDBv95vNO4IB40v3fAmbv/ZypWx+vnHTd2GZ4UeLPvfbwlmmj+8XlfdG84tCBtLuPTVhw3UtoYtnTJU6JoXqLcWYOnXqdNBBcgy031Y8cy6tP529VsyY8n2a2tr8/HRiM3T/x7ijm59r3yqZXsqi8rp0/qr5l/CU6RS/nva8lDpkVOmX7+K/hud1ffPtXtOv8el1V2x+7llk3p5nbykjStf8Vw5903Qvx+bn3fOHjvPnDH80gAbQABpAA2gADfRMDWBMdXZm2HPvx5gqw9i4sSHjQofMHi2RG/fc6yFDZ+euA1ErblCMGPWKHT9RH5byLf14dTBgkvsmzZ23OBhOMp78l9y0FE2ZN8s+WWPaK0q/BKe6ZLYUMqbUuPaQ0n3xJYDKIpJBpOvvvb88xK12Xp22wLTUUOaP2lBGkbKl9Kt+Mtv8UHz6Zb1t3+0N9+7dd8iGDn8hxOJGVCFjSssGtSzQOagd9UkMfL8rX2Kna6vXfpPX32GPvmRnzjR6KHnnQgaSxkW/Rpg0pkodk0L1lmJMKUAfgxlvLLTz55vCQ78WKP7KqCp2qG3F7RorVjb5XjFjSv/obt95MPwi3V+XrrP6+rPhsfSTDeHatu01kUHkRsrS5RvCr/SdrDsdfmVPeze5CePL4nRNdXh9yiZ6bebHtnnLvlCflt99sOhLm/nWCtv63YGwdO/goROmX/ObPe9TO3K0Pmq30B8GpdahPmiTdW1wrnp136rVW8PSQZlAql8GlZbiqX3FoaWrKqO9r778ekcu5sbz9uHir6KYVcb3uFJfVK/qKjVjyk0zZVvt3HU4MNBG8IpV7ZZizhViw/We+ccU48K4oAE0gAbQABpAA2ig4xrAmErO9CrnNcZUGcbSjSkZB/4YMHC0vT6zKmwSnmzi4KGjwZC5pd9w00PmjJataQ+itV9tjoqfOFFvjz85KdTpS+hk1rz/wYoo80fGkO5VVtaTT00JE+qogsQTbZo+4aVZduefnwx1qm3dt+qLDcH08eJqQ1lK/ut9amNh1fJW2VYyV2SyaPN09fveQWPstTfeD78+15YxpbZkLE2Z9k4wZtR3xaKMKxlIfngsqlttyMSZ/Op8q6tv8CKtzoUMJBU8fabRhj8+MS9jStdLGZNC9ZZqTKmdrdv2hF9C9LHXryLqWltHVxpT+sdxz74j9s7Capv+5rLwkEGTXE6nfZ+0EbqMFBlP2hNKhtOc+Z+2MqZ0Te/5vlG6R8ZW/B9iGTPaT0pGjNenfZ5kDMXLFXteah3x/qmtWW+vDIZTfC+r48cbgvHkMcsg27R5b95+VzKfPl31bfh1PtWj2NUHxeFxlmpMqbzalKkl7qpPbWrZIcZUx/9g8XHgDEM0gAbQABpAA2gADVSWBjCm2po1Zvd9jKnsjh2RQ6AkAm1lTJXzH2zPmErb/Lw97bi5I7Mm7aFMK5VpT52Uraw/TBhPxhMNoAE0gAbQABpAA5eXBjCmSpr+ZbIQxlQmh42gIVA6gSwaU/yRcXn9kcF4M95oAA2gATSABtAAGkADbWkAY6r0OWDWSmJMZW3EiBcC7SSAMcU/8m39I8/7aAQNoAE0gAbQABpAA2igp2sAY6qdE8EMFceYytBgESoEOkIAY4o/Mnr6HxnEh0bRABpAA2gADaABNIAG2tIAxlRHZoPZuAdjKhvjRJQQ6DCBS2lMtfWPCe/zBwcaQANoAA2gATSABtAAGkADHdEAxlSHp4Q9/kaMqR4/RAQIgc4RwJjiH/6O/MPPPegGDaABNIAG0AAaQANooCdpAGOqc/PCnnw3xlRPHh1ig0AZCGBM8QdFT/qDgljQIxpAA2gADaABNIAG0EBHNIAxVYbJYQ+tAmOqhw4MYUGgXAQwpviHvyP/8HMPukEDaAANoAE0gAbQABroSRrAmCrXDLHn1YMx1fPGhIggUFYCGFP8QdGT/qAgFvSIBtAAGkADaAANoAE00BENYEyVdZrYoyrDmOpRw0EwECg/gUO1p+3c+e+tI1/+3MMfDWgADaABNIAG0AAaQANoAA10twY0n9G8hqMyCWBMVea40isIRATqT523k3XnMKea+IOiu/+goH00iAbQABpAA2gADaABNNBeDciU0nxG8xqOyiSAMVWZ40qvIJBHQF/i+j8MSn/lAQM0gAbQABpAA2gADaABNIAGsqIBzWMwpfKmdxX3AmOq4oaUDkEAAhCAAAQgAAEIQAACEIAABCAAgWwQwJjKxjgRJQQgAAEIQAACEIAABCAAAQhAAAIQqDgCGFMVN6R0CAIQgAAEIAABCEAAAhCAAAQgAAEIZIMAxlQ2xokoIQABCEAAAhCAAAQgAAEIQAACEIBAxRHAmKq4IaVDEIAABCAAAQhAAAIQgAAEIAABCEAgGwQwprIxTkQJAQhAAAIQgAAEIAABCEAAAhCAAAQqjgDGVMUNKR2CAAQgAAEIQAACEIAABCAAAQhAAALZIIAxlY1xIkoIQAACEIAABCAAAQhAAAIQgAAEIFBxBDCmKm5I6RAEIAABCEAAAhCAAAQgAAEIQAACEMgGAYypbIwTUUIAAhCAAAQgAAEIQAACEIAABCAAgYojgDFVcUNKhyAAAQhAAAIQgAAEIAABCEAAAhCAQDYIYExlY5yIEgIQgAAEIAABCEAAAhCAAAQgAAEIVBwBjKmKG1I6BAEIQAACEIAABCAAAQhAAAIQgAAEskEAYyob40SUEIAABCAAAQhAAAIQgAAEIAABCECg4ghgTFXckNIhCEAAAhCAAAQgAAEIQAACEIAABCCQDQIYU9kYJ6KEAAQgAAEIQAACEIAABCAAAQhAAAIVRwBjquKGlA5BAAIQgAAEIAABCEAAAhCAAAQgAIFsEMCYysY4ESUEIAABCEAAAhCAAAQgAAEIQAACEKg4AhhTFTekdAgCEIAABCAAAQhAAAIQgAAEIAABCGSDAMZUNsaJKCEAAQhAAAIQgAAEIAABCEAAAhCAQMURwJiquCGlQxCAAAQgAAEIQAACEIAABCAAAQhAIBsEMKayMU5ECQEIQAACEIAABCAAAQhAAAIQgAAEKo4AxlTFDSkdggAEIAABCEAAAhCAAAQgAAEIQAAC2SCAMZWNcSJKCEAAAhCAAAQgAAEIQAACEIAABCBQcQQwpipuSOkQBFoTqDl0yjZtqbUNmw/zgAEaQANoAA2gATSABtAAGkADmdGA5jGaz3BULgGMqcodW3oGgUBAX+L7D9bbDz9chAgEIAABCEAAAhCAAAQgAIFMEdA8RvMZzKlMDVu7gsWYahcuCkMgewT0fxgwpbI3bkQMAQhAAAIQgAAEIAABCOQIaD6jeQ1HZRLAmKrMcaVXEIgIaPkeBwQgAAEIQAACEIAABCAAgSwTYF6T5dErHjvGVHE+vAuBzBPgCzzzQ0gHIAABCEAAAhCAAAQgcNkTYF5TuRLAmKrcsaVnEAgE+AJHCBCAAAQgAAEIQAACEIBA1gkwr8n6CBaOH2OqMBvegUBFEOALvCKGkU5AAAIQgAAEIAABCEDgsibAvKZyhx9jqnLHlp5BIBDgCxwhQAACEIAABCAAAQhAAAJZJ8C8JusjWDh+jKnCbHgHAhVBgC/wihhGOgEBCEAAAhCAAAQgAIHLmgDzmsodfoypyh1begaBQIAvcIQAAQhAAAIQgAAEIAABCGSdAPOarI9g4fgxpgqz4R0IVAQBvsArYhjpBAQgAAEIQAACEIAABC5rAsxrKnf4M2NMvbvwE/vDrcOiR9/bHrEHH37Olq/80r7//kLljlBGevblV9/anXc/abt2H+gxEf948aK9PHmu3f/gM3b8eF2n4yp3fZ0OqMQK+AIvERTFIAABCEAAAhCAAAQgAIEeS4B5TY8dmk4HliljKm58XLx40bZs3W0P/uV5Gz1uujU2nm83jHPnmuzJp6bYxElvtftebsgn0BONqfwI2/eqkrTBF3j7xp7SEIAABCAAAQhAAAIQgEDPI8C8pueNSbkiyqwx5QCOHj1pg4Y8YzPeWGg//fSTXy7pXEnmQ0kd7sJCGFNdCLeTVfMF3kmA3A4BCEAAAhCAAAQgAAEIdDsB5jXdPgRdFkDmjSmRmTtvsd1971N2oOZIBOr4iXqb/Op8u/PPT4blf/3ufNymTHvHzpxpDGWSSwO1TFDXdDSeO28zZ39oAwaODvfeevtjNu65100mWLHjhx9+tPc/WGH97xkV3TfmmRl24EBt3m0HDx0NWV639BtueowY9UpeGTfMlM2l537U1TXYwMHjojj99SOPT7THnphkWt7ofdDyxrfnL4liUUwLq5a3Wva4ddseG/74xHBvkpG3mzyL4ZSp75i4KH61/fqb77dayiceHy363Abc93Tgce+gMbb049WmbDc/zp9vstfeeN/UtsZAZ42bxi9+7N5TE9pJY+a8HhjyrD09dlqIybPgdBYzsdIhPopDmtFZbd5x9xOBlS8JLaaNZH2qU32YNefDUI/qU72fff51Xj9V532DxtrKT7+yh4aND7zFT4aq7m/r8Jh0bu/BF3h7iVEeAhCAAAQgAAEIQAACEOhpBJjX9LQRKV88FWFMbdy03f74p0dt9ZpNgczpM4328CMTguFz5OiJcG3P3oPBoHj+hZkmw0SHGxpuYuiazIlnnn8jZGHpHmVhySR5dMTLwcBR3WmHys2ZuygYQVpiqNcqq/ZkSHgcMlhkEk2a8nYwJGRK6L677xllO3buD1V7XKUaU3+6a4R9sWZTZISof69MnR/6sHffoRDLtu/22r33j7FXpy2wH3/M9X/tV5uDmbTskzXh3kOHj5lMrqfGTM0zxOL9FZ+xz76WV7fMrT/f91SeMaU21Jay2RSDzKjVa78JRqHMOx2KU3wGP/ScHTx4NFwTJ7HWw5dniov4vDVvcRgfMZv++nuBo3g6L2lgYdWKaHxVYdJIcoNHZqDaUlwykWQSaRw8687rjGsjrT6VEy/vg+r7ev3WEO977y+P6vN2tfTUx0TltDxV5l1bh9+PMdUWKd6HAAQgAAEIQAACEIAABCqRAMZUJY5qrk8VYUxpw21N8NuatM9+6yO75/7RVnskZ1YVMh/ShnvlZ+tCNo9Mp7TD65rw0qzIIEqWk1kz4aXZrQwumT3K9NFDz72uUo2pFyfOiQwQtSmjTplH6zdsywtBBoj3X6aPzJ/JU+ZFRpUK6x7dqzrSDn8/WfcnK9bmGVPfbd9rdw0YGZmFqkumz7QZ79pDQ8dbQ8PZkMWkbCZldhU6xENZZ87Gy9XXnw77i2lMndeIkZNDtpuX0TnNmFKG1M5mE1BlPK64geh1tmVMfbbq65ApldSFWMuA3Lf/cAhH2hTXbzbviMI73/S9jRr9auif+tlVB1/gXUWWeiEAAQhAAAIQgAAEIACBS0WAec2lIn3p27msjCmZA/EN1AuZD2nDoD2UtExL57TDTSeZEes3bsszirz8iRP1IXtKZkryWLL0i2DkKEvL4yrVmEqaJ6o/vnwt2ZZey5iRQeNZZl5Gpp3Mq0Imn+qWgaO+xI/kHlPvvLsstZwMPh8DN8c8qypenz9vKx6VK8RL76UZU96+t6Gzspf+2G94OMfrTLKN1ydDS6agsszOnD0Xry4sK9Xy0qoPV4brSe15YdWXHGd/r1xnvsDLRZJ6IAABCEAAAhCAAAQgAIHuIsC8prvId327FWtMKQPlo0WfRfsIyVTSI25KuKGRNB+0HGvVFxvswYefC3sB+b3FjCkNlUwl7XMU2vnzk/by5Llh7yhfHuaZXTKhkoeMHe0RJYPE40oaFr6nlJtG/joZv16nZQ/F23SjLd63+HNvI36Pnqtuz3iKv5c0plQuXl/8eXwM1N/+A0aGstrT6/WZVXb8eF1UtTNLGmhRgTIZU96Oj42PQRpbN/28jDK6khlPPjbKSNOBMRUfMZ5DAAIQgAAEIAABCEAAAhBoHwGMqfbxylLpijCmkntM+R5LAx8YG7KXfE+ppDngxkLcfJCJpL2BtGn68pVfRoaDGzk6FzvU1oaN35mW9Gnplswm32vIzQ9lDSUP1XupjSlvLxlLsddilZYhlGZMKRNKS+7aOrRnVPUXG8NyPe31pIf2zNLhzHqyMfXchDfzlkMqboyptkad9yEAAQhAAAIQgAAEIAABCJROAGOqdFZZK1kRxlTyV/mUuaT9jTz7xQelFGNKRooMFW2uHT9KNabi9yiLZuLkudEvBhZbyqclX4r5Ui3l055IMs6SjOLxpz0vdSmfyiV/KTGtvuQ1/eKfsr08KyurS/lcgyzlS44wryEAAQhAAAIQgAAEIAABCLSfAMZU+5ll5Y7MG1OHa4+HX5ub8cbCaF8nz7KJZyYpE2rm7A/bXMrnmS4yVuKHNvfWcrRCGVNuRCSXwCnTx5eu+T5Uwx+fGH6xz+uXgRXf/FzllIWTXI6nX80bcN/T0f5PHms840t1lrL5+alTp+2hYeNbbSqutrVHlmeZeYx+LlR3cvPzjZu+C5lPyV+cU8zbd+wL1fm+Tvp1wPih/al8uZzYlLr5eXLpo+oUG69LrzU+3bX5uesg3lfFlxZ3vExnn/MF3lmC3A8BCEAAAhCAAAQgAAEIdDcB5jXdPQJd135mjSkZJzJQtFxv9Ljppo20/XDTZcSoV+z4ifpgsiz9eHUwSuLmgBtFwx59yU6fPhuWY8kIGfvsayFrau++Q+EX9sI+SPeMKmpMKZ5Xps4P8ch4kRGmthWDDCDFpGP3nhq7+55RJiNNS9j0mDN3Ubi2I/ZLcfq1N2U0rapeH+o6cvSEjXvu9RCDm1+FjCmPxTcVVyxipXZ9WaFi0XI5tZGMRdeSvzLnbJN8vG5t+h5n6zHo2uq13wSO6oN4iLcyozRm+lU6LQ2U6aZDzBW3xkBt6RAXxf7WvMXhWuO582HT8cEPPWdHj50suCeX7k0zpmQwKg7Fo/3EPvv866ANjYP6oyNNG2n1aTnoU2OmRn1QfdJLknUyWy800hxfKcaU7lfcPvZ+fylnvsBLoUQZCEAAAhCAAAQgAAEIQKAnE2Be05NHp3OxZcqYim+gfUu/4cHwie8DFUdx8NDRYD6onB4yIpQFpX2V4hk6ynTyDct92VVdfYONf3FWMCtUXsbS2/OXBBOnmDEgI2Vh1XKTSaNYZfBMeGl2MKiSsclMi8d24EBtvEgw097/YEXI7lFdqlMGUikZU6pIsShmj+XeQWOCASPjJH5s3bbHHntiUhSLnutasUOm0pSp7+Tx0dLHuDGl+2VOKWNKbTuPya/ON/H1QyaT+iVWKqO9vfRa1+OHDD2PU3tQaXxk/OnwvcLSDJ40Y0oZU6+98X4Ul16LleKNH2naSNan8jIXZ835MBqrNNYYU3GyPIcABCAAAQhAAAIQgAAEINA+AhhT7eOVpdKZMaayBJVYey6BQgZRz42485HxBd55htQAAQhAAAIQgAAEIAABCHQvAeY13cu/K1vHmOpKutTd4whgTPW4ISEgCEAAAhCAAAQgAAEIQAACbRLAmGoTUWYLYExldugIvCMEMKY6Qo17IAABCEAAAhCAAAQgAAEIdC8BjKnu5d+VrWNMdSVd6u5xBDCmetyQEBAEIAABCEAAAhCAAAQgAIE2CWBMtYkoswUwpjI7dAQOgdII8AVeGidKQQACEIAABCAAAQhAAAI9lwDzmp47Np2NDGOqswS5HwI9nABf4D18gAgPAhCAAAQgAAEIveB1ZAAAIABJREFUQAACEGiTAPOaNhFltgDGVGaHjsAhUBoBvsBL40QpCEAAAhCAAAQgAAEIQKDnEmBe03PHprORYUx1liD3Q6CHE+ALvIcPEOFBAAIQgAAEIAABCEAAAm0SYF7TJqLMFsCYyuzQETgESiPAF3hpnCgFAQhAAAIQgAAEIAABCPRcAsxreu7YdDYyjKnOEuR+CPRwApu21NoPP1zs4VESHgQgAAEIQAACEIAABCAAgXQCms9oXsNRmQQwpipzXOkVBCICNYdO2f6D9ZhTERGeQAACEIAABCAAAQhAAAJZISBTSvMZzWs4KpMAxlRljiu9gkAeAX2J6/8wKP2VBwzQABpAA2gADaABNIAG0AAayIoGNI/BlMqb3lXcC4ypihtSOgQBCEAAAhCAAAQgAAEIQAACEIAABLJBAGMqG+NElBCAAAQgAAEIQAACEIAABCAAAQhAoOIIYExV3JDSIQhAAAIQgAAEIAABCEAAAhCAAAQgkA0CGFPZGCeihAAEIAABCEAAAhCAAAQgAAEIQAACFUcAY6rihpQOQQACEIAABCAAAQhAAAIQgAAEIACBbBDAmMrGOBElBCAAAQhAAAIQgAAEIAABCEAAAhCoOAIYUxU3pHQIAhCAAAQgAAEIQAACEIAABCAAAQhkgwDGVDbGiSghAAEIQAACEIAABCAAAQhAAAIQgEDFEcCYqrghpUMQgAAEIAABCEAAAhCAAAQgAAEIQCAbBDCmsjFORAkBCEAAAhCAAAQgAAEIQAACEIAABCqOAMZUxQ0pHYIABCAAAQhAAAIQgAAEIAABCEAAAtkggDGVjXEiSghAAAIQgAAEIAABCEAAAhCAAAQgUHEEMKYqbkjpEAQgAAEIQAACEIAABCAAAQhAAAIQyAYBjKlsjBNRQgACEIAABCAAAQhAAAIQgAAEIACBiiOAMVVxQ0qHIAABCEAAAhCAAAQgAAEIQAACEIBANghgTGVjnIgSAhCAAAQgAAEIQAACEIAABCAAAQhUHAGMqYobUjoEAQhAAAIQgAAEIAABCEAAAhCAAASyQQBjKhvjRJQQgAAEIAABCEAAAhCAAAQgAAEIQKDiCGBMVdyQ0iEIQAACEIAABCAAAQhAAAIQgAAEIJANAhhT2RgnooQABCAAAQhAAAIQgAAEIAABCEAAAhVHAGOq4oaUDkEAAhCAAAQgAAEIQAACEIAABCAAgWwQwJjKxjgRJQQgAAEIQAACEIAABCAAAQhAAAIQqDgCGFMVN6R0CAIQgAAEIAABCEAAAhCAAAQgAAEIZIMAxlQ2xokoIQABCEAAAhCAAAQgAAEIQAACEIBAxRHAmKq4IaVDEIAABCAAAQhAAAIQgAAEIAABCEAgGwQwprIxTkQJAQhAAAIQgAAEIAABCEAAAhCAAAQqjgDGVMUNKR2CAAQgAAEIQAACEIAABCAAAQhAAALZIIAxlY1xIkoIQAACEIAABCAAAQhAAAIQgAAEIFBxBDCmKm5I6RAEWhOoP3XeDtWetoOHy/NQXaqTAwJoCw1AAAIQgAAEIAABCEAAAp0hgDHVGXrcC4EMEJBxcLLunJ07/701NV0oy0N1qU7MqQwIoAtDRFtdCJeqIQABCEAAAhCAAAQgcJkQwJi6TAaabl6+BJTdVE5Tys0t1am6OS5fAmjr8h17eg4BCEAAAhCAAAQgAIFyEcCYKhdJ6oFADyWg5XtuJpX7rLo5Ll8CaOvyHXt6DgEIQAACEIAABCAAgXIRwJgqF0nqgUAPJYB50EMHpgLCQlsVMIh0AQIQgAAEIAABCEAAAt1MAGOqmweA5iHQ1QR6onnw3nsf2hVXXh09/tf//rndcedAW7FylX3//fddjaRg/bt377XfXH+jKT6OtglkQVvSmfR1yx/726JFy+yHH39su2OdKHH+fJMNHfakvfDiK52opX23njt33h7+y4jw0HMOCEAAAhCAAAQgAAEIZIkAxlSWRotYIdABAuUwD86fv2CnT59vtSRQdXfkkPEjA0hGkI6LFy/a1m3b7Y677rcRT4yxxsZzHam20/dcTsZUOQyUcmir0PLScmlLopAZ9eln1UFzkyZP71JzqhxciwnZNfrVV+uLFeM9CEAAAhCAAAQgAAEIZIYAxlRmhqodgZ4/bzZkiNn8+SXfNHHSW/aHW4elPu68+0nbtftAyXW1VfDHixft5clz7f4Hn7Hjx+vaKs77nSTQWfNAptSuPSds47eHbe/+OtNrNxPKaR6om8eOHbdb+w2w6TNm2U8//dTJnrf/dp/0Xw4ZU+UwUDqrLddR2rnc2pIaNK7X/nNv2759V/vFUeId5eBarCnXKMZUMUq8BwEIQAACEIAABCCQJQIYU1karVJj7aAxNXDwOKurayi1Fcp1gsC5c0325FNTTIZgVx+dNQ/219QHU2rD5sPhvP9gfZcZU2Ixd+4C++3v+trBg4ciNMp40TKsG//7j2H53//0ud2WfbwyZFr9+ONFe/a5idb/7gfs9Okz0T1+/f5Bw+zs2bPhukyDmbPetn/9zX+F5V1aPrh+/abIBPNJf9KY2vbdDhv0wLBwz9//4jf2zLMv2omTLaaqmxHK9pr8ygz71bX/EeK8rd89efXX1dVb31vusimvvhbqUF1aaqb+VFevDVljDw551P727/4hPMY984LV15+K+qQnbfVBhoWy0bQsUsu70upS/+JLKfU82ee8Rgu86Ky20gwpv9YVxtSuXXvC2Fd9sCj0SH3+x1/9WxgLaUJjozHScehwbcjec35iWVPTokmVkXkq/WicxbD3f94cxvbe+x6KlvK5NrS8T8/9cC3EuXt90qWWH8a15vXEx82zDv29ZBtt9cHvGzvuBVv4/l9D/KpfnzPpsTvMYefDGQIQgAAEIAABCEDg8iGAMVVJY/3uu2bDh5utX2/2wANms2ebrVlj9thjZgcPFu2pDBKMqaKIyvpmVoypuCklY2rTllo7crTlV/66wjz45pst9n/+77W2Zu26wFwG0ytTXguZVPv31wQzau2XX9v1//bf9n5VzmCQGaNMGC0H9ONkXX3YV2jW7Hnhkibhjz72dDBrZCrJ7Prgw8XBxPHskzRjSu/JvHhnQVW458yZM/b8+El2+x332fHjJ6K6ZQrITJjz1jvBgFB7L02cmheXmxGKdfWar0JfTp1qsEeGjwz3/teNt4Q+yBA4dOhwaEOmmxjoKKUPilfmgura9M23wVzYu29/MF1enfpGZDa4KdGZvZAqwZgSq5FPPWsaBz/27N0fTBqNnzjpoXHt/ds+tnPnbi8W+EobMlO1N5rKaamgdOBcnXPSNHItxI0paUJm0yeffBppQ7Fpiasboa5R16zrQvXH2yilDx6bx6sltOrH7DnzQ/8PHCj+70YEgicQgAAEIAABCEAAAhDoBAGMqU7A63G3fvut2ZgxZtddZ/bLX+Yeeq5rtbVFwy3FmFI2lcyrWXM+shlvLLR+dz4elv49+Jfn7dstuaUxR46esPsGjbXpr7+X155fn/3WR+F6sr13F34S6hv/4iy74+4n8kyyg4eO2uhx0+2WfsPDY8SoV+zAgZb+uMnz3IQ3bWHVcut/z6gQ14D7nrZV1eujibjHP3X6AlM7t97+WCh376AxodyWrbvtsScmRe08/8JMq6tvmawqcE3kZs35MMTY97ZH7MGHn7Ov12+N2vjyq29NSx+Xr/jSFKfHHK9LfU0um9S1Yoff01a5tDo6ah4crm2wjd/WmgypXLZUremaZ7To3BXGlE+8fcKuZVf/9h+/j4wq9VHGjUwWz5JKmlAqI4NLk3w3q1atWhPqUf1+aBL++Igx9uTIcXbhwoWw55Xu8bY1UR/84HBT5lJ802yZGDIL3OjxCf5DDz9u8c2nvZybS25GyNiKZ6Mo60bmgAyO+CEz7OY+d0SmRCl9cGNqxYrP41XZxJenRrz0hsfsBkpe4RJfdFRbcQ0Vet4V2lLWnUxPaUOHxlmZUsqk8sMz7ZQhJxPSD9eK9KLnyddeTll7993/l3YbU7pPenZNeX0yh5SJ9dnnX4RL/vkoZkyV2gfXgOKNZxvKyNRnbumyFR4GZwhAAAIQgAAEIAABCHQZAYypLkPbjRUrc+qf/snsllvaNKQ8yqRR5NfjZzd2ZLa8PX+Jff/9BWs8d95kusicqq8/HSbb2j/qkccn2pmzLRtYr/1qs/3prhEm80dHsj03XsY++5qdOtWyofbuPTXBaJo05e0wkdZEas7cRXb3PaNsx879oS43pmQUqV7FpNjmzP1ruHff/sOhnMevOL5Ys6k5I+G0jXz6VdO9f77vqRCfDIODB4/a4IeeswkvzbYfm3/FS+08NWZqMJyOn6i3H3740ao+XBmMKPVPh4wpmU6qa+Om7wKPPXsPBqNt2ox3IzPCY1a8pRzO51IZU8dPnLVvtsZNqcOm7KmkidAV5oFPvN0cSpozzksTdV/KpDF78aUpwUTyjdOnTnvTfBmf3pcZlDSOVJcyqnwJV7JtX/rlpoC3rbPq135YMp98gh/PWPGyMoS8nBtTSTPI242bDbpfDOJ9LKUPbkyl1eX9VN0eczIWj7uUc1aMKW2uL/NPBs+YsROCqZTk6/1VZpLMQM+08+s6y6iRYSPj5siRY3bT/+sXMuniZZJc/XVSG64F17kMVGVfJcctXreep2kl2UapfUje520lY/PrnCEAAQhAAAIQgAAEINAVBDCmuoJqd9a5Y4fZ739vtmyZ2dChZk8/bfbDD21GlDSK0m5wY+eZ598IpoyXUcaQso82bsoto0qaUCqnDKq4WZVsT4aLMqV2NptNukeGkIyh4Y9PtNNnGr25YDo9PXaa6SEDyk2eYY++ZKdP5/YSUmEZQncNGGlLluYyDTz+FyfOiQwilVP8MqbmzlsctaEn77y7LGR/nTiR23Pms1Vfh/riG8GrfcUx5pkZIRY3pj5ZsTavrslT5tlDQ8dbQ0MuPo+5VGMqr7J2vkiaBzWHTtk3W4+YzkmjSa9P1jXat9uORJlSypbatfdE3qbnft+lMKZknMT31Yk/d9NGSDShl2mgibv2lJIp5eaCT8Dj98afu2Hjk343C1RnPMMmjl5l3KTw+pPmg8qrnO+Z5RP+pBnk7SZNCd3rffQ24nHHn3sfVIeup9XlZRSX15eMJd7Htp4nteW6KMe5M9qKc/Hn2sfrr39dFplSPjbO1/vqY5GWLSSmymyTyVWoXJKrv05qw7UQ11oye8tjip+93fj4JtvwMm31IXmft5OMza9zhgAEIAABCEAAAhCAQFcQwJjqCqrdVeeFC2YvvGD2/PM5M2r3brM+fXJ7TrURkwyS5PIyfy2zRYcbO0kzRUaNlq95uRMnT9n9g8dFRo/MGJkyvoxPdaUZU8lf/5MhpGWB8fu8GzKbZDrJfHKTR5uJ67kfHq9nGfnrtuL3+3WfxxQycibOsREjJ4eMLC+js+Lz/bncmHIWXk51eRld85iTsXj5cp7j5kHtkdPR8jz9yt6+mvxf2TvVcM6+/e5ovim1J92UkvnQGfMgaQh4n5N7TMk48YwjL5N29uV8Wq6l5X8yg3wZn0/Ahz86ypqaWjSSrMcn9HGzQFksXk+8vMp0hzHVVh8wplrMvPh4pT2PG3/+vmsgLUsuzZhKlnOtueHnr7vDmErGpj7G+1BqbM6GMwQgAAEIQAACEIAABLqCAMZUV1DtzjovXszPkJJZVcKRNIrSbinV2JGJo+V8bhRp+Z72ffJlfKo72V7cBPK23fDyjCe/rrOMH2U5KdvJTR5vz8t5vOUwprwNN+uSZzederoxpSwpGVIt+0Ydtt37ToZsqLONTfbdzmPReyqj17peKAOmK4yp5K/yKevJM458bNPOvpxP+0W9/fa70TI+ldWeO/rlMd+TKu1+XXNTwo2pYkv54kv0Ck3wVWe8nGeiuGnhcXi78SwYvRc3TkrtA8ZU54ypYsvg9Gt+bkZmdSlfvA+FdOs69c+B65QzBCAAAQhAAAIQgAAEuoIAxlRXUM1gnUmjKK0LbvQks3zcQIpnCWk53933PmXa30lL5OLL+FR3sr1ixtTKz3K/zhaPqbuMqVGjX7XzTd/HQ8l73tONqfPnL4Qsqbg5JQNq554T4eGGlc7KnFIGVSFTqisypmprj9rv/+dPNn3GrGi5pX5Z7u9/8RtTJlT80OQ5/gtpek+mzD//63+GX6TzZXx+z5Kly0M9Gzbm9gPz64drj1hNzaHw0g0in5B31ebnHTGmFGApfcCY6pwxVerG4dosXybo482bobuekpufu6GY3N9Murvxv/8YzEfd252bn7eVzeV94wwBCEAAAhCAAAQgAIGuIIAx1RVUM1hn0ihK60J7jClfzqdfyVMmU3I5XrK9NGOq2FI+bTp+KZfyab8r/epffJ+oNEY93ZhykymXOdWyuXnckHJTqv5UcVOqnMaUfvFu46bN9oe+d9mIJ8aYb2Auxnpv0uTpYa+ltV9+HTatP3r0mD38lxHh18+0n5Qfvpwvbfmd6tQyOLWxY8euUM+evfvDMkFlU/3www+tMqZUr4weLTv84MPFIRb9Ups2Ib/9jvvs+PEToWnPPNH+Q3PeeifaqP+liVPt2n/uHS0F9EyUjhpTpfShVGPKDRj/RTa9bu8RXybq2irXuSuy8ZL9i2ekxd+TLnr/tk8wSDW2emhcdS1uhso0ldaU5adf6dP4SBva1yo+xvo1RZWrrl4bDFfpd9RTz4VyboKq/dVrvgpa++STT4M+lb0lnUu3/pnQvdqc/c2Zb4cy2tjd9Rc3mErpQ9p9isN1Go8tzofnEIAABCAAAQhAAAIQKCcBjKly0sxwXUmjKK0r7TGmfDmffp1OmVPxZXyqO9lemjHV3s3Pu3Ipn2JevLQ6bPK+fsO2PDyHDh2zAwdqw7WsGFMyDw7VNtimLa3NKf0an36VrxSDoTPmgW9KrfPf/t0/2N1/HmwrVq7K25zaQcucUsaUNrBW+V9d+x/28qRpVl9/youEs3T36tQ38pbxxQtoIj5z1tvh19lUj36lTa91XUcyY8rv3fbdDhv0wLCw8bWyt5559kWTaeCHT/Dvve8hkxml+FT/bf3uCYabl/MJf9y00Hverkyl+JFmnLTVh1KNKbUj80IxKlYt8WrvUanGlDgcOlwbTFJpUw8ZRJ5Z55ykN22E7gw17hp/6SA+xtLv+1WLTJubu+6UFRjPmFKdXt8ddw4MWlN9KuemlJdZvPjjoDFfVuj6ixtTpfSh0H2uU4wpH2nOEIAABCAAAQhAAAJdSQBjqivpZqjupFGUFnp7jCndr+V82gcquYxP7yXbSzOmVG73nhq7+55RNuONhVEWypy5i8K1Hc2/4Of7P3W1MdXYeN60lG/gA2Nt+459zRk3B23QkGdCNpUybko1ptx0818S1Otih/hoXyud23sUMw+OHDtt38TMqY3f1trh2oaSTCkZVx01ptrbh55evtAEv6fH3dn4immrFGOzWBm01dnR4X4IQAACEIAABCAAAQhkgwDGVDbGqcujlFGU3NDbX/sv07XXmKqvP20P/uX5Vsv41JlSjSmVPXjoqI0eN91u6Tc8PEaMeiXKUNL7l8qYUlsyIGbN+TBs5i4+2tRdr3VdR6nGlMrqFwUfGPJs4K6licWOrjKmZAwoO2rz1iPh1/q0xK+YWZB8D/MgN2oYUxfapZukjtJeo61i3wi8BwEIQAACEIAABCAAgcohgDFVOWNJTyCQSqCUrBZtcn78ZGnL9+ImAuZBDjnGFMZU6oePixCAAAQgAAEIQAACEIBAmwQwptpERAEIZJvAodrTdu7892XPaFGdqpsjl0mn/X2Se/xUOhu0VekjTP8gAAEIQAACEIAABCDQ9QQwprqeMS1AoFsJ1J86byfrzpXVnJIppTpVN8flSwBtXb5jT88hAAEIQAACEIAABCBQLgIYU+UiST0Q6MEEZCAou0VL78rxUF2YUj14wC9haGjrEsKmKQhAAAIQgAAEIAABCFQgAYypChxUugQBCEAAAhCAAAQgAAEIQAACEIAABLJAAGMqC6NEjBCAAAQgAAEIQAACEIAABCAAAQhAoAIJYExV4KDSJQhAAAIQgAAEIAABCEAAAhCAAAQgkAUCGFNZGCVihAAEIAABCEAAAhCAAAQgAAEIQAACFUgAY6oCB5UuQQACEIAABCAAAQhAAAIQgAAEIACBLBDAmMrCKBEjBCAAAQhAAAIQgAAEIAABCEAAAhCoQAIYUxU4qHQJAhCAAAQgAAEIQAACEIAABCAAAQhkgQDGVBZGiRghAAEIQAACEIAABCAAAQhAAAIQgEAFEsCYqsBBpUsQgAAEIAABCEAAAhCAAAQgAAEIQCALBDCmsjBKxAgBCEAAAhCAAAQgAAEIQAACEIAABCqQAMZUBQ4qXYIABCAAAQhAAAIQgAAEIAABCEAAAlkggDGVhVEiRghAAAIQgAAEIAABCEAAAhCAAAQgUIEEMKYqcFDpEgQgAAEIQAACEIAABCAAAQhAAAIQyAIBjKksjBIxQgACEIAABCAAAQhAAAIQgAAEIACBCiSAMVWBg0qXIAABCEAAAhCAAAQgAAEIQAACEIBAFghgTGVhlIgRAhCAAAQgAAEIQAACEIAABCAAAQhUIAGMqQocVLoEAQhAAAIQgAAEIAABCEAAAhCAAASyQABjKgujRIwQgAAEIAABCEAAAhCAAAQgAAEIQKACCWBMVeCg0iUIQAACEIAABCAAAQhAAAIQgAAEIJAFAhhTWRglYoQABCAAAQhAAAIQgAAEIAABCEAAAhVIAGOqAgeVLkEAAhCAAAQgAAEIQAACEIAABCAAgSwQwJjKwigRIwQgAAEIQAACEIAABCAAAQhAAAIQqEACGFMVOKh0CQIQgAAEIAABCEAAAhCAAAQgAAEIZIEAxlQWRokYIQABCEAAAhCAAAQgAAEIQAACEIBABRLAmKrAQaVLEIAABCAAAQhAAAIQgAAEIAABCEAgCwQwprIwSsQIAQhAAAIQgAAEIAABCEAAAhCAAAQqkADGVAUOKl2CAAQgAAEIQAACEIAABCAAAQhAAAJZIIAxlYVRIkYIQAACEIAABCAAAQhAAAIQgAAEIFCBBDCmKnBQ6RIEIAABCEAAAhCAAAQgAAEIQAACEMgCAYypLIwSMUIAAhCAAAQgAAEIQAACEIAABCAAgQokgDFVgYNKlyAAAQhAAAIQgAAEIAABCEAAAhCAQBYIYExlYZSIEQIQgAAEIAABCEAAAhCAAAQgAAEIVCABjKkKHFS6BIEkgZpDp2zTllrbsPkwDxigATSABtAAGkADaAANoAE0kBkNaB6j+QxH5RLAmKrcsaVnEAgE9CW+/2C9/fDDRYhAAAIQgAAEIAABCEAAAhDIFAHNYzSfwZzK1LC1K1iMqXbhojAEskdA/4cBUyp740bEEIAABCAAAQhAAAIQgECOgOYzmtdwVCYBjKnKHFd6BYGIgJbvcUAAAhCAAAQgAAEIQAACEMgyAeY1WR694rFjTBXnw7sQyDwBvsAzP4R0AAIQgAAEIAABCEAAApc9AeY1lSsBjKnKHVt6BoFAgC9whAABCEAAAhCAAAQgAAEIZJ0A85qsj2Dh+DGmCrPhHQhUBAG+wCtiGOkEBCAAAQhAAAIQgAAELmsCzGsqd/gxpip3bOkZBAIBvsARAgQgAAEIQAACEIAABCCQdQLMa7I+goXjx5gqzIZ3IFARBPgCr4hhpBMQgAAEIAABCEAAAhC4rAkwr6nc4ceYqtyxpWcQCAT4AkcIEIAABCAAAQhAAAIQgEDWCTCvyfoIFo4fY6owG96BQEUQ4Au8IoaRTkAAAhCAAAQgAAEIQOCyJsC8pnKHH2OqJ4zt2rVmffqY1dWVHM1PP/1k327ZZY89Mclu6Tfc+t72iD348HO26osNdvHixbx6du0+YHfe/aT94dZh0aP/PaPs9ZlVVlfXkFdWLyZOeisq5/eojYeGjbcv1mwyte2Hnuua3lMZlR8wcHTBuv2+Qu14e4pXcXf2+PKrb0Pfy1FXWiyr12yyW29/1HTuqUexL/Dz55ts6LAnw0PPs3hs2LjZbu03wI4ePRaFf+pUg/W/+wFbtWpNdK27n6xZu85+/vf/Yjr39KOurt763nKXvffehz0m1DStZolpd4NM+5yUKybGoVwkqQcCEIAABCAAgWIEis1rit3Hez2fAMZUTxijdhpTMoPe/2CF3XH3E7bskzX2ww8/hkf1Fxvt7ntG2czZH9qPP/4Y9cyNqXcXfhJdO368zl6YONsG3Pe07dyVbwDJmBo4eFyeaaVJ4YL3PrZ+dz5u772/PJhTikPPdW3J0i/s++8vhOuHa4/bqNGv2uCHnrOjx05GbSafpLWTLNPZ111tTHU0vnPnmuzJp6YEE7CjdZR6X7Ev8LTJfqF6v/pqvf3m+htt9+69eUVeePGVbjO2fvzxoj373MTw0HM/ZEj9oe9deWaVv8e5bQJZMaba7gklRKDQ5wQ6EIAABCAAAQhAIEsEis1rstQPYm1NAGOqNZNLc+XkSbNBg8zeecds2TKzm28227bNbOpUszffLBqDjKa7Boy0xUurW5VbVb3ebr9rhG3c9F30XpoxpTdlaL08eW7Idjp16nRUvpBhJLNr8pR5dt+gsXbk6Ak7cfKU3T94nL04cU5eFpUq8jbfeXdZVG/ySaF2kuU68xpjyqzYF3jWjSllSSlbStkgfvgk/NWpb7TSpZfhXJwAxlRxPll7N+1zkrU+EC8EIAABCEAAAhAoNq+BTrYJYEx11/idOWO2YIFZv35m//iPZr/8Ze6s14sX639xF4xs+uvvBUNIxlDyOHP2nD3y+ESb8NLsKGvKTaJ4xpTf9932vfanu0aEjCe/Vsww0pI1LRv8ev1WO1BzxO6+96kOZ/0Ua8dj0VJDZW/NmvORzXhjYcjO0nK/B//yfFi80JuLAAAgAElEQVTK6OV0PnOm0aZMfcduvf2xsKxQyxxff/P9vKV8YnDvoDE2d97icFZdyjx7e/6SkPEVr0+mzaw5H4b3VU73ffb513lLJWV86T2ddbgRtnzFlzZi1CshDi1xfP6FmVZXn1s2qRh0T/yRNjbxWPyetsrF7/Hnxb7A3Zi6f9Awe2vuAuv9nzfbFVdebTf+9x+tunptMHbcpNB1f2iZ1/Lln0Wv/bqyp3RoCdj/9Lnd5s5dEM56/19/81/29tvv2vfff++hBXP0/apFUbt//4vf2JMjx1lNzaGozKefVYclcEuXrYiu+ZNFi5aZYj979qxfsgMHDtrNfe6wrdu2R9dkwrbVjgqLx8xZb4dY/9f//rndcedAW7++ZfmqssbUl2eefTEwUgbZl1+uD+1NnZZvKMsMUByzZs8Lcfi9OvshFmLi3HVe+P5f8xip7LbvdtigB4aZYvrVtf9hk1+Zkddnry95jt8ntor7xMn8JcNa+rvs45WhP+qbxk0MpAFfyucamDR5uo166jlTXYpFMe3Zuz+v2UOHa+3hv4ywv/27fwisVN9f/7qsVZ/iNymGL75Ya3f/eXC4L429a1VLT/VcR5ypxl38kuMgHfzjr/7NpBXvh+vUY1AWoMbSx0ZnvV6xclXUF/Vn3DMvWH196+9dr0dnZZJKM9KO+lGIuziNeGJM6K/qFrO47lWXf46kCXHU+Hh9h2uPhHFy7cQ/s/F49DztcyIdvDxpml3/b/8d6k3TlTj45zben6T+4uOQbJvXEIAABCAAAQhAoFwEis1rytUG9XQPAYyp7uHe0uqJE2Z33GF27bVmb72lWU3LeynPGs+dtxEjJ9uYZ2a0MlK8uAyfh4aOt4aG3GS9mDGlMiobz3oqZhjFjanGxvP26IiXTftVbfsuf3mXx1LsXKwdv8+NKZk7bh6JgYwemVP19blMLy0jHPvsazZoyDO2d9+hMDncum2P/fm+p1oZUzKEZBop60sTYplNMrPmzF0UZdhoqd1TY6aG5YgHDx4N5WTGaamkL2VUjGnGlOpXu8pa0yR1z96DwVybNuPdvPrbs5Svq40pTaA1WW9sPBcMhNlz5odJvib7fvhkvZSlfJpQaxKtybYMGnH+fNXqMKme89Y7gYPY6Lkm1jIP9PrMmTNh8i9DR/cVO9yokPkVP9T24AeHh77oeqntqL5HH3s6xKxJu8ysDz5c3MqwUL/uuXeIyRjw+l98aUorg0y8rv3n3pFBlpy8q34ZPcr42r+/JsT53fad9vv/+ZO9MuW1sPxK9Tv3Tz75NHBUuzLjFKsbNCGQxH90nwyZdxZUhb6I7fPjJ9ntd9xnx4+fiEovWbo8lPP6tT/XY4+PDuOXNKZkisjEUuwq98jwkSHe2tqjoT6dFf9LE6eG2DTuX3+9MTBMjlMUgJmpbcXqdcuwkwbj/Hy8CxlTuufxEWPC3mKnT5+Jqle70pi03B5jSuP8XzfeYpu++TaMzd59+8O+W21l4q1e81Xob5znyKeetTvuuj8yBWXmKSbnpL6Fz8Jv+9jOnbuj2P1zpPvFO/45+j//99rofo2Hxlkm0vbtu6L79cS5xflLCwPuGRJ9PlXO+yfzTfXpcM1Ko4pZ7euzqtjTyqk8BwQgAAEIQAACEOgqAhhTXUW2++vFmOrOMfjhB7MXXjD7y1/MPv7Y7Le/Nfs2l3lTKCw3amTqFDpmv/VR3h5RxYwp3+tIJome6yhkGGmCL3NFWVLKltKxY+f+YEzJOBo9brpt2PhdNKkJBYr8p1A78Vu8v888/0ZevTKJZCZt3JTLilm/YVvIptI5fnyyYm0rY0oZUjt3tmR5eL98iaLu/2zV1yFTasvWlkmirn+06PPQ3337D4dmChlTajd+aAlk3Cx07sXGMX5/Z54X+wL3Set99//F4pN5TVL/7T9+b/EsJTdISjWmNEnetWtPFLo4a1LvppO3/cyzL4UJb1SwxCeagCtzK26eyViTKaUMET9KbUf7UqnP8f652aEsrgsXLkQT9eQG5mITN1HUtjJ34tlcPsn3yfs332wJ2U/xZYi6T7Hf9P/62ZEjx4K5pv5MfHlqZFSpjO5RhovqSDucQ9w8UDmZGzJI3FxJvva6ZH6lZUzJ2NI4+uFZSm56OIekOeLl23NW/8XBM858HAsZU6pb7GTYOBe/R4aVxrK9xtSKFZ/nhaxx0Kb68c9KvICu633n6+85p88+/yLa70nZZjKI/HCteay6LmMq+Tlqamqy4Y+Oij5Hfr/MVH22ZFDFj7TPSfz9+HOxdu3pums2qXdxlt59nL2cazteJ88hAAEIQAACEIBAuQgUm9eUqw3q6R4CGFPdwz3X6o4duV/j2749t3Rv4kSzJ54wayr862hu1BQzNJRdE9+8vBzGlP4P+tKPVwfzR7/mF5+cHj9RHzKY/Ff5ZPwsrFpeMKPLkasP8eVs8ee+NK5Qf71PXk5mnIylEyfqvfpw1vvxX/gTm/hrLyyj64/9hocliuqbMsi0JFJLI+OHL1+s+nBlVL/i9jh0jr/2e5Nj0tOMqfhkXzH7BN4zZnRNk85SNz/XfWlltcTpZ73+MSx18r2glH2xcdPmPE05t0JnN7ncMPJyMmyUsXPwYMtSwFLaUX0yXR56+HE7d+68VxfOmqzLABOTQhPwk3X1dssf+4eli7rJDQo3VXQteW+83rwGYy9k7MmYSBoDbtrExyd2WzAEdZ+MkOQhw0wZMDKlfJlbsv7k+Pvr5BI4N0lklOi5jAoZFmIpc6wzR7JNN5niWk0y1bj/9nd9o+V8vkTPjcpknR6fl1N9OpL1ejnxdi34tfjZeXo98ff8uRtIcW34ezKCZY7KGNZR6HOkcYhzUNm0vhX6nHh7yXOyvUIc3Liu+mBRqKJQuWT9vIYABCAAAQhAAAKdIYAx1Rl6PftejKnuHp8LF1qW7128aKZHkaOQURO/pRwZU3GTSM+1r9SDDz9nq77YUDC7RUv79MuAQ4e/EMwZ/TKfrhU62pMxlTTiksaU3o9nJHmbpRpTXp9+XdBNo7Tlks5fGVA6kkZU8rXHgTGVI+EGgGdiaXnQbf3uCcvGtNeNlsRpnx1NqIsdMlWUmaIsJz98Eq5f6ZMZFT/aasdNDy3fSnu4GVFoAq62FbubBb7cSWc/kvfKXEgzwry8zn5PWky6VsiY0n3xzKF4nbrHzY9C5dzk8Pr9ddKYUr265llEMrDfnPl2tG+S9oxS1pH4tnVo3GU0arlgvL/epo+RM1Z9zkdnHcpqUx0ejwypuEFaqB+uS68nWa/HLh6uBb8WP+u+ZIZT/H0997b8MxB/X/drWa0MXB1qLx6/lxWTOAddT+tb2ufE61CGlvb+8r2rnHm8vUIcvC3fz6tQOW+LMwQgAAEIQAACECgHAYypclDsmXVgTPXMcSkYVXfvMVUwsNgb2odkwXsfhwwkLYkrdJTbmErLcOqMMfXchDejDeS9DxhTN+YtdROXtElyoQl12qRcZoYyprSkT8vTNDFfuPCjouaUDCmZD5p4+9HWL48Va8dND8/88TqT52ITcL2nbB0t29LStvgyPtWTvFfcSjGm4kZFMp5Cr9WW9myKG2NeVmMTN6bSyrnxoLI6/LWbRF6XzrrmRpBfP3HiZBhD3zA7ua+Vl/Oz9lXq/ds+NuXV16IxTbbpYxQ3ZJJMVZ8MH5ly69ZtCCZVvHyyTm/fdan6dKTVq+viUS5jKi2bTe3Gx7vQ5yjtM5fWt7TPifqhz4L2N/tD37vCZ0+vvX8YUwEF/4EABCAAAQhAoAcSwJjqgYNSppAwpsoE8lJW052/yldqP2uPnLB77h9tnlmUdl85jalLtZRPG5nfNWCksZSvZUTTJsmFJtTxpXwtNbQ8UxaH6pPBE1+O11KiJSsmuY+PDAntnxQ3q+L3xZ8n21GG1dhxL7QyWOL36Hkhw0Lv+XI+/YKazJDkUq3kvaUs5fOlYWnZNcnY4q99CWCa+aF9krpqKV88Bn+uXwaU2eHZNX49fk7buylptJRqTPlyPpl+0pGba2ovWafHUC5jysdLY13oKLaUT0vj3DTU/YU+R2mfuWTfPHss+TlRvb4UL6mrZHtJzXqf/j97d/5sRZXne//+A89Pz69PdPSvHR3d0fe5Q3TH7YquWz1UV1TUU8OtKqvKcsIRGRQUVERABmUQEUWQQZwQQZTBwkJFHFFABEEZZJbhcJjkMMjkAb5PfBb13eTOk7mHk/sMmeedEadz79yZK1e+VrK78uNaa/vxDOVzEdYIIIAAAggg0BkCBFOdodw15yCY6hr3TGfVsDOFI0v+9H6bclZ+st5uuX1E+EU4/9CHqWk4WXTRfyXXr9sNHjLJTpy48ut2+ryWwEj7adjbDTc/ZPEJx/WZJgfXr/W9tvDqJNTRc9d6Hu+hpDpFF78m9YjSoknQe902vE1dumryc6+X17knDuWLD2nyoXY++bk/3EaDA3lpvqNorw039LV6JKnXik+8rO0+cbRPwu37al3refTrdBpGFp+MXBOBa5iZlrQHdX3mw/n0S24KROK9leLH1jL5uUI2DYeLToitcylIUy8z7+kSKhf5P7VOfu5zYcXDi/ZOfq6ASXNtKaTzRXN2KSRSmJK26LN4DzOvgx9XazDlIaOGpsXvo++++y6cJz6J+6ZNW0MPMw+U4m3l9da9WqnHVJpnlsnP49egutQSTCX9O/Hr8CAuGlzq/tUwzOj53CE+BxmTn7skawQQQAABBBDoTAGCqc7U7txzEUx1rndDzqYHCIVSmmR8+YrV4eFUD6hrP99svfuOthdeuvLz8H4yD3E8mNLxB5uP2viJz9ud/cfYjp37fNewrjWY0vxRmkfqroHjbP2GraEeXvaI0c/YPYMn2uEj35aVHX1Ty3lqDaYuXPjexj32nA0YNMH2fHNljiLVSeFYdLJzGWjOLNXv0OFjYb6sjz5eF37hb+68ZaXhY5pnaszYmWEC9KaDR8J+miBdvouWvFfaLz6nVPy9X288mLp48aI98dTLNuShp+zUqe/aDBn043zt9fY29O21rCt9gSc97KtM730RDY18YmvNGaThmmprLQqD9AtuChJ8bicdp2DgvvtHmIbYRX/mfu4rr4Vjdc/6cKLt23eGbepNomMUxqT1fNL5osOzVAfVTZOe64E7vtR6HoU5Gsqn4U2qj+qsuanUu0i9qVpbWysGUzqvHuQ1FCsesvhnMvHww+ul8vfu3R+uX2GThrRFhzKuWr02hCbPzp4T5mpSm8lQwx7j4Vf02nUehQx/WvpW+LepX4BTIBMfVqdATsP5Vqz4MFyzt4Hq6u3v94OCu+XvfhDKU/s8OHRUcG9uPhxO7UPyvK4yVLkqX+dJW+J10D2j+0B1qDeY0jkUuOjY+H2iz3T/aML9r7ftCOay79d/cNjf20braFt5vasFU9pP7SX3uKfuLZ8QXveV2tmdvE21TYa+6HzRoMi31xJMJf078eM98JSx2lv3otpV7Rs9nzvoHlWd1Z665+QX/cVH38/9/DysEUAAAQQQQACBRgpUeq5p5Hkoq/MFCKY637whZ1QosGnzThv28FTTr+FVmpzcg6nohOZ97nrU9Ot6Cn7iSy2BkR+jQGjZ2ytDryv/Vb7b7hxp02YsMP1aX6VF54nWKfraw6Ragymd5/TpMzZ95mshZJKHeoJp2KOXpX0U7CjQe+6FJdZvwNhwfr2fv+Dt8HAWra8eFufMXRr2V920v0IsPZz5Eg+i4u99v3gwpe0aFjhw0GOhDj400PePr7tDMKWHV5/Y2oeCqZ56sL138LDwIK8eM1r0QK0eU7Ofm1OaXFnv57+6qMxZPZ009E0PugoCFLZo8nKV6cuHH31i//hP/x7mDvIeL/4ra76PhsXFexX5Z1rXch7tpzZ/ac78Un1UL73Xdi3VHsD1wK/hhPFhfGnHql7z5y8snU8TUX+8clXZPaZjNRzu3kEPlSYV12tt8+W551+23/6uV6lnl2/XPgMGDglhmUKHCY89WWar/XQ/K5RQuKg20DUrMNH7eDA15MFRoQyVpQBOZSvYiS7qXabA4+//4Z/DPupBFb0mfa66qs6+6N5a8saykoPqIEMFlB4uqQ302t/r2LT2qPSrhSpH16dr0PXKXPep7k8PVtLKjQdT6mmlezY6JE7fzRqy6vNr6XOdz0Mpv+amg8024uGxpTaVmffM833aG0yl/TvxcrXW+b2d1FZ6LXO1a9xBwzDVFvpMbtOemV12PWle0fPxGgEEEEAAAQQQyCpAMJVVsPseTzDVfduGmnWAgAKeaFDVAafodkV2xRd42gN1VpympoMhKFIPHl8UNCx4bYlt2fK1b2LdYAHvMeW9lxpcfMOLU6+e315zU2IPuoafrBsWmPTvpD3VJHBqjxrHIIAAAggggEBHCXTFc01HXQvllgsQTJV78K7gAgRTndPAHRVMdU7tOUtcIE/BlHpfPfnU9Io96OLXx/tkAYKpZBe2IoAAAggggEDXCBBMdY17Z5yVYKozlDlHtxEgmOqcpiCY6hznzjpLHoIp/QqdhoVqvijNaeXD0TrLqIjnIZgqYqtyTQgggAACCORXgGAqv21XreYEU9WE+LxQAgRTndOcBFOd49xZZ8lTMDV9xnNhWKdPzt9ZRkU8D8FUEVuVa0IAAQQQQCC/AgRT+W27ajUnmKomxOcI5FyAL/CcNyDVRwABBBBAAAEEEEAAAeO5prg3AcFUcduWK0MgCPAFzo2AAAIIIIAAAggggAACeRfguSbvLZhef4KpdBs+QaAQAnyBF6IZuQgEEEAAAQQQQAABBHq0AM81xW1+gqniti1XhkAQ4AucGwEBBBBAAAEEEEAAAQTyLsBzTd5bML3+BFPpNnyCQCEE+AIvRDNyEQgggAACCCCAAAII9GgBnmuK2/wEU8VtW64MgSCwcXOztbZeQgMBBBBAAAEEEEAAAQQQyKWAnmf0XMNSTAGCqWK2K1eFQElgf9MJ23ughXCqJMILBBBAAAEEEEAAAQQQyIuAQik9z+i5hqWYAgRTxWxXrgqBMgF9ieu/MKj7K38YcA9wD3APcA9wD3APcA9wD3APcA/k5R7QcwyhVNnjXeHeEEwVrkm5IAQQQAABBBBAAAEEEEAAAQQQQCAfAgRT+WgnaokAAggggAACCCCAAAIIIIAAAggUToBgqnBNygUhgAACCCCAAAIIIIAAAggggAAC+RAgmMpHO1FLBBBAAAEEEEAAAQQQQAABBBBAoHACBFOFa1IuCAEEEEAAAQQQQAABBBBAAAEEEMiHAMFUPtqJWiKAAAIIIIAAAggggAACCCCAAAKFEyCYKlyTckEIIIAAAggggAACCCCAAAIIIIBAPgQIpvLRTtQSAQQQQAABBBBAAAEEEEAAAQQQKJwAwVThmpQLQgABBBBAAAEEEEAAAQQQQAABBPIhQDCVj3ailggggAACCCCAAAIIIIAAAggggEDhBAimCtekXBACCCCAAAIIIIAAAggggAACCCCQDwGCqXy0E7VEAAEEEEAAAQQQQAABBBBAAAEECidAMFW4JuWCEEAAAQQQQAABBBBAAAEEEEAAgXwIEEzlo52oJQIIIIAAAggggAACCCCAAAIIIFA4AYKpwjUpF4QAAggggAACCCCAAAIIIIAAAgjkQ4BgKh/tRC0RQAABBBBAAAEEEEAAAQQQQACBwgkQTBWuSbkgBBBAAAEEEEAAAQQQQAABBBBAIB8CBFP5aCdqiQACCCCAAAIIIIAAAggggAACCBROgGCqcE3KBSGAAAIIIIAAAggggAACCCCAAAL5ECCYykc7UUsEEEAAAQQQQAABBBBAAAEEEECgcAIEU4VrUi4IAQQQQAABBBBAAAEEEEAAAQQQyIcAwVQ+2olaIoAAAggggAACCCCAAAIIIIAAAoUTIJgqXJNyQQgggAACCCCAAAIIIIAAAggggEA+BAim8tFO1BIBBBBAAAEEEEAAAQQQQAABBBAonADBVOGalAtCoK3A/qYTtnFzs33x1UH+MOAe4B7gHuAe4B7gHuAe4B7gHuAeyM09oOcYPc+wFFeAYKq4bcuVIRAE9CW+90CLtbZeQgQBBBBAAAEEEEAAAQQQyJWAnmP0PEM4latmq6uyBFN1cbEzAvkT0H9hIJTKX7tRYwQQQAABBBBAAAEEELgioOcZPdewFFOAYKqY7cpVIVAS0PA9FgQQQAABBBBAAAEEEEAgzwI81+S59SrXnWCqsg+fIpB7Ab7Ac9+EXAACCCCAAAIIIIAAAj1egOea4t4CBFPFbVuuDIEgwBc4NwICCCCAAAIIIIAAAgjkXYDnmry3YHr9CabSbfgEgUII8AVeiGbkIhBAAAEEEEAAAQQQ6NECPNcUt/kJporbtlwZAkGAL3BuBAQQQAABBBBAAAEEEMi7AM81eW/B9PoTTKXb8AkChRDgC7wQzchFIIAAAggggAACCCDQowV4rilu8xNMFbdtuTIEggBf4NwICCCAAAIIIIAAAgggkHcBnmvy3oLp9SeYSrfhEwQKIcAXeCGakYtAAAEEEEAAAQQQQKBHC/BcU9zmJ5jqhm07Zeor9scbh1T8Gzlmup09e74b1v5KlXQNd90z3o4fP5lax0rXeVvvkbZz177UY2v94LO1m6xRZSWdc9XqjXbjLQ+Z1t114Qu8u7YM9UIAAQQQQAABBBBAAIFaBXiuqVUqf/sRTOWgzRTgdPcgKs5YazBVLbyKl1vv+44Opuqtj++vUFFtKqeOXvgC72hhykcAAQQQQAABBBBAAIGOFuC5pqOFu658gqmus6/5zARTNVO12ZFgyowv8Da3BRsQQAABBBBAAAEEEEAgZwI81+SsweqoLsFUHVhdtWtaMKXQRUP+tI4uCxevKBtGp/f9B4yzDz5ca4OHTLLrbnrQbrxlmM1+YbGdO3dlOKD34Jn4xIu2+I337I6+o0PZffo/Yis/WW+XL1+OnsK2bN1tQ4dPCWX1um24TZ/1mp0+faa0T6N6TGkooHpVzZn7ZqivzqVrvvf+x23T5p2l8+mFzj995mvh2q7vNdSGPTzVnn9xSdlQPln0GzDW5r36VlirrFt7P2zzF7xtFy58X1aebObMXRo+13467qOP19mlS5dK+8XbwIOw997/zEaMfsZUD/09PvklO95yZVij6qDyon/aVmnxY6rtl1QGX+BJKmxDAAEEEEAAAQQQQACBPAnwXJOn1qqvrgRT9Xl1yd6NCKYUgijM2fNNUwiZ1q3fEgKbN5d9HK7JgymFVjrfmbPnQlAzd96fQ0j1zd6DpWtfs/arcOzyFatDSNN08Ig9OHyKjRk7szTvVaODKYU7Hh6pbgp6dD0tLadCvRQqjXvsORswaELpGhWe3dl/TJtgShYKjQ4dPhbqr7BJQd3cectKAZw8dD33DJ5oBw4cDvvJrHff0bZoyXul/ZKCKZWv827Y+HXYb/eeAyFcmzV7Yek495ZTLQvBVC1K7IMAAggggAACCCCAAAJFFSCYKmrLmhFM5aBtGxFMqafRl19tL13tufMXbPSjM2zshNkhgPKgZMhDT9mpU9+V9lOocnufUfb2O5+GbWfOnLOHRjxt06a/ahcvXiztt/6LraZzbNi4LWxrdDA14fEXrLX16vkUEilM8vP5+bWOLiveX9MmmFIPqR079pZ2U28whUbqVaawSstHK9eFnlKbt+wq7acXCvLUm8yDurRgSueNLvIa/MAkO3nyiq171xpMRcuq9zVf4PWKsT8CCCCAAAIIIIAAAgh0NwGea7pbizSuPgRTjbPssJIaEUwl/TJdtFwPSuKTrPtQOh9CpkBHwU78V+iaDx2zvnc/ar5frcFUdDhb9LUCHy1+/niAo1/s0zX5fi+/8mYIlo4daylrB30evXbVL/red1bQdUOvoaa1gqonp8wNvcBOf3fWdwnrffsPWe9+Y+yNpR+E92nBlNfLD9Z5oxO9u3f8unz/Rq75Am+kJmUhgAACCCCAAAIIIIBAVwjwXNMV6p1zToKpznHOdJZogBQtKB6K+GfxECQtjImW60FJtWDKzxkNkaKvdS4tKjsaxHjdouta9qk1mFJZ0R5Jfh7VNxpEpVl40KWeYW7hvcm8LK29PuoBpcU9tE56HzaahcAu6uHnUL07euELvKOFKR8BBBBAAAEEEEAAAQQ6WoDnmo4W7rryCaa6zr7mMyu8iAdGOjgeiniBHR1MaR4q9SyqtNQSOtWyjwdB8QDHgyQPhPS55rmK93DS5+0NpjQRfHS4oq7X60MwVan1+QwBBBBAAAEEEEAAAQQQaKwAwVRjPbtTaQRT3ak1Uuqi0KW7BFOac0lzSfmcUylV7vQeU501lM/n3GIoX1rLsx0BBBBAAAEEEEAAAQQQaLwAwVTjTbtLiQRT3aUlKtQjLZjykCg635PmR3rp5aVlw+jShq9Fy/WhZfEAzHsI+RC9EydO2eAhk+yRcbPCpOlebfUsWr9ha2mCcpUdHbrm+0XXtezj59e+0SXeY0qToCsw6y6Tn3tPLq9zvBebe8evy/dv5Jov8EZqUhYCCCCAAAIIIIAAAgh0hQDPNV2h3jnnJJjqHOdMZ1F4EQ+MVKD/Qt6oR2bY6dNnQij0wYdrw9C1aCjUyGBK5/109cYQAs1+YbGdO3c+/M2dtyxs81+xqyV0qmWfWoOpCxe+t3GPPWcDBk2wPd80hQnMFZTpF/TiQ/k0J9aI0c+EX+C7dOmSffTxuvALf7oGBXtaFByNGTszDA9sOnjEtJ+GL/buO9oWLXmvtF98OGX8fSgsYY4pBXlPPPWy+a8gxocM+nG+Vhuq3h4Q+vZa1nyB16LEPggggAACCCCAAAIIINCdBXiu6c6tk61uBFPZ/Drl6LRgSic/0HTYhj081TTv0/W9hobAJR74NDqY0nm3bN0dzqtz6k910DZf4nXw7dG19olOnB597WFSrcGUylU4Nw8CuWYAACAASURBVH3mayFkkod6dj37/KI2wZR+VfC5F5ZYvwFjw/n1fv6Ct0u9vbyOCt3mzF0afoVQddP+CrEUUvkSD6Li730/tUE0LNR2DQscOOixUAcfGuj7x9cEU3ER3iOAAAIIIIAAAggggEBPEiCYKm5rE0wVt225sgSBtJAuYdfCbOILvDBNyYUggAACCCCAAAIIINBjBXiuKW7TE0wVt225sgQBgqkEFDYhgAACCCCAAAIIIIAAAt1cgGCqmzdQhuoRTGXA49D8CRBM5a/NqDECCCCAAAIIIIAAAgggQDBV3HuAYKq4bcuVJQgQTCWgsAkBBBBAAAEEEEAAAQQQ6OYCBFPdvIEyVI9gKgMehyKQBwG+wPPQStQRAQQQQAABBBBAAAEEKgnwXFNJJ9+fEUzlu/2oPQJVBfgCr0rEDggggAACCCCAAAIIINDNBXiu6eYNlKF6BFMZ8DgUgTwI8AWeh1aijggggAACCCCAAAIIIFBJgOeaSjr5/oxgKt/tR+0RqCrAF3hVInZAAAEEEEAAAQQQQACBbi7Ac003b6AM1SOYyoDHoQjkQYAv8Dy0EnVEAAEEEEAAAQQQQACBSgI811TSyfdnBFP5bj9qj0BVgY2bm6219VLV/dgBAQQQQAABBBBAAAEEEOiOAnqe0XMNSzEFCKaK2a5cFQIlgf1NJ2zvgRbCqZIILxBAAAEEEEAAAQQQQCAvAgql9Dyj5xqWYgoQTBWzXbkqBMoE9CWu/8Kg7q/8YcA9wD3APcA9wD3APcA9wD3APcA9kJd7QM8xhFJlj3eFe0MwVbgm5YIQQAABBBBAAAEEEEAAAQQQQACBfAgQTOWjnaglAggggAACCCCAAAIIIIAAAgggUDgBgqnCNSkXhAACCCCAAAIIIIAAAggggAACCORDgGAqH+1ELRFAAAEEEEAAAQQQQAABBBBAAIHCCRBMFa5JuSAEEEAAAQQQQAABBBBAAAEEEEAgHwIEU/loJ2qJAAIIIIAAAggggAACCCCAAAIIFE6AYKpwTcoFIYAAAggggAACCCCAAAIIIIAAAvkQIJjKRztRSwQQQAABBBBAAAEEEEAAAQQQQKBwAgRThWtSLggBBBBAAAEEEEAAAQQQQAABBBDIhwDBVD7aiVoigAACCCCAAAIIIIAAAggggAAChRMgmCpck3JBCCCAAAIIIIAAAggggAACCCCAQD4ECKby0U7UEgEEEEAAAQQQQAABBBBAAAEEECicAMFU4ZqUC0IAAQQQQAABBBBAAAEEEEAAAQTyIUAwlY92opYIIIAAAggggAACCCCAAAIIIIBA4QQIpgrXpFwQAggggAACCCCAAAIIIIAAAgggkA8Bgql8tBO1RAABBBBAAAEEEEAAAQQQQAABBAonQDBVuCblghBAAAEEEEAAAQQQQAABBBBAAIF8CBBM5aOdqCUCCCCAAAIIIIAAAggggAACCCBQOAGCqcI1KReEAAIIIIAAAggggAACCCCAAAII5EOAYCof7UQtEUAAAQQQQAABBBBAAAEEEEAAgcIJEEwVrkm5IAQQQAABBBBAAAEEEEAAAQQQQCAfAgRT+WgnaokAAggggAACCCCAAAIIIIAAAggUToBgqnBNygUhgAACCCCAAAIIIIAAAggggAAC+RAgmMpHO1FLBBBAAAEEEEAAAQQQQAABBBBAoHACBFOFa1IuCIG2AvubTtjGzc32xVcH+cOAe4B7gHuAe4B7gHuAe4B7gHuAeyA394CeY/Q8w1JcAYKp4rYtV4ZAENCX+N4DLdbaegkRBBBAAAEEEEAAAQQQQCBXAnqO0fMM4VSumq2uyhJM1cXFzgjkT0D/hYFQKn/tRo0RQAABBBBAAAEEEEDgioCeZ/Rcw1JMAYKpYrYrV4VASUDD91gQQAABBBBAAAEEEEAAgTwL8FyT59arXHeCqco+fIpA7gX4As99E3IBCCCAAAIIIIAAAgj0eAGea4p7CxBMFbdtuTIEggBf4NwICCCAAAIIIIAAAgggkHcBnmvy3oLp9SeYSrfhEwQKIcAXeCGakYtAAAEEEEAAAQQQQKBHC/BcU9zmJ5gqbttyZQgEAb7AuREQQAABBBBAAAEEEEAg7wI81+S9BdPrTzCVbsMnCBRCgC/wQjQjF4EAAggggAACCCCAQI8W4LmmuM1PMFXctuXKEAgCfIFzIyCAAAIIIIAAAggggEDeBXiuyXsLptefYCrdhk8QKIQAX+CFaEYuAgEEEEAAAQQQQACBHi3Ac01xm79nB1PnzpkNGmS2YEFdLXzp0iVb+ekXdu99E+26mx6063sNtWEPT7VNm3fa5cuXy8qaMvUV++ONQ0p/vu/azzebyokuO3fts9t6jyzt68fddudImzZjgR1vORnd3c6dO29z5i61Pnc9Go5R2YOHTLL3PvjMLlz4vmzfzn5z/vwFG/fYczZi9DN25uy5zj4954sIFOkLXPf8A0NG2uQnn4lcIS+7iwDt011agnoggAACCCCAAALFEyjSc03xWifbFRFM1RlMtbZetBmzXrc+/R+xdeu3hHBJD2NL//xRCJWWvf1JWYsomLrrnvF2/PiVUEnHf7JqQzhe5ei9Lx5MLVy8wjeFoGvPN032wNDJds/giXb4yLfhszNnztnoR2fYgEETbMfOfaEeKkt1urP/GHtm5oKysksFFuTFZ2s3BW+ZsVQWqPYFvmvXHvvxT35ta9eur1xQOz9tZFiRpSyFWQq1VAZLxwhkaZ+OqRGlIoAAAggggAACCBRFoNpzTVGusydeR88MphYuNBs61Gz9erOBA81eftls9WqzYcPMDhyoeB+sWr3Rbrl9hG3Y+HXZfuop9fqid0MotHffwdJn8WDKP9i2/Ru7vc8oe+udq0FWUjDl+/tn8159K2xas/ar0FtL9YkvCrZu7f2w7dixN/5RYd4TTNXelNW+wAmmardkz8oCBFOVffgUAQQQQAABBBBAoP0C1Z5r2l8yR3a1QM8MpjZtMhs71uw//9PsBz+48qfX2tbcnNomGh43dsJsGzlmup0927bXRfOhY9b37kfNwyMVlBZMXbx40Z546mUb/MAkO3nyu3BOD5+iPaa8MhoON2LUtNBL6tz5C/b2O5+G4XsKaOpdVH6/AWNDPbXWkEEFWfMXvF02BFD79bptuE16ck74PNrz60DTYXt0/LNhGKOGEGrI3r59V+3kI6e4lR5cNfxQ59MwSA2HVC+v6BBIOasud/QdHeqm9eI33gt1U88z1cOHOWodrVfUwusw8YkXw/Fennq7rfxkfdk5jx5rCcMlNWxSZeq6p896zU6fPlMq0t1UF3e78ZZhwafp4JFwXZXOoYK2bN1tQ4dPCdeedI7SyWIvdG7VS+t6l0pf4OpB9Fd//XelP/WcUlDly9avt9uAgUPsb/72H+2HP/qZTXtmtn333ZX7Vfuol96SN5bZz3/xh1DGP/2vH9vIUeNt//6mUMSiRUtLZft5tK2WRffE+vUb7aZefUMZOsf0Gc9Zv/6Dy4byHfv2uD09dZb95Ke/CfvF66meYH5uX/tQQA2n/fTTNdb7znvs7//hn8N13nrbXeG80XuyWn11X89+bk4w0jlUB9VJdYsuUU9ZTXjsybJ9jh9vseuuv73s+nR8PDz0a9Lxv/7NDaHHm7fbhQsXbP78haU2kdviJX82bfdF7bZs2fJwrOr7+2tvseXvftBmeLHvn7SutX10bPS64+0zb97r9sv/c50dOHDlnvFzaftvf9fLDh064ptYI4AAAggggAACCPRggUrPNT2YpRCX3jODKW869Zz61381u/76ioGU737sWIv1HzDOnn1+kW8qW3sQovDK53hKC6Z0oMKlaM+meoKpr7ftsZtvH2GjHplRFp6UVSjljYccCpMOHT4WHkY/+nidKWSZO29ZKbDx/TRX1IkTp0ql7dq9P4RGU6fPD8Oi9FCu43r3HW3b/9JLyy2iwZS2jRk7M4RYCoL0cPzG0g/CkDz1ANOibRqGqCGKGsKoh9+tX++xfnePDUMoFehpqaXHlNdBAZjaQeGe2mXuvD+H+n+z90rPtlOnz9h9Dz4R6iUPLbv3HAiB1+OTXyoNiYx7KNRwtxtufsjcQ9fw2sLloW3VTr7oGjWH2PIVq4O5wqwHh08JJqprpcXPrXW9S7Uv8Hjo4eUr/FBQtWLFh6G+B5sP2d0DhthDwx4J7a62mfvKayEA2bJ1W2ir06dP2/gJk+0P195qhw9fCRTa24tm45eb7F9++FNTQKFQReVMnfZsCI88WNL5+vQdZPfdP6J0vj3f7A3hjuqhtvAlaSifrk3nUCijfXWel+cusB/9289N11TLouN0rltu7W9NTVfuKV37PfcODX9nzpwNxchT53rt9TfCuVT3xydNDccdPXrlvqs3mOrbb5CpXXxRXWR0Y68+tnfv/tAmX2/bYdf8/mZ7ZvpzdvHipfCn176P7uM1n60LwZ5CxlqXWtpHZVW7j/z+++jjT0un9ntm3PjJob6lD3iBAAIIIIAAAggg0GMFqj3X9FiYAlx4zw2mtm83u+Yas+XLzR54wOyRR5SKVGzSSsGRDlRoot450TCmUjClcEW9YLzXU6XyFaKoN46HYgoFFi15L/S8Ubg1+4XFpl5M2l5tUbgRDcS0v46bNXthCN48nEnaz3t6qdePAh1fFPg8Mm5W+NNrD4WiFh+tXBeGL+o6ffHjPMzbsHFb6K20/outvktYv7ns49AbTb3StNQTTA156Ck7depqLx+FThpGqWCw0vLyK2+WnTPJQ73XNNeXAkt3U5keYiqg0qI5wR4a8bRNm/5quE/8vLpO9ZzSdXfUUu0L3IMBBQi+KExRsDLl6ZllwcAXG74KvYG+/HJzCIrU42rCY09V7GnjIYOHSX6OSmsFRMNHjA1/0Z4+p06dtv5339+mR1G8rDkvv9qmt01SMBU/Tu/VQ0c9dVRGLYuHSeqllLa4ZzwsO3HipN16+902Y+YL4d+glxW3ireR2ko9nVav+bzslGoX9UhSO0UX9Y7y3kfbtu20n/7smrJj9e9fdbij90CTcbWl1vbx667lPoqGUOo9pV5U0bCqWp34HAEEEEAAAQQQQKDYAtWea4p99cW+up4ZTH3/vdnkyWaPP34ljNq1y+zaa6/MOVWhvSsFR36YgqhoGNOIYEqBh3o3aZjgvv1Xe0foYfLLr7bbvfc/XhraptfaVimgUsCinjvRgEj115C6G3oNDWu9T9rPAxeFNvFFQY8CHwU/8WBK9XlyytwwHDH+K30qy4fjRV/Hy4++ryeYiraHyvDhgLq+Skv8+uPv/dh4m0fPoc+0aL4vhYHxOcF8+Ge1uvi52rOu9gUeDz10jp07d9t//PhXZeGFtntoo+F46n3z2MQpocfUho1fpd5z7Qmm/DzqXRRdai1L9YsPS6w1mEoLh6L1iL728MV7IEU/89fumRS0zJz1Yui9pJAq7dzxNvJgKhom6lwK0zQUUOWkLTJVj7b4MEPVLW6WVkat7ePXHQ/Q/Hgf1ql1tJfdO8vfLwVpaXVgOwIIIIAAAggggEDPEqj2XNOzNIp1tT0zmFIbXrpU3kNKYVWVpVow1ageU+pFFf1Tj5ppMxaYhr8lLQp9Dh/+Nky+fkefUaEXlXpTpYVTaQGLX5/3JEraL75PtD4KizRsTgFXPJjy99Hrir72YEpBjubSiodX0fPodaODKfXcenPZR6W5o7xu0QAvyUN1qSWYUn29zKR1dwumPPjwOZniaw8Udu/ZW5oDSnM8PfnU9DC/VPTeqzVMiraxBzEKKKJLUlnqvfPnPy8P8yRF6xkPWdKCKc2HpXmxNOdT9Ph4r6VoPeKvNRfWz/6/34fjf3vNTfb8C3Pt2LErv6CpfeX53//nj0w9muKLLNWDSUMQswZTqvPg+4bb2bPn4qcpvdc+0euMvo6blQ6Kvai1fWq9j1SeDLS/Ak/1nor2oIqdnrcIIIAAAggggAACPVCAYKq4jd5zg6l2tKn3FvLhdPEiPHzxYWn6XKGFhy7x/euZYyp+bNp7TdateafiQ8ui+6cFLPHQKWk/3+eDj8qHEKn8WoIpDXvT8Le0pSuCKc3Lo3mt7ho4ztZv2Fqalyh+/fH3fg21BlMe2vlxnbWu9gXuIYNCAV/0WhOeK3CptshPPaY0pE/DyHTc4sVvloLRpDCpWplep3gPo3hZPqfSH6+7PdRB77Uo7ImHLEnB1I4du+znv7w2TKquHkta0sKh8GGF/6O6rVr1mQ0b/mgIuRR0rVq9NhwhT80vlTRvVVcEU+rd5ddb4ZJSP6q1fWq9j7xdNZxQvanUeyre9qmV4QMEEEAAAQQQQACBHiFQ7bmmRyAU9CIJpupoWPWq6apf5aujmqbQqFIIkhawZB3Kp4nM04byeW+y6K8QJl1TVwzlS5tzKu4Uf+/1ryWY2rxlV5hLynuj+bGdsa72Be4hQzSYUoCiICXeY6lafdV7SQFQ9FfWPHTQ9loXH+pVbSifehmpp028nrUGU5r7KD6vUnuDqei16ZcL1XPJy/YhbUlhi+rgQVHaueNtpLZST6dom+n8tQzl0z7R9onWu9bXtbZPPfeR2kxe7674IEzWrnOwIIAAAggggAACCCDgAtWea3w/1vkTIJiqs800R9Att48w/xU5P1xDl15f9K7d2X+M7d135Ze59FlajykFFZpz6K13PvEiwpxPGjqmAKTS4gGZ5pNqabn6a3l+jCYKj09u7p9prfLjn6v+SZOfR4ey6dgsk5/rWvXLf/GJzZuajti+fc2hih0x+Xm1OaaSeoHJ46WXl5bNxZUlmNKvGg4eMqk0Oby3hzyjvbR8eyPX1b7A46GHzq3eNL3vvKfN5OMaZqXeUeqZ5KGQAoXoovmEor2V2hNMff/992F43fARY8Mv5Xn58cnPve7RwEdt9+JL88vqoOOTekxpm35pUEGSL/qVu1//5oaqE6z7/upV9l//27+0CYkUqvl8Tz4PVbXJz1UP1Ue/1qfr8GXTpq0hKPQgKi2YqmXyc/2annpzaUL06KJQTD3IallqbZ9a7iM/n9pSvdd+f+0tDONzFNYIIIAAAggggAACJYFqzzWlHXmROwGCqTqbTA/kM2a9bn36PxLmUtJPrSsoUk8YhTgKhaIPlPFgSvu+98FndtudI0M5PvRI1fCApFowpX2379gbfqVv/MTn7WDz0XBOlbX2881hu4amRcuOXqbK1zxHmlBdE6vrGj76eF0IjebOW1aqf1oQs2v3fuvdd3T4JUCFDvrTcdqmemnxYY3RUEi/TKehfBoyt237N+G86q00YNCE8GuGra2toc6qu7bt+aYp1EXBjcqOzpv19bY9dvPtI2zF+2tCOVFzv9akOuiz+OTnHhrJQ/N4ye2dd1cFj2gwl+ZRS48pnffT1RtDryn9gmLUTXOIKaistHibaV3vUu0L/PDhK0OnFOboXtCfFg1DU6+pZ2fPuVrfV14Lw/XUE0ZOU6c9axpGt337ztBWmlD7vvtHhFDLh4r5JOn6NT0FS3pfy6IAReefN+/1EE4p3FFgo55C3vvKgw+dU+dWnZa/+0EIXqLhmM6nchQ4KXjyOrz9znvhHCtWfBiuWxYqK3qOanVVvYY+NDoESipby969+0MvqFFjHisFawqTVKc/LX0r1PP06dPhem65tb8dPXrl1ya9nj//xR/s6207gqnK6td/cFkPqbRgytvEJ2LXvwsFiQp8fHil76O6rPlsXdl1q42iIV2la6+lfXR8tfvIz+EBpuyjQaN/zhoBBBBAAAEEEECgZwtUe67p2Tr5vnqCqXa0nx7cV376hd1738QwZO76XkNt2MNTbdPmKw/n0SIVWkQnu1aPoeEjp4UAyQMA37+eYErHKESZOXuh9bnr0XAODd+7+57xYRJvBWBpi8IN9Zh67oUlpcm+9X7+grfDA7MflxbE6PMDTYft0fHPmq5dfwp1vNeTPk8LhfTwOWfu0hCeyeWOvqPDe233RXVXXfSZ9uk3YGwIzqJeerhWjyadWyFWUs+xtDrEgym/Hl1D9Ho0rFCm3jsuzaPWYErn2bJ1d7hX/Dy6b7St2qJzy0LrepdqX+AKL956690QOPkk3H6OrV9vt3sHPWR//w//HP70Wtt80dC9xUv+HH6ZT4GC5pjSL/XFf/EtOkn6G39a5odXXKte6o10U6++IZRR2U9NmRlCGg+mVEDTweYQJnkdFSxpuJrmuvIeRtpPdbp38LBQlobPadF9tOSNZaX6KxDSseot9sCQkSGQCztW+T8KpxTgqY5y0ETweq/t0UV2AwYOCXVTr6UJjz3Zxkr/FnSsT8auHkSzn5sTfiXRryctmNK51Cbz5y8sXZOO/3jlqlLgqH103eoxpc+83Z6eOstaWk5Eq1vxda3to0Kq3Ud+ItXpt7/rFeaZ8m2sEUAAAQQQQAABBBCQQLXnGpTyK+DBVNb1f8kvQc+reVrA0kiJtFCokeegrNoEutsXuM+jpEAk6c+Hv9V2dR27lw8VTKqnttUTXnVsTRtXep7ap3FXTUkIIIAAAggggAAC3V2guz3XdHevPNUvayDlxxNM5ajVCaZy1FgNqCpf4A1ApAgEEEAAAQQQQAABBBDoUgGea7qUv0NP7sFS1jXBVIc2U2ML74xgSvM2PTB0cphQXUN+WLpOgC/wrrPnzAgggAACCCCAAAIIINAYAZ5rGuPYHUvJGkj58QRT3bF1U+rU0cGUytfcTJqz6dixlpRasLmzBPgC7yxpzoMAAggggAACCCCAAAIdJcBzTUfJdn25HixlXRNMdX1bUgMEEgX4Ak9kYSMCCCCAAAIIIIAAAgjkSIDnmhw1Vp1VzRpI+fEEU3XCszsCnSXAF3hnSXMeBBBAAAEEEEAAAQQQ6CgBnms6Srbry/VgKeuaYKrr25IaIJAowBd4IgsbEUAAAQQQQAABBBBAIEcCPNfkqLHqrGrWQMqPJ5iqE57dEegsAb7AO0ua8yCAAAIIIIAAAggggEBHCfBc01GyXV+uB0tZ1wRTXd+W1ACBRAG+wBNZ2IgAAggggAACCCCAAAI5EuC5JkeNVWdVswZSfjzBVJ3w7I5AZwls3Nxsra2XOut0nAcBBBBAAAEEEEAAAQQQaKiAnmf0XMNSTAEPlrKuCaaKeX9wVQUQ2N90wvYeaCGcKkBbcgkIIIAAAggggAACCPQ0AYVSep7Rcw1LMQWyBlJ+PMFUMe8PrqogAvoS139hUPdX/jDgHuAe4B7gHuAe4B7gHuAe4B7gHsjLPaDnGEKpgjyYplyGB0tZ1wRTKcBsRgABBBBAAAEEEEAAAQQQQAABBBBIFsgaSPnxBFPJvmxFAAEEEEAAAQQQQAABBBBAAAEEEEgR8GAp65pgKgWYzQgggAACCCCAAAIIIIAAAggggAACyQJZAyk/nmAq2ZetCCCAAAIIIIAAAggggAACCCCAAAIpAh4sZV0TTKUAsxkBBBBAAAEEEEAAAQQQQAABBBBAIFkgayDlxxNMJfuyFQEEEEAAAQQQQAABBBBAAAEEEEAgRcCDpaxrgqkUYDYjgAACCCCAAAIIIIAAAggggAACCCQLZA2k/HiCqWRftiKAAAIIIIAAAggggAACCCCAAAIIpAh4sJR1TTCVAsxmBBBAAAEEEEAAAQQQQAABBBBAAIFkgayBlB9PMJXsy1YEEEAAAQQQQAABBBBAAAEEEEAAgRQBD5ayrgmmUoDZjAACCCCAAAIIIIAAAggggAACCCCQLJA1kPLjCaaSfdmKAAIIIIAAAggggAACCCCAAAIIIJAi4MFS1jXBVAowmxFAAAEEEEAAAQQQQAABBBBAAAEEkgWyBlJ+PMFUsi9bEUAAAQQQQAABBBBAAAEEEEAAAQRSBDxYyrommEoBZjMCCCCAAAIIIIAAAggggAACCCCAQLJA1kDKjyeYSvZlKwIIIIAAAggggAACCCCAAAIIIIBAioAHS1nXBFMpwGxGAAEEEEAAAQQQQAABBBBAAAEEEEgWyBpI+fEEU8m+bEUAAQQQQAABBBBAAAEEEEAAAQQQSBHwYCnrmmAqBZjNCCCAAAIIIIAAAggggAACCCCAAALJAlkDKT+eYCrZl60IIIAAAggggAACCCCAAAIIIIAAAikCHixlXRNMpQCzGQEEEEAAAQQQQAABBBBAAAEEEEAgWSBrIOXHE0wl+7IVAQQQQAABBBBAAAEEEEAAAQQQQCBFwIOlrGuCqRRgNiOAAAIIIIAAAggggAACCCCAAAIIJAtkDaT8eIKpZF+2IoAAAggggAACCCCAAAIIIIAAAgikCHiwlHVNMJUCzGYEuoPA/qYTtnFzs33x1UH+MOAe4B7gHuAe4B7gHuAe4B7gHuAeyM09oOcYPc+wFFcgayDlxxNMFfce4cpyLqAv8b0HWqy19VLOr4TqI4AAAggggAACCCCAQE8T0HOMnmcIp4rb8h4sZV0TTBX3HuHKci6g/8JAKJXzRqT6CCCAAAIIIIAAAgj0YAE9z+i5hqWYAlkDKT+eYKqY9wdXVQABDd9jQQABBBBAAAEEEEAAAQTyLMBzTZ5br3LdPVjKuiaYquzMpwh0mQBf4F1Gz4kRQAABBBBAAAEEEECgQQKNfq65fPmynTr1nR071mJfb9sT1nqv7SydK5A1kPLjCaY6t904GwI1CzT6C7zmE7MjAggggAACCCCAAAIIINAggUY811y48L19smqDDR85zW68ZZj98cYhbf60XZ9rP+3P0vECHixlXRNMdXxbcQYE2iXQiC/wdp2YgxBAAAEEEEAAAQQQQACBBglkea5RwPTmso/sjj6j2gRRSeGUb9P+Oo6AqkGNmFJM1kDKjyeYSgFmMwJdLZDlC7yr6875EUAAAQQQQAABBBBAAAEJtPe55vDhb234yKltAqnb7hxpox+dYc/MXFD603tt92DK1zpe5bB0jIAHS1nXBFMdE45YhgAAIABJREFU0z6UikBmgfZ+gWc+MQUggAACCCCAAAIIIIAAAg0SaM9zzY6d++zO/mNKQdP1vYbaU1NfsX37mlPnktIcU/pc+2l/D6dUjspjabxA1kDKjyeYanzbUCICDRFozxd4Q05MIQgggAACCCCAAAIIIIBAgwTqfa6Jh1L33v+47fmmqa7aaH8dRzhVF1vdO3uwlHVNMFU3PQcg0DkC9X6Bd06tOAsCCCCAAAIIIIAAAgggULtAPc81p06fsaHDp5QCpVGPzLDTp88knkzzRx0/ftK+++5s4uc6Tsd7OKVyVT5L4wSyBlJ+PMFU49qkeknnzpkNGmS2YEH1fWN7qFvirNkL7bbeI23nrmJ1Q1y4eEXidZ05c84eHf+s3dF3tG3fsTcm0ti3U6a+YnfdMz58salkfcHpvX+Jad3rtuH29LR5duDA4caePKW0al/gixYttR//5Ne2a9eeshK0/a/++u8q/l13/e12/HhL2XH79h2wn//iD/bkU9MTu8dqfx03+clnyo6Lvjl9+rQNGDikTb0q1SnpGqJldtTrNL/4+Vav+dz+8Z/+3bTW4g5R4x/+6GfBranpYPxwi1/73/ztP9qtt91l73+w0i5cuFDaP6nc6Dn8tcqrZbl48VKo0w033WnHjl0ZV7927fpwX2hdbWk62GyjRk8wXZvOrbXex+83L6fe/f24Wtb11nvkqPH2T//rx6Hev7/2Flu2bLm1tl4Mpzp//rwNfWi0PTBkpJ07d77s9B99/Kn9yw9/alu2bivbfuLESbuxV5/gefbsuXBs0vE6qJ66lp2ENwgggAACCCCAQEEFqj3X+GXrmXfuvGWlZ7CkUEr/+23xG+9ZvwFjS/vpWe3W3g/bkj+9X/rffF6mnik1/5Q/16l8nYelMQIeLGVdE0w1pj1qKyVDMHXo8DHrP2Bc+Ac179W3ajtfTvZKCqb0EKnJ7PSTn5+u3tjhV5IWTGm7L0rX58xdGr70VnVCnap9gdcarGi/pCDKr8vX8+a9Hh7k/3DtrXb48BHfXFp7cFIpmPIQJh421VrX0sk64UV765TkoEDupTnz7T9+/KtSgOWXED/PpUuXQvBx6+1324iHx9qZM8n/hcfPo+MbtdQamuzYsct+/strbfqM50zXpkVrvVdws2r12rIq1bt/2cE1vKm13vv3N9mvfn29PT5paqiv/kfHho1fhWtZvPjN0v8ImfPyq/bb3/WyQ4eu3ufaV6GsQri4uYIqXfc7y98PYZZCKYKpGhqOXRBAAAEEEEAAgTomP9+772BpXqm0zglvv/NpKWTysMnX1930YAin4ui7du8PnR20n+ab0nlYGiOQNZDy4wmmGtMelUtZuNBs6FCz9evNBg40e/lls9WrzYYNMztwoPKxf/n0o5Xrwj+iEaOm2YPDp9jplO6KNRXWzXaKB1N6QFy05D27odfQsO6MRLuWYEpsqsvri97tlC+0zgymFI7cc+9QG3zfcPvl/7nO1HMkvnhQkhZMKRT47TU3hRCgpwVTfm8sXPSnEIzIwpd4MOXbjxw5GnrhPDt7Tikw8c+0du94SBLdp97XtQQ8fi+MGvNYWY8unUs9vIaPGBvuFQ/U6t2/3jpr/1rqrf1klRQ4zZj5gt3Re6CdOnUlZFN56lH15ZebS9X59niLXX/DHfaTn/7G1OPq+++/L32mQEqh486duwmmSiq8QAABBBBAAAEEahOo9lzjpagDhodMaT2bmg8ds753P2oDBz1mU6fPt8cnvxRGtvhxgx+YZCdPfudFhrWe4aI9sYrW0aPsYjv5jQdLWdcEU53RcJs2mY0da/af/2n2gx9c+dNrbWturloDjZ0dO2G2TXziRfvyq+1h2Nv6L7YmHqc0eNjDU8OvEOiXCEaMfib8MkF0Z421nT7rtdI/YHWD/OjjdaaeHL6ox9Kbyz62Pv0fCV8O2uedd1eV7aNulM+9sKRUjoa6TZuxwI4euzpETOWoS6USb31ZqAeUrkW/luBLPJhSDyntpx5TPvzG99V6y9bdYdyxEnGdU9eia9IXjoY79u43xvbtP1Q65OLFi8FOk9+1tJwqbY++qDWY0jHee+3Z5xdFi0h8rWvTdWtd71LtCzwt8IifR/tV6zGlB3SFSZs2bbVx4yeH8CE6zExlelCSFEypndTbRMP4XnjhlcShfPGwKl5PDx98yFp0HT2nzqWhWb/+zQ2loVrL3/2g7N489u1xe3rqrBAy+DC0ac/Mtu++u/r/pOSisGH2c3NMw720n97Pf3VR2X3n9dK6moN6mqnH2cxZL5Yur1I7qZeagsADB64GWX6ge+v4+KJ7/ZNP1pTqrSGY6s3Ur//gsqGWcou2ffxaVK56P6k30DPTnwvXrXtBoY1fb/zc8ff17K9hgLoPosGnB1vx63zt9TdKIZPXW66977zHNBxSdVSbekAWr1f0vcqOOshb7jqHL7oOOT4xeVoIqBRUaZG17m0PtvS9R48pV2ONAAIIIIAAAghUF6j2XKMS1PFCHTD07KRnx2/2Jvdq0v82O3P2XNl/2NVzqwdT0elZojXzQEv7Fa2jR/Q6O/t11kDKjyeY6syWU8+pf/1Xs+uvrymQ8qrpH6XCFvWa0hjZh0Y8HQIY/aOMLpqHqXff0fbKq2+Zwiw9QCk80T9sBVZafIytAisFSAqjFATdcvuIUrdHBTkzZr1uAwZNCL9+oH1WrfnSbrtzZGkfhQNKp+8ZPLE055ICG9VNfzqP6qdkWuffvGVXeK/hcDpOwxK1v5ZoMKVr0P4aB6wy4suatV+FYG75itWh7k0Hj4QvljFjZ9rZs+dNgd0NNz9k6uLpiwdJCq3iZr5PPcGUB4XqvaYvxUpLHoIpmahHiXpM6SF/5crV4aFdc05FFw9KoiGRf67gQIHDxi83hV4r8RCqUjjjZcTXqpd6EymA8KFjmjdJAYrm+9m7d3+4B9Z8ti4EUEveWBaK0JCzPn0H2X33jygNSdzzzd4QTIyfMLkUOqlOCqPuHjDEDjYfCmWtX78xhBNzX3mtdK94KOJBTSUH9bJRbxv1PNNcRFoqXbvCkP/+P3/UZvifjvPz6Pj4orooTFKwpQBR7abha7qeaPtUC6bCELxf/MGmTnu2zCXefvHzR99Xur7ofnqtYFDe0eDOw6ro0Dh39J5L3gZ/vO522759Z2ir3Xv2hvsg2qbx8+m97qNosKRtahu1kZevbRrep/Bp/Rdfhl5/ahstXmcFtrr/CKYCC/8HAQQQQAABBBCoWaCWYErzKGs+ZQVH6pChZ9Jal5dfebMUTPmzaPxY76yg8os4b3P8ejvrvQdLWdcEU53VYtu3m11zjdny5WYPPGD2yCNmra01nV3hRjzIib5XIR6WPDJuVnjtBauHkHoK6R+rFgU28QRaD24KbTw5/nrbHru9zyiLzqPk+3jXSJ8cfP6Ct/1UbdYKikaOmW5PPDUnPEi22eEvGzyYWvb2yjBEToHY4cNXJmuOHuOh3LTpr5Z9USmMUs+pDRu3hR5Rul71ypKJFoVZ6oGV1stM+9QTTCXtH07U4P9T7Qu81kBA+0V7i8Sr6UOYFHJoib/3/T0oiQYf+kxBkHpK6eFfgWVSvZK2eblpa83r86N/+3mpXO23bdtO++nPrikLcnRvxodqJZUZn1dIdVK4E53oWmUplIrOs+WhSC3BlM4bD4MqXbuHMtonvrh3/LOk4XQ6Vr3EVO9o+8TrEr0WD6U0EXi015FCo0r3S7ye7dlf59Qk5Fp0ff/1v/1LWRjq96Bfu9c72tNKx3740Sehl5vui6RF96N60ylo83DT91O9FXBqYnMPm3Qf6X5WeKb7RYv3rnrjT1eCT983GqR5mVp7Xf1+iX7GawQQQAABBBBAoCcKVHuukYmePb3Xk54Pa128Y4OO1Yiat975JPVQ7zSgfaPPuqkH8EFVgayBlB9PMFWVugE7aK6SyZPNHn/8Shi1a5fZtddemXOqSvEexujX4PTQrCXag8oP966Jlf4Re0qssEihUdry2sLlIQg7FhmSp30/+OjzUrrs9fJeVUll6XxPPPVyCMLWb9haqn98X9VZXyKaU0pfEmkTnu/YsTdx4vH4tauXmA/nk5nsKg3jU316cjClHlIKe/zX1jzo8R5U3l4elESDD+0bn1dJYUK8x422qTdP0l/SA7yCEvV4uub3N1tz89VfQdTQK4UvCmGiiwKL+Dmjn+t1vF7x976/D01T7ykt8aAhycGP1ToeBqWdR/u2J5jShN2aRyk6DE1lJdUrXhe/lqVvvm233No//B09eqXnol9D/Bjfnraud3/VQe2q6/CQ7YUX54UwSHM5aVFYqGF1Hhp6vbWOLvHQyD9zV91vCr3mz18Yejv551rrVxY9mFQ5mjTdy1do5cFTdD8dRzAVVeQ1AggggAACCCBQXaCWYCoaGn22dlP1Qs3sxIlTNnjIpFKglTYVjBemctsTfvnxrNsKeLCUdU0w1da2Y7Zo/qZoD6nIxLqVTqghcOpqGO3to55A6hkV7RXkXR8rJb/eg+nJKXNTQyLVRSGN/4ONr6PdHtet32J39BkV9u1z16P2/Etv2NGj5YHB7j0HwsR0KkdDARUSaX4pD9l0Pv8S0i8kfPLphjA8UEMEDx8p7zUV/SKJ10vvPZRTzykfzuc9xqLBXpJ3Tw2mNDQpaU6pLzZ8ZT/80c/KJodOCj78V9AUvviSFMQkbfP942vdG/oFNQUK6hETXRSCJIVb2hYNphR4/PnPy0tzMPkx0X3S6uShhvfOiYciSQ7xOkZ7HKWdR8f4ubRPfPHzxD/zYzzE8eN8fxn5Eg+N/Fo0fFAmU56e2SawUSgTD/9UBzfUOnp99e6vQErHKwBUIKQJx9XjST2UfGidrs3ndNK1eL09OPLr82v23k2+3dcahuzDM6PDFfW5h1o6l9o6Omm6zqOgSvuobO9ZpeMIplyXNQIIIIAAAgggUJtARwVT0cnS06aCidYw+jzpz47Rz3ldv0DWQMqPJ5iq377TjtADuobYJYUw2hYdktfoYEo9odImCo8C6CFNYZKCMvV0SurtpOE0X2z4Ogzp05A79Y7Sr+55OKUvBW3XxO5aFMbdfPsIG/fYc6XheNquLxIdq0Cs0qJfYdCQQwV3az/fFOqk4XyVlnqCKR82WcscU5XOWe2zal/glQKPaNnaLxokRD/TPFLqmRINHaKvNbTJ28lDAA8+1K6a30fD+DT8yZekeiVt8/3ja80dpDol/Sqczh0NCeLH6r3qpRBC8xFt2PhV6txJaXWKBz/xUCTuEK2Dz43UkXNMef08OPPzJ9UrLZiS70PDHimbv8vL0ZC1aIDn230dL7Pe/TWET0P5dJxCIQ2b0zxOCqp0n6qHnObL0tBQv/fibeB18WtWOFZp0WT58WvyuaMmPv506OXmoZjK8V5pqp/q6vNL6TOCqUrSfIYAAggggAACCLQVqPZcoyO8s4Kec/XcV22JTpYefZasdBzBVCWd9n3mwVLWNcFU+/w75Sjv7ZOU5nr4ol8g0BIfzpZUwVqH8mk+Kh8Kl1RO2jb9Mp7CGp+HKmk/hTpTps0rK1/XF+2JpYdRBVca2hcNsBRY6UsnOrF50jm0zYfzqT533zPejn17Im3XsL2eYMonU6/lV/kqnrTKh9W+wNOClXix2i8tmNIDu3qs+C+QRY/VQ/mtt98d5uDRdg8BPJjygCQaZMVf+3CoWuuqnk4KpBScKKCKL+q9kvYrdr6vJjrX0ETVP7rE6xB/7/uqh416a7VnKF9n/CqfhyZZhvK9//7HYV4pDZfUkL7ocD71XtLcXnE/94kHU/Xur3LUjgo1x457ojSX06lTp0MvqTf//E4Iq6LBW1ow5W3t8z95HePrtOPVY+y2OwbYTb36ll2vB4wPDh0Veo/pXvHFP4uGj/6Z1qq3DxGMbuc1AggggAACCCDQUwWqPdfIRc943iFDU8hUW3zOYx2T9kt88TJUrp+jlmfK+PG8byuQNZDy4wmm2tp2my36FT5NQq7eUPFF4Y2Gp/mvDngvnkZMfr5h49ehl5GHXn5u/ePftv2b8Fa9lhQcxXsiaX4q/2LQMD7VPx6sabhhNIiKB1M6ga5HPaa0n5/TxxDHr1GBm+awUk8ZXzzE0hdPtWF8OqbWYEru+qVBDTvcuy/5J0y9DlnX1b7A04KV+Hm1X1IwpXmcNI9UtGdK9FgFTwp4NAeVlngwFd03+jqpXknbosf4aw3dUyikoXzeW8Y/01q/+qdf6VOgFl1UN03mrcUDs2iwobJefGl+Wa8Z1UkBwqZNW0tF+X7tmfw83BuvvBaGgGmIoy9p166eQZprSb88mHSt7q3jo4vPy+Shn39W7+TnOs4nQPeJ67XNw8F4Tzg/TzyYqnd/laPeUb+95qayeaRkoB56stefQidfPFhSoBZd9F4hmsIxLQqakoJW3S+6l6Nlan/dIxqy+vNfXluaY83Ll7sCUvW0Un2ji38W/+VKDY1VHaKBbvQ4XiOAAAIIIIAAAj1RoNpzjUx8OhY9v9XSAUDPfhu/3GafrNoQ1tFnwTRjlavyNe2LzseSXcCDpaxrgqnsbdEhJfjE4f5LeUknUXB1a++HTb+ip0W/SNC772h75dW3QrBz5uw503xS0fmaNGm5xt+OGP2MHT3WEn4tb/mK1SEA+nT1lcme9Y9aE8cpFFq15suwj3oJ6ZghDz1l6hnl5ah+TQePhPPv+abJNATQh+B5OXcNHBfCJT146pwqR5PUKWjSkhRMabvmmFLdNXG5T8SuOqrX1OwXFochNRpWo6BI2xRG+eJdOzX0Lx6e+T7RdS3BlHqwzXz2dbvl9hE1/4qDrk1ffvFwLnrutNfVvsDTAo94edovKZjyni7RACd6rAdXj02cEuYh8qDEe0xF942+TqpX0rboMXp95MjRMExPvXiivxIX3U/3lIbpKSxY89m6cG+ql5KO6X/3/abhWfqVtd533hO2KazRMfplNgVa0eFcqpN6eGko2cHmQ6GsMB/RL68tC8Y8FNFaS5KDzjl9xnP2b//xi7JfDNT+8WtXfTTEUEMNRzw8NvVa/Tw6Pr4ooFOopl9SVDAkLw1/0/VE2yceIsWvReUueWNZm/m81INKPak0jE0Bmv7tRuvdp++gsuGb9e7vv7oXnUdKdVH9/uZv/7E0vM+v2+sts+3bd4a2Uo86DeuMzh2lydIVQKktNLxU9db+Oi66n5frIaYPJ/TtWqssGcfn29JnKvvewcOsX//Btnfv/nAefRfphwB0j8V/ATBaLq8RQAABBBBAAIGeJlDtuUYePgJIz06VnoGjdgebj9p7739mWldb/PlQ5fe9+9FwvmrH8Hl1gayBlB9PMFXdukv28H+YldLipH127d5vwx6eatf3Ghp6PU16ck4Ig6IXoWBp+qzXQpij4EYhkeZ30kOcL3oIVY+pfgPGhmBFwc+0GQvseMtJ38UUfCkg0mf6B67JzfVe231Rz6fFb7wX5sPSPtpXv9SngMqXtGBKnyuI0rxV0V9Y2LJ1d+kadZ26Xm2LLxqSWMswPh2XFkypzv7nk7cfOHD1V+Li54y/7+hgKj50zt9HgygFG9H3XsdahsVF9/GgJBp8eFnRdTyI0WdJ26LH+D5e//g6Wn/dm+oB8/trbwlBjHq8PD11lrW0XB2u2XSwOQRTf/8P/2z6U3Cla1Ho4QGT6qQyFi/5c6ms//jxr0JQo3P44qGIH+cO0Tr+5Ke/CT3Pmpra9qLTeaL7qj4Kzt7/YGUIlfw88bWfR8fHF/1b/fzzL0r1Vs+eJyZPCz18ou1TSzDlPZ402Xe0p5fCLvUyU9mqv+qtIW8Kw5KCw3r290n343NDeWAV3y57tY2CH9mpHRU0qreZAqHoomu4/4GHw+eqt9pYE+HrOuOLDx+Mn0/7+WfRuaeix8evV/XReRV2sSCAAAIIIIAAAghcFaglmPJpZ/TspR5N0R//ulrS1Vc+x7L2j47GubpH+SuVp3K1/8QnXjSdjyW7gAdLWdcEU9nbghK6oYB/sdUyjK8bVj9UqZYv8O5ad+rV+QIeZEWDqc6vBWdEAAEEEEAAAQQQQKBcoNbnGo0IUscJhUcjx0w3/ap82hKdyFz7V5ow3X+dXvupfJ2HpTECWQMpP55gqjHtQSndTEDzUmlYY7WkvZtVu6w6tX6Blx3Emx4rQDDVY5ueC0cAAQQQQAABBLq1QK3PNfEAKfpDWPEL1FQvmvJFYVN06pf4fhppoHJqDbzix/O+soAHS1nXBFOVnfk0ZwKacF3DFzX31pixMyum7N390mr9Au/u10H9OkeAYKpznDkLAggggAACCCCAQH0C9TzX+A9xKXDSlC4+D3LSGTVtjH6gS+u0xaeG8fJUPkvjBLIGUn48wVTj2oSSuoGAginNR6VfB4zOddUNqlZ3Fer5Aq+7cA4onADBVOGalAtCAAEEEEAAAQQKIVDPc028h5PCqaVvfhh+/KYejEuXLoXjdLwP4avUA6uestn3qoAHS1nXBFNXTXmFQLcSqOcLvFtVnMoggAACCCCAAAIIIIAAAn8RqPe5Rj9ENGPW66XhdxqG99ikF0y/FF/Lov20vw/f01rlRX/gqJZy2Ke6QNZAyo8nmKpuzR4IdIlAvV/gXVJJTooAAggggAACCCCAAAIIVBBoz3ONQqR5r75VCpe819PQ4VPsgw/X2pEjx0tBk/bVe23X5x5I+TEvvPRGad8K1eSjdgh4sJR1TTDVDnwOQaAzBNrzBd4Z9eIcCCCAAAIIIIAAAggggECtAu19rtGwvrWfb7I7+owKw/EUNNXzp+N0vMph6RiBrIGUH08w1THtQ6kIZBZo7xd45hNTAAIIIIAAAggggAACCCDQIIGszzXnzp0P80X16f9ITcGU9tO8VDqOpWMFPFjKuiaY6th2onQE2i2Q9Qu83SfmQAQQQAABBBBAAAEEEECgQQKNeq5Rz6fDh7+1t9/5NPwS+4BBE+yugeNMa/0yu7Y3Nx+te6L0Bl1mjywmayDlxxNM9cjbh4vOg8DGzc3W2nopD1WljggggAACCCCAAAIIIIBAGwE9z+i5hqWYAh4sZV0TTBXz/uCqCiCwv+mE7T3QQjhVgLbkEhBAAAEEEEAAAQQQ6GkCCqX0PKPnGpZiCmQNpPx4gqli3h9cVUEE9CWu/8Kg7q/8YcA9wD3APcA9wD3APcA9wD3APcA9kJd7QM8xhFIFeTBNuQwPlrKuCaZSgNmMAAIIIIAAAggggAACCCCAAAIIIJAskDWQ8uMJppJ92YoAAggggAACCCCAAAIIIIAAAgggkCLgwVLWNcFUCjCbEUAAAQQQQAABBBBAAAEEEEAAAQSSBbIGUn48wVSyL1sRQAABBBBAAAEEEEAAAQQQQAABBFIEPFjKuiaYSgFmMwIIIIAAAggggAACCCCAAAIIIIBAskDWQMqPJ5hK9mUrAggggAACCCCAAAIIIIAAAggggECKgAdLWdcEUynAbEYAAQQQQAABBBBAAAEEEEAAAQQQSBbIGkj58QRTyb5sRQABBBBAAAEEEEAAAQQQQAABBBBIEfBgKeuaYCoFmM0IIIAAAggggAACCCCAAAIIIIAAAskCWQMpP55gKtmXrQgggAACCCCAAAIIIIAAAggggAACKQIeLGVdE0ylALMZAQQQQAABBBBAAAEEEEAAAQQQQCBZIGsg5ccTTCX7shUBBBBAAAEEEEAAAQQQQAABBBBAIEXAg6Wsa4KpFGA2I4AAAggggAACCCCAAAIIIIAAAggkC2QNpPx4gqlkX7YigAACCCCAAAIIIIAAAggggAACCKQIeLCUdU0wlQLMZgQQQAABBBBAAAEEEEAAAQQQQACBZIGsgZQfTzCV7MtWBBBAAAEEEEAAAQQQQAABBBBAAIEUAQ+Wsq4JplKA2YwAAggggAACCCCAAAIIIIAAAgggkCyQNZDy4wmmkn3ZigACCCCAAAIIIIAAAggggAACCCCQIuDBUtY1wVQKMJsRQAABBBBAAAEEEEAAAQQQQAABBJIFsgZSfjzBVLIvWxFAAAEEEEAAAQQQQAABBBBAAAEEUgQ8WMq6JphKAWYzAggggAACCCCAAAIIIIAAAggggECyQNZAyo8nmEr2ZSsCCCCAAAIIIIAAAggggAACCCCAQIqAB0tZ1wRTKcBsRgABBBBAAAEEEEAAAQQQQAABBBBIFsgaSPnxBFPJvmxFAAEEEEAAAQQQQAABBBBAAAEEEEgR8GAp65pgKgWYzQh0B4H9TSds4+Zm++Krg/xhwD3APcA9wD3APcA9wD3APcA9wD2Qm3tAzzF6nmEprkDWQMqPJ5gq7j3CleVcQF/iew+0WGvrpZxfCdVHAAEEEEAAAQQQQACBniag5xg9zxBOFbflPVjKuiaYKu49wpXlXED/hYFQKueNSPURQAABBBBAAAEEEOjBAnqe0XMNSzEFsgZSfjzBVDHvD66qAAIavseCAAIIIIAAAggggAACCORZgOeaPLde5bp7sJR1TTBV2ZlPEegyAb7Au4yeEyOAAAIIIIAAAggggECDBHiuaRBkNywmayDlxxNMdcPGpUoISIAvcO4DBBBAAAEEEEAAAQQQyLsAzzV5b8H0+nuwlHVNMJVuzCcIdKkAX+Bdys/JEUAAAQQQQAABBBBAoAECPNc0ALGbFpE1kPLjCaa6aQNTLQT4AuceQAABBBBAAAEEEEAAgbwL8FyT9xZMr78HS1nXBFPpxnyCQJcK8AXepfycHAEEEEAAAQQQQAABBBogwHNNAxC7aRFZAyk/nmCqmzYw1UKAL3DuAQQQQAABBBBAAAEEEMi7AM81eW/B9Pp7sJR1TTCVbswnCHSpAF/gXcrPyRFAAAEEEEAAAQQQQKABAjzXNACxmxaRNZDy43tOMLVggdmgQWbnztXdpN/sPWh39B1tT0+bZ5cvX677+O56wPHjJ+2ue8aAqrA2AAAgAElEQVTblKmvtKniqtUbrddtw+2ZmQustfVim88bueF4y0mbNmOB3XbnSPvjjUPsxluG2fCR02zt55vt0qVLjTxVrsriCzxXzUVlEUAAAQQQQAABBBBAIEGA55oElIJs8mAp65pgqoYbYt6rb4XApP+AcXbo8LEajsjHLmnB1PYde0MQN/rRGXbmTP1BXj1Xf/jIt3bP4Ik2YvQzdrD5aAj+Llz43t55d5XdcvsIW7TkvW4VBp49e95GjpmeGObVc9217MsXeC1K7IMAAggggAACCCCAAALdWYDnmu7cOtnqljWQ8uOLHUzt2GHWr5/Zu++avfSS2cCBZlu3mj322JVtNbSBgpmHRjxtI0ZNs979xtgHH31ew1H52CUpmPKgSGGRXnf0snDxCru198O2Y8feslOpZ5p6qCkMPHaspeyzrnxDMNWV+pwbAQQQQAABBBBAAAEE8iZAMJW3Fqu9vh4sZV0XO5j69luz2bPNfvc7sx/84Mrf//7fZn37mq1ZU5P2ho3b7LbeI+3Lr7bbxCdetEfGzTL16Ikv2jZ/wduhp5GGo2no3+I33ivbV2HLuvVb7N77Jtp1Nz0YhqxNenKOHY0FLweaDtuj45+163sNDfuMn/i8HT5cHhJt2rzTBg+ZFMpRWSpz5adflA19q7ZPPJhSCKdeUqq7ek3Fl3PnztucuUtDkOTn1PXouny447PPLyo7bPOWXWFI4JvLPi7b7m+0v3x37trnm1LXGlKocvr0fyT0YOs3YGzoWRUf7rdr934b9vDU4CdD9cbat6+5VK7CMA1TlL1CMQ1nlIWWSvY6Tm0b/dO2SosfU22/pDL4Ak9SYRsCCCCAAAIIIIAAAgjkSYDnmjy1Vn11zRpI+fHFDqbcdNcus1/9yuzf/93sww99a9W1ApdZsxeGHlMKbT5auS70mlIIE10UmGgupgGDJtieb5pCULP16z3W7+6xNmPW63bx4pU5mj5dvTGEMMtXrA4B0okTp2zcY8/Zvfc/XuoVpFCld9/R9sqrb4VQS/tMnPRi2T4KexSovLZweZj/Sed/651PQoilOmqpZZ9oMOXXoPmdVM/4op5CY8bODCGPgjTt/8bSD8L1rFn7VairQrvBD0yykye/Kx2uYZAKuuJmvoPqq5Br2vRXy0I8/9zXMpSlGyuMWrXmyzAv1ZI/ve+7hUAt6qcwTeGX6iBbLR4WyV6+vtRiX2+PKT9XRwRTq9d8bv/2H7+wJ5+abhcuXPDLsHq3lw7kBQIIIIAAAggggAACCCDQYAGCqQaDdqPiPFjKui5+MPXdd2b33282ebLZq6+a/eEPZs1Xe89UatNj356wu+8ZbwpXtMTf+7HqVaUeOOu/2Oqbwlq9e/re/ag1HzoWwhqFNgq6FHj54j2NNERQ4csTT70c5jBSAOKL7/P2O5+GTQo51FvoyJHjvkubdS37eDD1xFNzQuijgOj1Re+W1c8LVoB0e59RZT2b1EtMYdTYCbNDqKTrveHmh0weWjzESetlpn08EFMvJPWE0vmPHm17XV9v2xPOr0nZffHg0MMw1Ud1iZ+vpeVUCPZefuXNcKhs4sMHa7X3a0qaMN7r1ah1pS/w8+fP29CHRttf/fXf2Y9/8mvbtWtPOG292xtVV8pBAAEEEEAAAQQQQAABBJIEKj3XJO3PtvwIZA2k/PjiB1MrV5rdeqvZ4cNXfpFvyBCzWbPMavi1t3gY40GI5pyKTgquwCM6HCzpNvIhbZ+t3ZT0cdimuZQ0p5J6QkWX09+dtQeHTylNuK163dBraKlXVXRff13LPh5MqSyFUgqHkiY813U/OWVumGfrzNnyydCj175v/6HQo8yH82l4nobppQ3j87qq99NHH68rDdFTXTQULzr8TiZJ800p0POhgAoAFQRW652kz/0Yr0Ot9gRTLsYaAQQQQAABBBBAAAEEEKguQDBV3Sive3iwlHVd/GBKLfx9ZE6o1taaQin1oEmaU0q9otQ7ynsFqXj1ntHk6PHQJnpzKZCK99KJfq7XHuRE5zCKvvZeOgrF1MtJAY6G3g0fOc1Uvnof+VLLPh5MqZzps16zBa+/EwKv+C/heRgTrUv0tYdy3mPJezApkIoHQF6/pLUCKoVbCrZkHB1WqGuPnjP62s/hftFeVUnnSQqm/NhoudHXbu8W/j6p/EZtq/YFXu+QvbT9G1VfykEAAQQQQAABBBBAAAEE4gLVnmvi+/M+PwJZAyk/vmcEU+1oVx8+Fw0noq+jQ/IUUjQymNLcTdUW9WLSRN0vvbw0DOtT3eK9nart48HUhMdfKM1V9fjkl0IgtGHj16UqeBij8s+dvzqXUWmHyAsNN9RwvrWfbwrD6kaOmR6G9EV2qenlweajpl8G9N5pMtb8UhqWl7Z4uJQlmKpm7xbdIZhKc2A7AggggAACCCCAAAIIINBdBAimuktLNL4eHixlXRNMpbSNevtofinNKxVfFL5ownIPSaLD2eL7+vtahvL5UDQfCufHVlsrgNJQOAVCPg9V/JikfTyYioYsh498GwIhhUJ6rcV7j3lPqHjZ0fc+nE9BXe9+Y6oOq4seG38tV81rtXvPAdNrlafy0xb3a89QPj+2mj3BVJo+2xFAAAEEEEAAAQQQQACBtgIEU21NirIlayDlxxNMJdwRGgannjpPT5uXOBG4euYoMNE8TloaNfm5hsL5r/R56OXV+/Kr7WFeK/VYUs+leE8knyNJoUwt+6jcpGDqyvV8HXpN6fp9eKD/6l98gvempiNlc0F5iKUeXD7Ezq8hvtav9ynsik9Wrv0UpKlXms8rpR5cGtoXn69K17Bt+zehaB9KGC8vafLzeN1qsddJCKbirch7BBBAAAEEEEAAAQQQQCBdgGAq3Sbvn3iwlHVNMJVwJ+gX4G6+fYRpYu2kxYMr/YKeghj/ZTkNNdvzTVMIVdZv2Gq9+4626HxNn67eGMKa5StWm+ZTOnqsxUaMfqZsCN72HXvtjr6jbeKkF+3EiVOh7HfeXRXmXHrv/c9CdbwcDTvTuRWqvPLqW3+Z++rKELxa9kkLphQKqd6aFH3Jn94P59Q1KxC7a+C4EASp/urJpGvWXFytmrvrL4vcFEzFwzP/PLpWPTWf1MxnXy/1QNP1qOeXtrufGytQWrXmy+B36PCx4Dfkoafs9OkzoVj5yV0eKkfzfmni9mgPsKQ5pnRwLfZqb7W7znnq1Heh/aPXE3+tc8miWi+u+HF6zxd4kgrbEEAAAQQQQAABBBBAIE8CPNfkqbXqq2vWQMqPJ5hKcK9l2Fh8H4Ug8xe8HUIlBRH9BowNw+sU4PiiwGfd+i12730Tw8TlCl5mv7C4zaTpmjtq7ITZoYeQJibX/gpwdLwWrdWDavCQSaGc63sNtQeGTg7b6tknLZjSOTyIUkimwEbLuXPnbc7cpaVr1Gd6r+3RxYfF1RrG6Nf3NJn7bXeODCGOrkfXtvLTL0IA5WUrnFKPKdnKWH7TZiyw4y0nfZew3rV7f/hVP5WjXlaTnpwTQkDfKS2Y0ufV7LWPArmBgx4Ldag2JxXBlKuzRgABBBBAAAEEEEAAgZ4oQDBV3Fb3YCnrmmCquPdIl12Z5tPqc9ej4VcGu6wSBTgxX+AFaEQuAQEEEEAAAQQQQACBHi7Ac01xb4CsgZQfTzBV3HukS65MvZo0N1V8nqcuqUzOT8oXeM4bkOojgAACCCCAAAIIIIAAU5QU+B7wYCnrmmCqwDdJZ16ahjIufuO9MKRQQ+zWrP2qM09fyHMRTBWyWbkoBBBAAAEEEEAAAQR6lADPNcVt7qyBlB9PMFXce6RTr8yDKU1ivmnzztJ8WJ1aiYKdjC/wgjUol4MAAggggAACCCCAQA8U4LmmuI3uwVLWNcFUce8RriznAnyB57wBqT4CCCCAAAIIIIAAAggwlK/A90DWQMqPJ5gq8E3CpeVbgGAq3+1H7RFAAAEEEEAAAQQQQMAIpgp8E3iwlHVNMFXgm4RLy7cAwVS+24/aI4AAAggggAACCCCAAMFUke+BrIGUH08wVeS7hGvLtQDBVK6bj8ojgAACCCCAAAIIIICAEUwV+SbwYCnrmmCqyHcJ15ZrAYKpXDcflUcAAQQQQAABBBBAAAGCqULfA1kDKT+eYKrQtwkXl2eBjZubrbX1Up4vgbojgAACCCCAAAIIIIBADxbQ84yea1iKKeDBUtY1wVQx7w+uqgAC+5tO2N4DLYRTBWhLLgEBBBBAAAEEEEAAgZ4moFBKzzN6rmEppkDWQMqPJ5gq5v3BVRVEQF/i+i8MGtbHHwbcA9wD3APcA9wD3APcA9wD3APcA3m5B/QcQyhVkAfTlMvwYCnrmmAqBZjNCCCAAAIIIIAAAggggAACCCCAAALJAlkDKT+eYCrZl60IIIAAAggggAACCCCAAAIIIIAAAikCHixlXRNMpQCzGQEEEEAAAQQQQAABBBBAAAEEEEAgWSBrIOXHE0wl+7IVAQQQQAABBBBAAAEEEEAAAQQQQCBFwIOlrGuCqRRgNiOAAAIIIIAAAggggAACCCCAAAIIJAtkDaT8eIKpZF+2IoAAAggggAACCCCAAAIIIIAAAgikCHiwlHVNMJUCzGYEEEAAAQQQQAABBBBAAAEEEEAAgWSBrIGUH08wlezLVgQQQAABBBBAAAEEEEAAAQQQQACBFAEPlrKuCaZSgNmMAAIIIIAAAggggAACCCCAAAIIIJAskDWQ8uMJppJ92YoAAggggAACCCCAAAIIIIAAAgggkCLgwVLWNcFUCjCbEUAAAQQQQAABBBBAAAEEEEAAAQSSBbIGUn48wVSyL1sRQAABBBBAAAEEEEAAAQQQQAABBFIEPFjKuiaYSgFmMwIIIIAAAggggAACCCCAAAIIIIBAskDWQMqPJ5hK9mUrAggggAACCCCAAAIIIIAAAggggECKgAdLWdcEUynAbEYAAQQQQAABBBBAAAEEEEAAAQQQSBbIGkj58QRTyb5sRQABBBBAAAEEEEAAAQQQQAABBBBIEfBgKeuaYCoFmM0IIIAAAggggAACCCCAAAIIIIAAAskCWQMpP55gKtmXrQgggAACCCCAAAIIIIAAAggggAACKQIeLGVdE0ylALMZAQQQQAABBBBAAAEEEEAAAQQQQCBZIGsg5ccTTCX7shUBBBBAAAEEEEAAAQQQQAABBBBAIEXAg6Wsa4KpFGA2I4AAAggggAACCCCAAAIIIIAAAggkC2QNpPx4gqlkX7YigAACCCCAAAIIIIAAAggggAACCKQIeLCUdU0wlQLMZgQQQAABBBBAAAEEEEAAAQQQQACBZIGsgZQfTzCV7MtWBBBAAAEEEEAAAQQQQAABBBBAAIEUAQ+Wsq4JplKA2YxAdxAYtPtb+3/XNdl/+XA3fxg07B74+1V77YuvDvLXRQY7dh+zpoMnu8NXDHVAAAEEEEAAAQQQQKDdAlkDKT+eYKrdTcCBCHSswL27jtn//cnehoURhFuEe9F7oGPvXkqvJHDx4iXbvbfFmppPVdqNzxBAAAEEEEAAAQQQ6NYCHixlXRNMdetmpnI9WYCeUgRJ0SCp0a978r+t7nDtFy9eNvWcYkEAAQQQQAABBBBAIK8CWQMpP55gKq93APUuvECjgwjKI+iK3gOF/weUgwvUcEoWBBBAAAEEEEAAAQTyKuDBUtY1wVRe7wDqXXiBaIjAa0KlRt8Dhf8HlIMLJJjKQSNRRQQQQAABBBBAAIFUgayBlB9PMJVKzAcIdK1Ao4MIyiPcit4DXXt3c3YJEExxHyCAAAIIIIAAAgjkWcCDpaxrgqk83wXUvdAC0RCB14RKjb4HCv2PJycXRzCVk4aimggggAACCCCAAAKJAlkDKT+eYCqRl40IdL1Ao4MIyiPcit4DXX+HUwOCKe4BBBBAAAEEEEAAgTwLeLCUdU0wlee7gLoXWiAaIvCaUKnR90Ch//Hk5OIIpnLSUFQTAQQQQAABBBBAIFEgayDlxxNMJfKyEYGuF2h0EEF5hFvRe6Dr73BqQDDFPYAAAggggAACCCCQZwEPlrKuCabyfBdQ90ILREMEXhMqNfoeKPQ/npxcHMFUThqKaiKAAAIIIIAAAggkCmQNpPx4gqlE3mwbp0x9xf5445Cyv163Dbdxjz1n+/Y1Zyu84Ecfbzlp02YssNvuHBn8brxlmA0fOc3Wrd9ily9fLvjVl19ee4OI674+YqcuXiorrPXyZdt05oLds+tba2+5jTxu5N4Wu3D5sr3bcrZb1KeR15ZU1r9/2WxNFy6GP71O2qezt5XdIHW8OXfuvM2Zu9T63PVo+Dd6fa+hNnjIJHvvg8/swoXvay7p7NnzNnLM9PCn1x21LFy8wu66Z7wdP36y5lN0Vt0IpmpuEnZEAAEEEEAAAQQQ6IYCHixlXRNMdUDjKpiKPwi1tJyyJ6fMtTv6jrbtO/Z2wFnzX+ThI9/aPYMn2viJz9uhw8fCBekh+PVF75qCvUVL3utR4VR7gwoPpjaf+b4UgPxy8yFbdfJ8CIOeP3S6tL2ec8xqPhWOV6hUz3FJ+2YJpvxY1Sep7K7e1t3r5z7t+cY4c+acjX50hg0YNMF27Nxnly5dstbWiyE4vrP/GHtm5oLwvpayOyv8IZiqpTXYBwEEEEAAAQQQQACB+gWyBlJ+PMFU/fZVj0gKpnSQwpb+A8bZ09Pm9aiApSqYmV28eNGeeOrl0PPixIlTZYeop9Ss2QuDnQdWZTsU9I0HCPWuk4IplfF/rfzGVrSctbOXLtv9u4/XHeoQTNU2nLDIwdSatV/ZdTc9aKtWb2zzr04B0K29H7YdNQbvBFNm9JhqcxuxAQEEEEAAAQQQQCBHAh4sZV0TTHVAo6cFU2kPYlu27rahw6eEBz71DJo+6zU7ffpMqWbqkbDkT++H3lYaIqjhbWMnzG4zLPBA02F7dPyzpqE1+hsx+pk2++jh8bbeI23nrn2l8vVCddawGtVRQ17U4+vB4VNs2MNTQ710nBaFRBpWd+99E8N21WXSk3Ps6LGWsvKiddE+6gV1+PC3ZftE3+zbf8h69xtjfp7oZ0mvP1u7KQwj0rn79H+k7Jrk9eayj8N2eamX2uI33isbZuTHax1ddP5obze97zdgrM179a2wVnl6+J6/4O2y8qJlRF/reB1T63VFj603kPL904IpfX7njmN2+uIlW3f6QimY+vGXzaE31ZlLV4ZKXrxstutcq/XecSzs4+VF66ahgtqusOvxAyfs4IWLpuO0qPxFx87Y/7N6X+kcXjdfe3gTHcqn1zp2/pHv7NvWS6biVObaU+fthxsP2o82NtuB8xej1WjTg2vC/hN2+PuL4VgNX9zw3QX7+aZDpXqovnMOnw7nUUHnLl22L05fsKPfXzTvYebnOdF6yb451xrK0mfVrtWPi1ZQwxV1rf6Z6q/X7jBw17elc+h6Ndzvvt3lwy2ruXhZ9a6j9az19dvvfBru5/i/m6Tjq31X+Pehvmdemb+s9P2mf88rP1nfJryv9j2pOug7RkOm9f3n35PR72M/p3/Xeb39O8//nabtV+/3mpeftiaYSpNhOwIIIIAAAggggEAeBLIGUn48wVQHtHb0QShafFKPKfVAUFC0fMXqMCym6eCREAiNGTszhER6uJs778pD2+Ytu8LD2qnTZ+zxyS+V9SDatXt/eLCbOn2+afib/nRc79jQQT141RpM3Xz7CPt09cZQL78OvY/WV72b9CB47/2P27G/hFOqi877yqtvhfBG+0yc9GLZPl6er9OCIv88vvb9739wssnMF/W8mjHr9WAhLw012r3nQBh6FB1m5MfHH7DlEw+mFCwp5FP7qbyPPl4XHnrlq/aptKi87hRM/Y/1TbbnXGsIkjTXkd7vPPu9KYQZ/s3xEL7cvO2oHbpwMQQ8GgLogUdSj6knDpw0BUArT54L4ZHCqMXHzoRASQGTHxtfpwVTsjzeesmG7rlSl2cOXhk+uPTbM6Wy/Nj4UL5n/zLUcOHRK6HY3TuPhWvYd761FAZpH9X34/+/vXuLkau69zxuKc/naV786peRznkYiVEeJtIZacR5iqWRMmdeRuhMLvgMCZi7gZzEBAiYi8EECA4Q0nAAY2MgJoTgwy0G383NDXZM28Z22W633W13t8t9rb5U1X/0X1X/6l27967eu1ZVd1fXd0utXb1rr7XX/tSqkuqntVZdycl/++q86P0dHSutixQOpnSVrg8vj8s/fHHOXTvpvUa1LyqYuu9M1gVjfxuddHYavqmjjmh7MDBdUoOpJC5h47n+r9Vv4547dvy06OfCAw89XxWeR50/12eFhT86Aks/M8fGc+7zYsvW/3Dv3zNnL1SqnetzUk/Uzxld60rfqxqU63t1z95ONw3Y3tN2zXqCqXo+1yo3EPOAYCoGhsMIIIAAAggggAACLSFgwZLvnmCqCS93VDCloYaOGgquMaXrtfzqvt/Js79/w01ls6Z0fnXUfZn6+tBxF07pl6gnn361KiCyc3Vv0+B01JWGVrbpQsQPre9wf7YocZpgStfECgYvQ0OjctcvnnDT6oLH9Quk3tfO3V9W2hL+4mfn6IiLqE2PRwVmUefqMQuWwlOK9IuzjmjaueuLqqJmqvtg+STBVHh6kt77fEwtnCtYiHveRjhZ0BI+T4/biKfwc/b/1kujLsDZcO5KJRCKCqbs/OD+fx7pc4HQifEp+c+fl0Kd4PP62MKb8IgpDY2e6hmqXPO/f31Bzk1MuzBNQ7Rg2WAw9f2/9bow7fDoZNU1n71QCqI2nh9yQZSOgNI/DaWsTdce73cjqMzLQiQdBTbXQuVR92r3Fmyf1WkjptTl2PjUrPBP2xVuoxolcbH7SbqveoMk/Ef7vq71pmGSvi9efPlt0VFEwc8DrSrJZ4WFRL/81dMyPDxaaYEGyT9d/YDYZ0WSz0ktrKMk9XMoGGhpuzZtfrcSNts1w59Pc42Yss/YcLm5PtcqNxXzgGAqBobDCCCAAAIIIIAAAi0h4BtIWXmCqSa83BpM6SiZ8N99DzzrvsTZJXUtFv1yFw5XevsG5MZbH3bTv+wLkX7h6vz66KwvgFqXjlTStas2v7bdqq7s9cudfsnTL3u6pQmm9D6Cm45A0qmG4TAneI615Y9vfRQ8LCOj424kWLhOOymuXfZ8eG/BVLgtel21U8PgZl+UNQTULa68tsNGV+h5ce3S6Yw/uvZuN60xeJ1GPk4aMITPa0QwpaGKbsFwRR/b1LTwNYP/h0OY4HP22MKbcDAVVb8GRhboaHkrG2zbuvKv/IUXdr/xxICM5ku//mePP87mKqGU1hf2StJ+u4+oc6PaFz7PwrB9Q9Vt0Xr/PDAmE4Wi3HOmtA6YGiVxsTYl3dfbVzXsOfy3b90ISPuM0xGTeswCqiSfFUlDoqSfk48/+YroZ6yOvApuwfd00muGz6v3cy3YjqjHBFNRKhxDAAEEEEAAAQQQaBUBC5Z89wRTTXjFwyOmdBSTjmbS0Us2ckkva+GIfbkL7/ULlW4aKt1+5wYXdF13w/1u8fTu7t7Kl0BdL0pHG9kIg+At6TV0dIMGKbrFBS3aZhsNYKMHwiGS1hUePRS8lj62toTvxf4P12nlte3husM+wRFV9pzug5vWr6O6NIgKbvZFU39RLDcxWbEPlw9+idXycV52n1Hmwev6PE4aMITPCwct4efDI6Z0+t2miyNuCl14YmIw/IkLpnTqn45U0lE9wS0YJoXbYOFNo4IpbVutTa9j19TgJ9iesFc4RAqem+Re7TpBu3Cddk64LXotLaeSv78w7Nq52IIpc9YQStd00l/N/NnqB9znjP1ypr6vwu9nK2d7e0/a544dt88f+/yz97p9hoT3ep7VpWvvBT9jtc7ge9rOm+ua4fPs/R6+tv0f97lm9xS3J5iKk+E4AggggAACCCCAQCsI+AZSVp5gqgmvtn5JCY660UvoNBNdjPfrQ8cqV9QvXMHQqPJExANd0Purr4+5KX06aknL2ZdA+9KkU+nCW/gacUGLttm+rNkXw/CXrSRfNq0t77y7M9yUmv9rcKb3pNeI2sLt1vP0S2H4fG2zLqasI7SCm33RbPdgKrzGlC7o/dHlcTdC541Lo27NKQtH1C8Yrujj8Midn33bL9npglss/eaTA26NqnAIEwx27LEFM40MpoJhjl0nuLdr6jTF4PGkwVTSe7XrBO3CJnZOuC3arlYJpoLvL/2xBl13Skdu6rTlJJ8V9p60zx2rzz5/9D2vm9Y11+ek1aWjpnSUaXBrZDCV9nMt2I6oxwRTUSocQwABBBBAAAEEEGgVAQuWfPcEU014xaOCqf7+y3L7XRvcouUaMulm013SjrrREQEbn93qfsVOf83OpplETeXTL1LzOZXPpiG+8NKfUsnawvBx5ZIGU3FT+bLZYbcAertP5Qv/Kt81Ry+5hc+Dv9Jn4Yi+gMFwJSqY+uDyuFus+67AL8mFQ5hgCGSPLZhpVDCla2HpiK2oEUh2Td+pfEnv1e4taBc2qTWVT6+zmKfyxb2xNRi3AMk+28LBcbCshUlzBVNWV63PSQ2jmjmVr97PteD9Rj0mmIpS4RgCCCCAAAIIIIBAqwj4BlJWnmCqCa94VDCll9n6xvvuF610gW7d7FekwlP89EuWrielAZYtBGyjB6y5ui6VTW2zdaiSLH6uXx7DU2z0Oo/95uU5R0zZOk268LetJaPtsQWAtW4NzexX+jQMCm66Bo0uZBy1aX26kPJNtz4iF3r7Z52SNJhKuvi5fdkNru+lbQgulKyN0OuGvfS8Vlz8XEdH2a++/VumtH6RjRYKr3X0x/7SVMhguBIVTGmwpGs4aehjAdD//uaiXJrKV60LZc/Z3sKbRgVT/6frogxOF2YtbK6LjD9zfsj9sp6NFku6+Hl4KmLSe7V7C9qFg6m0i5+HR6qpY3jtLbNNup/1JpvjgL63daqcricVfm9rUYsv9MYAACAASURBVB0Vau+VJJ8VSYOpJJ+Ten0NruZa/DwuwNJf9lx980Pu/a51hdtW7+faHKRCMDWXEM8jgAACCCCAAAIILGYBC5Z89wRTTXiV44Kps90X5IabH5Qnn95cmW6iP6muU/M0lMnlJtzflq3vuWManmho9Nwf3pRbbl8vx7894wIh/Sl0/Ul0/Wl0/dKmm/2Uebie629cJ9+eOFu5SxuZpCOH9MuWXlPXiNFphjZywabS6H2Et/BPwFtbdIqchU56Pf2C+PgTr7j26T18+NcD7p4+/uTzcJWV/7W81qNffE+c7Ha/Qqg/+a7h3C/ufkpW3/Kw9PRcdOfrSIyoqXz6xfP5jm0VLyt/252POUdti272S1/2s/d6XH/JT8O+4DRMDab0Ouqtdlrf7j0HnZe+TsGArnIjgQdWXvdpt6QBQ/g8C5vsV+b0eR0Z9dXIpEwVixJcIFx/BS6Tm3ajpu4+fVl0vSld2yhXKK0XFQxXHum+4spraKXnadClv3anI5X2XMm5X7r7X9/0ydGxKXer4WAn2E4Lb+oJpmzU14GhCdcObYvW/XLfiGvLF8MT8j8OXXB/GsRp+x4v/7pgrfaaVzhEsnbXKhu816j2RdV535msG20Wbu94oSgPns1Wgj41WgzBlL6o9t7WXxjVAFn7v753vvjyG/ee188qe4/N9VkRDn/s/WGfP8H3zFyfk1rWAix9r+rnkr5XP9rxqXuvBt/Tu/cedJ9Fe/d1uvbr+1rvR9/nds2ottm9p/1cs/uK2hNMRalwDAEEEEAAAQQQQKBVBHwDKStPMNWEVzwumLKRNjbSyS7ddTQj9/z6GfnhtXe7P32sx2zTAOntdz52X/z0y5MGWRpu6Zev4KY/2/7woy9U6tEvaLpIeng78s3Jyi9qaSD1xG9fdaFUkmBK70HXg7rj54+7aTsWqoV/CUvboqMrtH6d3qPn65fLuYIcvdft7+2Wm257xH1R1LL6+A8vvlV1v3HBlN6rfjHW0Rs6AkK9NCRTP607uGkb1VqvofbqFX7t9IuqjgL595f/XGmT/v/6mx9UvoAH6ww/1vLBL7zh52v9b4FI2r0FU8G6dWrYkbFJWXNqsBJ4WL3/cvSSHB+fknxR3KLbOvJo95VSoBMMjv7hi3OiYZBGVlemCy7s0nDq1YsjMpIvuMtpCNQ5MindE9MylC/Ij49dmnU9va5PMKXX/MvgmAucglPetN7Hzl2R3sm8a6O2Ux/rMbtXLfuH3uFKezWA6xqbckHcXMFU0nuNal9UMKVtuv3UoBvlpW3Vv/OTefl5YFqknrOYgil9kfVzR9+PGhRr39b3z61rHnXv2+B7bK7PiqjwR+uPCqb0+Fyfk3qOLsauIzbtszTqPa2fD3/+yyfufW2fDxro1xoxpXXrVu/nWrn4rB3B1CwSDiCAAAIIIIAAAgi0kIAFS757gqkWetFp6vwLaLAUDhLnqxUWprDPVIKlZlhYkKe/LNiM+hdrnfPVj7lOvADBVLwNzyCAAAIIIIAAAggsfgHfQMrKE0wt/teaFi6gAMFUc0Oh+Q5tdNHx8IgkHb2lI6+2XBwhmFrA91o7Xppgqh1fde4ZAQQQQAABBBBYOgIWLPnuCaaWTp/gTpogQDC1tIIpnYqoazg9d2HYrU+l60Hp9LlzE9Py/b/1Ekw14T1ElfECBFPxNjyDAAIIIIAAAgggsPgFfAMpK08wtfhfa1q4gAIEU0srmNLF3rcPjlXWmNI1sXQKn66zNd+jtxb6egv4tuLSZQGCKboCAggggAACCCCAQCsLWLDkuyeYauVeQNuXtMBCBxdcf2mFcuHXc0m/eVrk5gimWuSFopkIIIAAAggggAACkQK+gZSVJ5iK5OUgAgsvEA4S+H9pB0Xz/foufA+nBQRT9AEEEEAAAQQQQACBVhawYMl3TzDVyr2Ati9pgfkOKrheewVfS/rN0yI3RzDVIi8UzUQAAQQQQAABBBCIFPANpKw8wVQkLwcRWHgBgqL2Corm+/Ve+B5OCwim6AMIIIAAAggggAACrSxgwZLvnmCqlXsBbV/SAvMdVHC99grClvSbp0VujmCqRV4omokAAggggAACCCAQKeAbSFl5gqlIXg4isPAC//Xg+bb7pTjCsfkLxxa+h7d3C/L5gpzIDLQ3AnePAAIIIIAAAggg0NICFiz57gmmWrob0PilLHBnZlD+076zhFO75i+saadgbCm/dxb7veXzRcmczcr5C0OLvam0DwEEEEAAAQQQQACBWAHfQMrKE0zFEvMEAgsvcMepAWHkFMFUowOz/3LgrOg0Mv4WxkBHSp3vHV74DxhagAACCCCAAAIIIICAh4AFS757gimPF4GiCCCAAAIIIIAAAggggAACCCCAQDsK+AZSVp5gqh17D/eMAAIIIIAAAggggAACCCCAAAIIeAhYsOS7J5jyeBEoigACCCCAAAIIIIAAAggggAACCLSjgG8gZeUJptqx93DPCCCAAAIIIIAAAggggAACCCCAgIeABUu+e4IpjxeBoggggAACCCCAAAIIIIAAAggggEA7CvgGUlaeYKodew/3jAACCCCAAAIIIIAAAggggAACCHgIWLDkuyeY8ngRKIoAAggggAACCCCAAAIIIIAAAgi0o4BvIGXlCabasfdwzwgggAACCCCAAAIIIIAAAggggICHgAVLvnuCKY8XgaIIIIAAAggggAACCCCAAAIIIIBAOwr4BlJWnmCqHXsP94wAAggggAACCCCAAAIIIIAAAgh4CFiw5LsnmPJ4ESiKAAIIIIAAAggggAACCCCAAAIItKOAbyBl5Qmm2rH3LMF7zhcK8rtnt8qtdzwm/f2XE93h2HhO7lv3nPvTx2wIIIAAAggggAACCCCAAAIIIJBMwIIl3z3BVDJvzlpEAuPjE3L/g7+Xjc+81vBWnTzVLdddf798/sWRhtdNhQgggAACCCCAAAIIIIAAAggsFQHfQMrKE0wtlR7RRvdBMNVGLza3igACCCCAAAIIIIAAAgggsCgFLFjy3RNMLcqXt/5GFYtFOdjZJXf8/HH5vz9ZKz/+13vkid++Kv0D2apKe85flIcffUF+eO3d7k+ntHV391bOsfDn8Sdfkbff+Vh+duM6+Zcf/1JW3/yQ7N3XKXod3S5fHpJb1jwqr27ZLi++/LZce9297rw7/u03cuSbk5X69MH0dF62v7fH1aF13XTbI/LhXw9IoVCoOu9U5pzc8+tnItv21ts7XP1a3v70mG46gkrbom06dvy0rPrpffLBh/ur6rbjO3d/KXaPOvpKy+je6tS9jpw6eiwjD63vkLt+8YQMDY1W6hoZHZe19250z01OTlWO8wABBBBAAAEEEEAAAQQQQACBdhDwDaSsPMHUEust+z895AKVj3Z86gKfK1eGZf2GfxcNigbK4ZQGPxo0PfP71yWXm3B/W7a+J9ffuE6+PXHWiVhoo+GWBj66BpMGMFu2/ocre+bsBXeeBVMacL3+5gfuHD33N09tctfMZofdefl8Xp7v2Ca33fmYnD5z3rXtwGeH5bob7pc//+WTyqug19d2vPbG+64ubd8LL/3JXVPbrZu1LTyVLxhM2TkarOm1bdMQ68ZbH5bevoFKPRpI6fm6RU3l0zDtR6t+JV8fOm7VVIIvfY4NAQQQQAABBBBAAAEEEEAAgXYTsGDJd08wtYR6jo7o0ZE9HS++VRnRpLenIZIGUTpKSEOaJ5/eLHffu1GGR8Yqd6+hk44M0j99bMHOL3/1tAwPz4wUypzukZ+ufqAyEsmCqcd+87IbEWUV6qgtHa1lYY6OVNJyBz49ZKe4NmpbbTSSXveRx16stMFO1HBLg7XNr213h6xttYIpPTEYQun/Vr+FVVbPXMGU+WlAZpvWraYW0Nlx9ggggAACCCCAAAIIIIAAAgi0g4BvIGXlCaaWUG/5puuUm0pXa+FuHTV1823rKyFP8PZ12puGRxo+RYU2eq4FUTZ9zv4Ph0ThkUd/fOsjd10btWXX1bBMp8zp+TqKSUczWd12TnhvbQtfMzhiSstonXo/u/cedFV0n+uT62960AV0esDqmSuYskDLAjQrZyFeuH38jwACCCCAAAIIIIAAAggggMBSF7BgyXdPMLWEeooGUv/v+l/LifJ0vKhbs8AovPaSnqvldeqejnay8CUY2ug5FkRZeGT/h0Miu46FZPp8cP2m4GMLpqxMcFRV1D1Y28LXDAdTdt7vnt3qRmdpCGbT+LReez54j9YGa7ddX71sOp+NoDIDO4c9AggggAACCCCAAAIIIIAAAu0i4BtIWXmCqSXUY9IEUxrShLdmB1O6vpStORW+tv5voVCjgimtU8MjW19LpzDaND59Lk0wZaOtdDqfhlQWpkXdB8cQQAABBBBAAAEEEEAAAQQQWOoCFiz57gmmllBP8Z3K9867O5s2lU/Xh9JpdBrwxG2Nnsqn19GwSxdT//iTz+XWNY9WpvHpc2mCKZvOp3X84u6n3C/4aXk2BBBAAAEEEEAAAQQQQAABBNpRwDeQsvIEU0uo9zRj8fPgNDelsql7No3N/g9Pq7PRTzYl7utDx9xi6OFfsdPyx789414FC3/CazfVu/i5Vmrh0023PSK3rHnUrWNlL7k9F7zHcLvtXN3rKDObgmj3H3yexwgggAACCCCAAAIIIIAAAgi0i4AFS757gqkl1mP2f3rITTP7aMenUigUpH8gK/ete07WPfy8jI3l3N2eypxzo4hefPltyeUm3N+Wre+5Y9+W16eKCm20sAVRFszY/3MFU9PTeXnuD2+6th347LBrW9/FAdc2/eW/kfIvBOr1dYTTa2+8735Fb2w8J7/duEXW3PW4XLw06Npvvyxovxio/+sWXmPKHSxP59NAKTiNT5+Lukdtky4Ov2nzu66NamibjehiGp+JsEcAAQQQQAABBBBAAAEEEGhXAd9AysoTTC2xHlQsFt3i5Xf8/HG3kPm1190rGkBpwBPces5flIcffUF+eO3d7k/Dq+7u3sopUaGNPmlBVNpgSstqOKUjpnT0kgZF2rZnn39TLmeHKtfVBxqc3fPrZ1y7fvyv98gTv33VBWzBk/SXA2+/c4OrR6cg6hYXTNli5eF1taLuUf3e+2Cva5v9QqFdVwMwDbeCI6zsOfYIIIAAAggggAACCCCAAAIItJOABUu+e4Kpduo13KuXwMjouKy9d6NbUN2rIgojgAACCCCAAAIIIIAAAggg0OICvoGUlSeYavGOQPPnT2Dvvk5ZfcvDoiOw2BBAAAEEEEAAAQQQQAABBBBoZwELlnz3BFPt3Iu490QCBzu75NHHX3KLtz/fsU1sTatEhTkJAQQQQAABBBBAAAEEEEAAgSUo4BtIWXmCqSXYObilxgpoMKULt3/w0X63IHtja6c2BBBAAAEEEEAAAQQQQAABBFpPwIIl3z3BVOu99rQYAQQQQAABBBBAAAEEEEAAAQQQWFAB30DKyhNMLejLyMURQAABBBBAAAEEEEAAAQQQQACB1hOwYMl3TzDVeq89LUYAAQQQQAABBBBAAAEEEEAAAQQWVMA3kLLyBFML+jJycQQQQAABBBBAAAEEEEAAAQQQQKD1BCxY8t0TTLXea0+LEUAAAQQQQAABBBBAAAEEEEAAgQUV8A2krDzB1IK+jFwcAQQQQAABBBBAAAEEEEAAAQQQaD0BC5Z89wRTrffa02IEEEAAAQQQQAABBBBAAAEEEEBgQQV8AykrTzC1oC8jF0cAAQQQQAABBBBAAAEEEEAAAQRaT8CCJd99U4Kp3MS0jOemZGJiWiYm8uX9tExM5vnDgD5AH6AP0AfoA/QB+gB9gD5AH6AP0AfoA/SB9usDLiOZyUk0N9H8ZGq6IIVCUYrFYup0yjcUSlI+rlFJyiY5pynBlOFqMDU5lZfJybxMTelfgT8M6AP0AfoAfYA+QB+gD9AH6AP0AfoAfYA+QB9owz5Qykc0J9G8xAb1TE5OSz5fkPSxlEiS4Mf3nJYMpiYmNQGcdp1serog+Xyx/KeP+cOAPkAfoA/QB+gD9AH6AH2APkAfoA/QB+gD9IF26wOlbERzEh2442aZTZZGTGlfYMRUXARWx3GdsqcJoGK74WgiUijqsDThDwP6AH2APkAfoA/QB+gD9AH6AH2APkAfoA/QB9quD7hcRPORQtHlJW7kVDk/YSpfHeFTrSJuCp8bilYOo2qdzHMIIIAAAggggAACCCCAAAIIIIBAGwjodD0dtKMzy3QKn8tPpvKsMdXo195GTCl0aZRUPTMlG90q6kMAAQQQQAABBBBAAAEEEEAAAQQWTkCn61WCKV1rihFT0pTFzxVW50uW5kgu3AvOlRFAAAEEEEAAAQQQQAABBBBAAIHFJFAKpsrrTBFMEUwtps5JWxBAAAEEEEAAAQQQQAABBBBAYGkLEEwNVf2aICOmlnZ/5+4QQAABBBBAAAEEEEAAAQQQQGARCRBMEUwtou5IUxBAAAEEEEAAAQQQQAABBBBAoJ0ECKYIptqpv3OvCCCAAAIIIIAAAggggAACCCCwiAQWMpjatGlT1TS6oaHqkCjq/zi6qHPrOcZUvjhhjiOAAAIIIIAAAggggAACCCCAAAINFlioYEpDKftLEyDF3X6aOmqdSzAVJ8xxBBBAAAEEEEAAAQQQQAABBBBAoMECCxFMWSAV3NcKi4LPxd1+8ByfxwRTccIcRwABBBBAAAEEEEAAAQQQQAABBBosMN/BVDCMCj9OEijF3X6SsknOIZiKE+Y4AggggAACCCCAAAIIIIAAAggg0GCB+QymwkFU1P9zhUdxtz9XuaTPE0zFCXMcAQQQQAABBBBAAAEEEEAAAQQQaLDAfAVTUSFU3LFaIVLc7dcqk+Y5gqk4YY4jgAACCCCAAAIIIIAAAggggAACDRaYr2AqTThU69y4269VJs1zBFNxwhxHAAEEEEAAAQQQQAABBBBAAAEEGixAMDUkweCKYKrBHYzqEEAAAQQQQAABBBBAAAEEEEAAgTgBgimCqbi+wXEEEEAAAQQQQAABBBBAAAEEEECgqQIEUwRTTe1gVI4AAggggAACCCCAAAIIIIAAAgjECRBMEUzF9Q2OI4AAAggggAACCCCAAAIIIIAAAk0VIJgimGpqB6NyBBBAAAEEEEAAAQQQQAABBBBAIE6AYIpgKq5vcBwBBBBAAAEEEEAAAQQQQAABBBBoqgDBFMFUUzsYlSOAAAIIIIAAAggggAACCCCAAAJxAgRTBFNxfYPjCCCAAAIIIIAAAggggAACCCCAQFMFCKYIpprawagcAQQQQAABBBBAAAEEEEAAAQQQiBMgmCKYiusbHEcAAQQQQAABBBBAAAEEEEAAAQSaKkAwRTDV1A5G5QgggAACCCCAAAIIIIAAAggggECcAMEUwVRc3+A4AggggAACCCCAAAIIIIAAAggg0FQBgimCqaZ2MCpHAAEEEEAAAQQQQAABBBBAAAEE4gQIpgim4voGxxFAAAEEEEAAAQQQQAABBBBAAIGmCrRDMPWDH/xAkv4ta4b2xGRepqYKks8XRMHZEEAAAQQQQAABBBBAAAEEEEAAAQTE5SSal2huovnJ5FReCoWiFOsIUIaGqkcfNeP/uNdsrmslCaa0DoKpOGGOI4AAAggggAACCCCAAAIIIIAAAg0WaIcRUxZa1Qqn7ByCqQZ3MKpDAAEEEEAAAQQQQAABBBBAAAEE4gTaKZjS8CkqnLJQSvcEU3E9heMIIIAAAggggAACCCCAAAIIIIBAgwXaLZgKh1PBUIpgqsGdi+oQQAABBBBAAAEEEEAAAQQQQACBWgLtGExZOBUOpQimavUUnkMAAQQQQAABBBBAAAEEEEAAAQQaLNCuwVRUKEUw1eDORXUIIIAAAggggAACCCCAAAIIIIBALQGCqepfEmSNqVq9hecQQAABBBBAAAEEEEAAAQQQQACBBgoQTBFMNbA7URUCCCCAAAIIIIAAAggggAACCCCQXIBgimAqeW/hTAQQQAABBBBAAAEEEEAAAQQQQKCBAgRTBFMN7E5UhQACCCCAAAIIIIAAAggggAACCCQXIJiaj2BqYlomp/KSzxdFwdkQQAABBBBAAAEEEEAAAQQQQAABBMTlJJqXaG4yUc5PCgXNT9IHKHG/dNfI43GvWaOu0aTFz6dlarogJdi4W+A4AggggAACCCCAAAIIIIAAAggg0F4Cmj9pXqK5ycRkKT/J5wsEU43sBpOTeYKpRoJSFwIIIIAAAggggAACCCCAAAIILAmBYDA1k58UJP14KZFGjVqqVU8ceq0yaZ5ryogpTf007SsUNPGLuwWOI4AAAggggAACCCCAAAIIIIAAAu0lUAqmSrmJy09cdlJs32Dq0qVLwh8G9AH6AH2APkAfoA/QB+gD9AH6AH2APkAfoA/QB+gD890HmjJiqr2yTu4WAQQQQAABBBBAAAEEEEAAAQQQQKAeAYKpetQogwACCCCAAAIIIIAAAggggAACCCDgLUAw5U1IBQgggAACCCCAAAIIIIAAAggggAAC9QgQTNWjRhkEEEAAAQQQQAABBBBAAAEEEEAAAW8BgilvQipAAAEEEEAAAQQQQAABBBBAAAEEEKhHgGCqHjXKIIAAAggggAACCCCAAAIIIIAAAgh4CxBMeRNSAQIIIIAAAggggAACCCCAAAIIIIBAPQIEU/WoUQYBBBBAAAEEEEAAAQQQQAABBBBAwFuAYMqbkAoQQAABBBBAAAEEEEAAAQQQQAABBOoRIJiqR40yCCCAAAIIIIAAAggggAACCCCAAALeAgRT3oRUgAACCCCAAAIIIIAAAggggAACCCBQjwDBVD1qlEEAAQQQQAABBBBAAAEEEEAAAQQQ8BYgmPImpAIEEEAAAQQQQAABBBBAAAEEEEAAgXoECKbqUaMMAggggAACCCCAAAIIIIAAAggggIC3AMGUNyEVIIAAAggggAACCCCAAAIIIIAAAgjUI0AwVY8aZRBAAAEEEEAAAQQQQAABBBBAAAEEvAUIprwJqQABBBBAAAEEEEAAAQQQQAABBBBAoB4Bgql61CiDAAIIIIAAAggggAACCCCAAAIIIOAtQDDlTUgFCCCAAAIIIIAAAggggAACCCCAAAL1CBBM1aNGGQQQQAABBBBAAAEEEEAAAQQQQAABbwGCKW9CKkAAAQQQQAABBBBAAAEEEEAAAQQQqEeAYKoeNcoggAACCCCAAAIIIIAAAggggAACCHgLEEx5E1IBAggggAACCCCAAAIIIIAAAggggEA9AgRT9ahRBgEEEEAAAQQQQAABBBBAwFvghhMD8nd7z8iyXRn+MJjVB7RvaB9pxEZfa/57rN7Xi2CqET2cOhBAAAEEEEAAAQQQQAABBFIJaFBAINX8sGApGPuGU1r+J8cuyaWpfKo+ysnpBNRXndO+XgRT6Zw5GwEEEEAAAQQQQAABBBBAoAECjJQilEoammlf8dm0PKGUj2Dysuqc9vUimEruy5kIIIAAAggggAACCCCAAAINEkgaSnAeAZb2AZ/Nt7zPtduxbFpvgql27CXcMwIIIIAAAggggAACCCCwwAIETgROafqAT3dNG5T4XIuy4qbopnEgmEqjxbkIIIAAAggggAACCCCAAAINEUgTSnAuIZZPpyOY8tFLXzatN8FUemNKIIAAAggggAACCCCAAAIIeAoQNhE2pekDPt0tbVDicy3KMmKKPoAAAggggAACCCCAAAIIINACAmlCCc4lxPLp0gRTPnrpy6b1ZsRUemNKIIAAAggggAACCCCAAAIIeArMb9h0VDpe/77kXvlHyb3yfel856hbB2d+20C45OPt093SBiU+16IsI6boAwgggAACCCCAAAIIIIAAAi0g4BNSpC27Yvt6yb30HRH727Re1u0kKErruJDn+3RpbTfb/Amk9WbE1Py9NlwJAQQQQAABBBBAAAEEEECgLDB/IcdnsuPV5TOhlAunlkt222eMmtrVOuGczxsnbVCS/Fp56T1xXlbvy8jysuXf7+uWjSdGklexkGee7HHvgXUnG9uItN4EU431pzYEEEAAAQQQQAABBBBAAIEEAvMVTK3803WhUMpGTl0n2/7aOsHMfHkt1usk6FKxp6QNSmIrqnpiQvZ3npblu85Kx9lRyU2LyPSU9J7okZW7MrLy8JWqsxflPwRTi/JloVEIIIAAAggggAACCCCAAALzIDAvAcjOd6XzFQuiZu9zW9+Vq+scNbTi6BXZPlaQXLGMVSxKdmxMNhztXrQjsTrGtK1T0lHnPc/LaxbTNp8u2YxgKneyR67adVrWnpiY1bTM4TOybNcZ6Tg/66nFdYBganG9HrQGAQQQQAABBBBAAAEEEEBg/gTmI+RY98Y/xYyWspDqn2T/9vSjplacGpfeokhufFTWHilNh7rq+JDsmCiKFKZl8/H0dc6HR93BVO+UiBRkx8mFuy+fntn4YGpctn+WkWV7eyVy9arePvnnXRm55pvRcrPLU/72n5YVgSl/HZnxwG2NyOb9GVn25SXpOnJOVu4uWS/ffVY2nLB67PSCZDO9VVMIV37RJ13Zgp3g9rlzF2XdgfI0w92nZdWX/ZIJ5mgEU1Ve/IMAAggggAACCCCAAAIIINBGAk0PYj58UXptsXPdv3KTbH97s2zedlP1QuivPidrYkbpRLdxUHa4aVvjsubzUFBzeKQUVIyP1D0SK/qaoeukau9MWYKpRr3BBmWdvgYHBxNVmD3WLct1dNXx4fKUv3HpOlQeVdVjYVI5mNqVkau/7JdeDZCm7byzsm1g5lI6Wut7rr7yWlZjQ7Lts9OybE+PdJYzrNyp0DmDg7JB18I6cFF6rSqCKZNgjwACCCCAAAIIIIAAAggg0G4CzQxglu06Ktu2hBY83/RUKYB6/ynJBgOrl5ZL5k9Hk0+/65l0L1XmUm9EmW7Z7AbBVE+XW3luTLp0yziDWQAACvJJREFU0FF5y+bGQ1P+hqVLRLLDo7IjZ0GFDlIqSFffgFzjytucQZGclj8yEzitcSNlpmV//5RUBs0Ui9J7ZUiuCYRn0cFUn2wYnJKsVa/X7L8sV7nwq9Qua3dpH7y3WmVn2teI17q6Den+0+s3dLt0Ua7ZlZF/PuKxyPlov+uPVx+ytajKwdTeXunS4NO28rVWH7XRVVnZsCcjV3112c4o7QcuyqpdGVnzrXa0IenYl5GrDg5KLnjW6fNu+uGGs+WDBFNBHR4jgAACCCCAAAIIIIAAAgi0k0Ajwoq4Olb8ZW31qCgNomKDKR1NdYd07EgWpJRCoOTT2q6+MOXCgWw2K1d/npEVhwZl27hO+ZuSjkq4ZAFQUTov9LtQaMWhrOywMKtYkB1ne900sKuOj0iXZleBUVmlNunyUROy8bhOLeyRVX2l6+aGspXpY7ODqV7pGC1NP9zmQooeWXVhUrIakl0enAneIqfyJSxb5+iu8Gvr895oeDDVV5qq5xVMSXjUVTmY2t83M6LJ3XTpvMq1enrdaLyav6RXnkq49kQg5NS6ymFYpS6CKZ9uRVkEEEAAAQQQQAABBBBAAIFWFggHDw37f+du2bHJ1pAK7GsFUy99R3Jv7K4EOLXa0uGmSgVHDdUKtC7L/ryI5EbdL7VV6v18SDp1hNLIUPma5WBqfKS6DRdKyVTuyuWZkEhHxZRHSG0uj4aqhGWngm3plo1uQM+0bD5cOj4rmDo94UKzrt7g6K9yueKkbLBQKSqYSlrW6vDc+/R1dW/oVs+IqYsDsvGzM/L3YYfKdMCEwZQLk87I5sp8vIg7KwdOlf4WuibBVIQZhxBAAAEEEEAAAQQQQAABBNpLIO5Ls+/xVW/9KHrB81ful40ffS3XvHP/7NFUbmrfD2TH+8FgJ/rxrHAn9KW/qv2nxt3oo6hpfxtcaGQBVzmYGhuuCqCWnSyV7+qtbksliCovRh7+v9KGcrDVdSE6mAoHXFbu6ks6lywwKiwimEpctpZPiud83h16X43dwqOd5qi9t89N/VvZOSCZYU0qdQvX0fhgat2p8qXidoyYipPhOAIIIIAAAggggAACCCCAwFIXsBCkofu/bpPMy4FRUlVrSSU4vmVz9cimiOAk1YgpF+iIdPZUB0t6z9VhUpOCqXKw1TtwyQVe4VCt9H9cT6sdTCUuG2FYz2se18okx/V6jd3Kv8q3L9mv8nV2ZmTZnvPSWdWIOoOpJFP5yufMrEtVdeGZfwimZix4hAACCCCAAAIIIIAAAggg0F4C9YQTc5XZ8Pp3o0dLuTWm1svaTzJy1XvrQ4ufBwOr70rXO7UXQq8OlGYHTlVtdMFUUfafnX1edT0LGUzZqK3ZbazcS8SIqXDIVTm3QUFUuD6fd4fW1egtd+Kc+6W9DWdD6ziJSOaw/uLezC/p7T+YkWV7QyHWUL+sVqu0U/kkweLn06Vzln160Y3Ym7n3Kek8cXlmQXSCqRkaHiGAAAIIIIAAAggggAACCLSXQDh48P5/1q/tBQOn74i8tq20ftPObZKpNZJq03pZt7NGSGO/yncxuC6TnR/6Vb4aU/mqR141KZiaYyrfuiFd6Cov249Z+2P2EcFU4rINCqp83h3NCKZEJmT/wdOybE+3bD47Vmre9JT0nuhxo+6uOTJcaXL2aLcLsdYeL/+K32BWOg6UrVMHUyK5kz3yvV2npVJftlTf8gN9kin/ol/pnIys/GpQshMiMjEmnYfOunZs7Ck3jWCq8hrxAAEEEEAAAQQQQAABBBBAoM0EvIOoqsDja9m+eXn8aCkXRH1Xel9bK12b/3GO85ZLdttn1Ws9VV2rvKD55JisqjqekWWHR8SNzaksap5y8XPfNaZSLn6+omfSjZ7pHeyvvt/DV2Tz+b6ZYxHBVOKyYaM6//d5ezQnmNIWTUjmeI+s2jMT6H1v/znpyLgV8gNNnpCuI+dk5e7Sect3n5E1Ry7Khr0ZWVb5Fb6Ea0y5WguSzfTK6n0ZWa6eu0/Lqs4B6dUAKrDlzl2UdQdOVxbU/96Bc7LtXOAkgqmAFg8RQAABBBBAAAEEEEAAAQTaSqChwdRco6VqjZCKes5+wS8mRFlRHgmVHR2RNYe6XYBz1fEh2TFRFClMSceRmaDi6gtTkpOi9A5m5erPM7Li0KBsGw+f14gRUyIyNSEbj/fIsl09sqpPryuSG8pWgonZ0+/6pGNMR00VpPNCv1y1KyN6H/v1xwALE7LO7r/8C3y9/X2y7PPucn0Jy1odnnufN0fzgimfVi3dsmm9ly1dCu4MAQQQQAABBBBAAAEEEEBgsQq0cjClbV9xYkj25wLrCxWLkh0dlbWBUMruceW5MenSsKe8ZXPjsuFoKdAqndOIYKogXdkpyVqTikXpvTJUtZj77GBKA7Q+2TBYXS47NiYbqu6jTzYOW8XBNamSlJ0J6cyjnr3Z1bPX67HNn0Bab4Kp+XttuBICCCCAAAIIIIAAAggggEBZoJ5wIrbMR9tk/9a10tWovze3yTWeI3xi29qEeqsXUm9MEDSf7U9yLZ83jtbPNn8Cab0JpubvteFKCCCAAAIIIIAAAggggAACZYEkYQTnJAuZCKZqv63SBiW1a+PZuQTSehNMzSXK8wgggAACCCCAAAIIIIAAAg0XIHRKFjolcSKYqt090wYltWvj2bkE0noTTM0lyvMIIIAAAggggAACCCCAAAINF0gSuHBOsvCKYKp290wblNSujWfnEkjrTTA1lyjPI4AAAggggAACCCCAAAIINFyA0ClZ6IRTycmnA6YNSnyuRVlxv1KZxoFgKo0W5yKAAAIIIIAAAggggAACCDREgMCFYCpNH/DpdARTPnrpy6b1JphKb0wJBBBAAAEEEEAAAQQQQAABT4E0oQTnEmL5dLe0QYnPtSjLiCn6AAIIIIAAAggggAACCCCAQAsIEDYRNqXpAz5dmmDKRy992bTejJhKb0wJBBBAAAEEEEAAAQQQQAABT4G/23vGrUWTJpzg3PYMs7Sv+Gxa/tJU3qcKyiYUUOe0rxfBVEJcTkMAAQQQQAABBBBAAAEEEGicwA0nBgimdrVn0JQ2YNS+4rNp+Z8cu0Q45YOYoKyGUuqc9vUimEqAyykIIIAAAggggAACCCCAAAKNF9AvsIycIpyKC6q0b6QNOeJ6KX2t+f2s3teLYCqu13IcAQQQQAABBBBAAAEEEEAAAQQQQKCpAgRTTeWlcgQQQAABBBBAAAEEEEAAAQQQQACBOAGCqTgZjiOAAAIIIIAAAggggAACCCCAAAIINFWAYKqpvFSOAAIIIIAAAggggAACCCCAAAIIIBAnQDAVJ8NxBBBAAAEEEEAAAQQQQAABBBBAAIGmChBMNZWXyhFAAAEEEEAAAQQQQAABBBBAAAEE4gQIpuJkOI4AAggggAACCCCAAAIIIIAAAggg0FQBgqmm8lI5AggggAACCCCAAAIIIIAAAggggECcAMFUnAzHEUAAAQQQQAABBBBAAAEEEEAAAQSaKkAw1VReKkcAAQQQQAABBBBAAAEEEEAAAQQQiBMgmIqT4TgCCCCAAAIIIIAAAggggAACCCCAQFMFCKaaykvlCCCAAAIIIIAAAggggAACCCCAAAJxAgRTcTIcRwABBBBAAAEEEEAAAQQQQAABBBBoqgDBVFN5qRwBBBBAAAEEEEAAAQQQQAABBBBAIE6AYCpOhuMIIIAAAggggAACCCCAAAIIIIAAAk0V+P+4Fl6RjKeV5wAAAABJRU5ErkJggg==;" vertex="1" parent="1">
          <mxGeometry x="-220" y="290" width="575.04" height="360" as="geometry" />
        </mxCell>
      </root>
    </mxGraphModel>
  </diagram>
</mxfile>
